<svg xmlns="http://www.w3.org/2000/svg" viewBox="0 0 157.38 240.22"><defs><style>.cls-1{fill:#351c10;}.cls-2{fill:#6d2411;}.cls-2,.cls-4,.cls-5,.cls-8,.cls-9{stroke:#000;}.cls-11,.cls-12,.cls-13,.cls-14,.cls-15,.cls-2,.cls-4,.cls-5,.cls-6,.cls-8,.cls-9{stroke-miterlimit:10;}.cls-2,.cls-4,.cls-8,.cls-9{stroke-width:0.5px;}.cls-10,.cls-3{fill:#621f12;}.cls-13,.cls-4{fill:none;}.cls-5,.cls-9{fill:#fff;}.cls-11,.cls-12,.cls-13,.cls-14,.cls-5,.cls-6{stroke-width:0.25px;}.cls-6,.cls-7{fill:#1d1d1b;}.cls-11,.cls-12,.cls-13,.cls-14,.cls-15,.cls-6{stroke:#1d1d1b;}.cls-8{fill:#eaeaea;}.cls-10{opacity:0.33;}.cls-11{fill:#e52326;}.cls-12{fill:#34adbb;}.cls-14,.cls-15{fill:#fcfdf9;}.cls-15{stroke-width:0.1px;}</style></defs><g id="Calque_2" data-name="Calque 2"><g id="Calque_2-2" data-name="Calque 2"><path class="cls-1" d="M153.42,137.75c1.22-5.93-1.48-31.13-1.48-32.21s-5.25-14.69-7-15.49-29.78-4.59-29.78-4.59l-14.82,18.87s3.28-3.38.84,5.21,11.94,11.16,13.07,15.76-18.65,14.47-12.17,20.81-6.46,35.44-6.46,35.44,13.21,6.06,14,6.06,30.62-5.86,30.62-5.86"/><circle class="cls-1" cx="121.08" cy="199.4" r="27.76"/><path class="cls-2" d="M107.86,239.07c0-1.84,0-3,0-3-4.85-20,7-60.92,7-60.92l-1.62-9.56-22.64,2.21-53.37,45.9s.81,15.63,0,19.13c-.34,1.49-.83,4-1.27,7.1C59.79,237.74,84.06,239.23,107.86,239.07Z"/><path class="cls-2" d="M123.2,119.36a17.82,17.82,0,0,1,8.09-6.17c5.66-2.29,10.58,12,10.58,12s1.88,3.64,3,6.33-2.56,9.3-2.56,9.3-9,19-11.45,20.08S124,170,119.37,173.54s-6.88,1-8,.28-2.56-6.61-2.56-6.61S105.62,185,92.28,193.9s-42.05,21-42.05,21L26,212.9S-2.73,169.23.5,138.51c0,0,3.34-14,3.64-19.81s-1.92-12.63-1.92-12.63-1.41-17,1.11-22.85c0,0,3.73-10.15,16.55-11.56s18.49.7,24.42,0a49.28,49.28,0,0,1,8.56-.5s4.68,1.2,10,2.45,6.69,7,15.11,7,7.6,0,14.61,4.58,6.19,3.78,12.66,9.44,13.21,5.12,9.71,14-1.83,7.55-1.82,13.75S123.2,119.36,123.2,119.36Z"/><path class="cls-3" d="M16.27,141.34s7.27-6.67,11.39-11.46,4.58-15.81,5.1-18.69a8.65,8.65,0,0,0-.95-5.36c-.75-6.84-29.89-14-29.89-14l.88,2.56.62,8.09s-.22,3.1.69,4.58,0,16.71,0,16.71S.25,143.49.33,146.47a98.32,98.32,0,0,0,3.09,16.14c2.65,10,8.77,23.55,12.18,31S26,212.9,26,212.9l-.27-5.8c.27-4.95.68-12.13,0-17.06s-4.9-7.31-6.6-8.29-2.69-7.26-3.5-8.24,3.76-6.73,3.76-6.73,1.09-6,2.67-8.6-1.85-6-1.85-6l-3.58-5.68-.33-5.13"/><path class="cls-4" d="M113.3,159.87a5.46,5.46,0,0,1,2.56-4.65,18.69,18.69,0,0,0,4.72-4.92l2-7.48,3.5-7.75,2.83-5.19"/><path d="M19.12,180.54a10,10,0,0,0,7.08,4.73,21,21,0,0,0,8.69-.68,58.75,58.75,0,0,0,8.31-2.89c2.64-1.31,5.28-2.64,8-3.86l0,0c-2.56,1.48-5.16,2.88-7.78,4.27A48.18,48.18,0,0,1,35,185a21.3,21.3,0,0,1-8.84.54,10.22,10.22,0,0,1-7.07-5Z"/><path d="M16.25,173a23.13,23.13,0,0,1,1.6-3.93,16.47,16.47,0,0,1,2.4-3.52,8.17,8.17,0,0,1,3.55-2.36,6.66,6.66,0,0,1,4.25.24h0a32.76,32.76,0,0,0,3.66.58,7.93,7.93,0,0,0,1.82,0,2.35,2.35,0,0,0,.4-.09l.14-.09.16-.16a5,5,0,0,1,.76-.62,5.41,5.41,0,0,1,3.77-.57,9.8,9.8,0,0,1,1.84.49l.89.33.85.41a31.65,31.65,0,0,1,6.22,4.18c1,.79,1.88,1.65,2.82,2.46S53.14,172.12,54,173l0,0-2.8-2.48c-1-.78-1.89-1.61-2.88-2.36s-2-1.5-3-2.16c-.51-.35-1-.68-1.57-1a14.07,14.07,0,0,0-1.62-.88l-.83-.4-.86-.32a10.57,10.57,0,0,0-1.75-.49,4.94,4.94,0,0,0-3.47.46,4.51,4.51,0,0,0-.7.54l-.16.17-.26.16a2.42,2.42,0,0,1-.5.12,9.32,9.32,0,0,1-1.91,0,35.31,35.31,0,0,1-3.7-.64h0a6.39,6.39,0,0,0-4.07-.27,7.94,7.94,0,0,0-3.48,2.23A16.58,16.58,0,0,0,18,169.12,23.33,23.33,0,0,0,16.3,173Z"/><path d="M17.34,175.13a42.93,42.93,0,0,1,4.86-1.29,20.24,20.24,0,0,1,5-.48,9.21,9.21,0,0,1,1.27.17c.42.12.85.25,1.22.38a8.47,8.47,0,0,0,2.41.36,12.15,12.15,0,0,0,4.76-1l.08,0h.07c3.48.3,7,.56,10.44,1,1.73.23,3.46.48,5.19.76a26,26,0,0,1,5.12,1.23l0,.06a13.63,13.63,0,0,0-2.55-.46c-.87-.11-1.73-.21-2.6-.3L47.4,175,37,173.8l.15,0a12.79,12.79,0,0,1-5,1,8.8,8.8,0,0,1-2.54-.44l-1.17-.4a9.8,9.8,0,0,0-1.21-.18,20.28,20.28,0,0,0-5,.32,43.72,43.72,0,0,0-4.88,1.15Z"/><path d="M55,118.08a28.49,28.49,0,0,1,6.55-5.79,16.73,16.73,0,0,1,8.3-2.74h1.11c.37,0,.73.09,1.1.13a19.35,19.35,0,0,1,2.17.42c1.42.34,2.84.72,4.23,1.18A29.66,29.66,0,0,1,86.33,115l0,0a38.15,38.15,0,0,0-8-3.34c-1.38-.45-2.79-.83-4.2-1.17a19.55,19.55,0,0,0-2.12-.46c-.35,0-.7-.12-1.06-.15H69.82a16.39,16.39,0,0,0-8.17,2.55A28.6,28.6,0,0,0,55,118.11Z"/><path class="cls-5" d="M60.84,116.17s10.62,7.18,19.81,0l.61-2.27s-6.77-5-10.61-4.24S60.84,116.17,60.84,116.17Z"/><path class="cls-1" d="M51,104.25s18.6-5.56,26.78-6.67,11.63,1.81,12.64,1.92,7.17,0,7.17,0a27.5,27.5,0,0,1-4-1.62,76.42,76.42,0,0,0-15.46-4.65c-5.26-.81-27.49,6.27-27.49,6.27"/><path d="M85,108.82c-1.36-.6-2.67-1.31-4.06-1.82a26.71,26.71,0,0,0-4.26-1.19,22,22,0,0,0-8.78-.08,24.79,24.79,0,0,0-8.17,3.18,30.52,30.52,0,0,0-6.84,5.58l0,0a25,25,0,0,1,6.62-6,23.06,23.06,0,0,1,8.36-3.15,22.23,22.23,0,0,1,8.9.22,28,28,0,0,1,4.27,1.3c1.38.55,2.68,1.28,4,1.91Z"/><path d="M24.33,114.5a20.7,20.7,0,0,0-5-2.67,15.05,15.05,0,0,0-5.52-1,11,11,0,0,0-5.28,1.53,8.05,8.05,0,0,0-1.2.71c-.36.29-.72.58-1.11.86a7.84,7.84,0,0,0-1,1c-.34.33-.67.67-1,1l-.06,0a18.52,18.52,0,0,1,1.77-2.3c.34-.34.71-.66,1.07-1a9.31,9.31,0,0,1,1.21-.84,10.07,10.07,0,0,1,5.65-1.48,15.43,15.43,0,0,1,5.66,1.25,21.1,21.1,0,0,1,4.94,3Z"/><path class="cls-5" d="M22,116.37s-5.56,8.29-14.75-1.21a10.58,10.58,0,0,1,3.13-3l1.72-.91S19.71,109.4,22,116.37Z"/><path d="M27.91,101.6a10.21,10.21,0,0,1,4,4.24,10.72,10.72,0,0,1,.94,5.77c-.14,1-.33,2-.55,2.9l-.59,2.88c-.39,1.92-.78,3.84-1.27,5.75a30.93,30.93,0,0,1-1.92,5.58,16.83,16.83,0,0,1-3.39,4.85c-1.43,1.37-2.92,2.61-4.37,3.94s-2.88,2.65-4.29,4l.06-.18a20.91,20.91,0,0,0,1.75,6.48,9.51,9.51,0,0,0,1.88,2.76,5.62,5.62,0,0,0,2.92,1.57v.05A5.78,5.78,0,0,1,20,150.71a9.2,9.2,0,0,1-2-2.78,17.48,17.48,0,0,1-1.23-3.2,24,24,0,0,1-.71-3.37v-.1l.08-.08c2.78-2.78,5.77-5.34,8.67-7.94a16.5,16.5,0,0,0,3.36-4.69,31,31,0,0,0,1.95-5.5c.5-1.89.91-3.8,1.32-5.72l.62-2.87a29.17,29.17,0,0,0,.58-2.87,10.49,10.49,0,0,0-.84-5.69,10.07,10.07,0,0,0-3.89-4.26Z"/><path class="cls-1" d="M27.83,101.62s-13.54-8.94-19-6.5L3.42,97.55l5.44-5.67,19,2.43"/><path d="M25.69,109.6a19.73,19.73,0,0,0-4.84-2.52,16.45,16.45,0,0,0-5.31-1,15.26,15.26,0,0,0-2.7.19,16.52,16.52,0,0,0-2.58.74,18.86,18.86,0,0,0-4.75,2.61l0,0a14.29,14.29,0,0,1,4.61-3,12.41,12.41,0,0,1,2.68-.75,15.33,15.33,0,0,1,2.79-.11,16.86,16.86,0,0,1,5.39,1.19,19.79,19.79,0,0,1,4.78,2.71Z"/><path class="cls-6" d="M68.93,110.9s-4.25,5.08,2.73,8.46l3.61-.49,5.38-2.7.61-2.27-3.15-2.57-7.46-1.67Z"/><path class="cls-7" d="M21.36,114.84c.25.1.12.61.22.78a1.12,1.12,0,0,1,0,1.41,3,3,0,0,1-1.12,1.2,7.27,7.27,0,0,1-3.57,1.31,4.28,4.28,0,0,1-1.19-.17,4.22,4.22,0,0,1-1.6-.9,4.07,4.07,0,0,1-.94-1.24,4,4,0,0,1-.44-1.87,4.23,4.23,0,0,1,.2-1.28,4.1,4.1,0,0,1,1-1.67,4.19,4.19,0,0,1,5.91,0,4,4,0,0,1,1,1.54C20.91,114.27,21,114.69,21.36,114.84Z"/><path class="cls-1" d="M83.85,98.58s29.35,27.05,30.53,24.66S126,94.94,126,94.94L102.18,79.85Z"/><path class="cls-1" d="M5,80.16s-6.35,8.49-2.92,8.62S40.75,92,44.84,93.17,40.12,86,40.12,86Z"/><path class="cls-8" d="M6.38,21.2C-6.22,45.47,5.42,82,5.42,82s119.14,40.88,138,13.53,12.87-78.37,12.87-78.37"/><ellipse class="cls-9" cx="81.65" cy="18.85" rx="75.13" ry="18.6"/><path class="cls-10" d="M65.29,208.65l-14.65,6.54L38,214.13V228s-.76,5.24-1.48,11.9c6.75-.61,13.53-.93,20.34-1.07-1.39-3.68-3.43-9-4-10.43C51.85,226.24,65.29,208.65,65.29,208.65Z"/><path class="cls-11" d="M83.26,62.23c0,.09,8.7,6.33,8.7,6.33s0,.39,1.77.79,7.1,1,7.1,1,.74,1.66.2,2.12-4.2.42-4.2.42l-11.59-1.2L81.5,68.73l-.8-3.4Z"/><path class="cls-12" d="M27.69,40s-5.58-1.48-7.86,1.2S13.75,48.88,18,52.87s14.34,11,25.79,14.86c0,0,5.43,4.74,18.39,5.35S75.39,73,75.39,73s3.55,2.65,8.6-.39a3.1,3.1,0,0,0,2.8.66c1.94-.3,5.91.52,7.26.24a43.74,43.74,0,0,1,6,0s1.13-.75,1-1c0,0-2.85.3-3.21-.2s-.79-.76-6.13-.17c0,0-.2-.66-3.29-1.21,0,0-6.25-3-5.33-5.33s9.35-2.31,9.35-2.31a5.4,5.4,0,0,0,3.86-2.52,17.74,17.74,0,0,0,3.42-.1c1.62-.24,2.61-.37,2.61-.37s-.48-2.6-1.91-2.84-3.15,0-5.3,1.87c0,0-2.29,1.45-3.69.53s-2.25-2.92-3.85-.62c0,0-2-2.76-6.82,1.62,0,0-3.65-1.25-6.28.4,0,0-2.33-2.57-4.9-1.1l-4.18-1s-2.84-2-5.16-.26a5.24,5.24,0,0,0-4.47-.36s-2.92-.81-4.58.25c0,0-2.59-1.36-4.12-.69,0,0-3.49-1.5-5-.84,0,0-5.24-.86-5.44-.65,0,0-3.37-.89-3.77-.53,0,0-2.53-.71-3-.44l-6.73-5.11s-2.38-3.37-.26-6A26.44,26.44,0,0,1,27.69,40Z"/><path class="cls-13" d="M65.43,63.22S68.5,60.05,69.18,60"/><path class="cls-13" d="M61.73,62.35s2.5-3.69,3.42-3.38"/><path class="cls-13" d="M57.8,61.6s1.31-2.74,2.42-2.75"/><path class="cls-13" d="M52,61.2s2.59-3,3.42-2.78"/><path class="cls-13" d="M48.78,61s1.61-2.12,2.08-2.25"/><path class="cls-13" d="M44.68,59.56s1.77-1.55,2.37-1.51"/><path class="cls-13" d="M38.81,58.76s2-2,2.93-1.6"/><path class="cls-13" d="M35,57.87s.82-1.16,1.61-1.31"/><path class="cls-13" d="M31.31,57a2.84,2.84,0,0,1,1.52-1"/><path class="cls-13" d="M29.17,56.05a1.11,1.11,0,0,1,.65-.46"/><path class="cls-12" d="M40,62.6a11.41,11.41,0,0,0,2,2.94c1,.88,2.79,1.81,2.51,2.17s-1.59,2.2-1.59,2.2-1.71,2.24.37,3.18,4.14.79,4.7,1.54,1,1.19.7,2c-.21.64-.11.82-.11.82s1.06-.31,1.13-.94.68.75.93,1.26c.06.13.37.07.37.07a2.35,2.35,0,0,0,.17-1.95c-.39-1.05,2.12.62,2.12.62s.28,0,.11-.33A8.38,8.38,0,0,0,52,74.87s-.46-.75.4-.55a5.49,5.49,0,0,1,1.05.29s1,.63.39-.34-.61-1.92-1.6-2a15.49,15.49,0,0,1-2.55-.62.93.93,0,0,1,.48-1.37,4.43,4.43,0,0,0,1.67-1.49s.45-.87-.7-1.64a29.42,29.42,0,0,1-3.47-3.41"/><path class="cls-12" d="M66.8,68.55s1.68,1.66,1,2.14a2.24,2.24,0,0,1-2.29.74c-1.4-.24-3-1-3,1.78a3.28,3.28,0,0,0,2.18,3.33s3.6,1.28,3.8,2.27A6,6,0,0,1,68.77,80s.42.59.48,0l.15-1.5s2.28,3,2.36,2.76a7.35,7.35,0,0,0,.12-1.14l-.31-1.76,1.84,3.09s.28.56.27-.81-1-3.08-.57-3,3.52,1.48,3.82,1.48.63-.17.1-.93a6.64,6.64,0,0,0-4.21-2.46s-.83-1.41-1.68-1.7c0,0,3.61-.2,4.14-1.3s.42-3.11.49-3.83a10.35,10.35,0,0,1,.42-2"/><polygon class="cls-14" points="90.2 67.3 91.67 66.71 91.62 68.32 90.2 67.3"/><path class="cls-14" d="M93.23,69.22l-.54-1.89-1.07,1A3,3,0,0,0,93.23,69.22Z"/><polygon class="cls-14" points="95.17 69.6 94.56 67.81 93.23 69.22 95.17 69.6"/><polygon class="cls-14" points="97.53 69.93 96.42 68.32 95.17 69.6 97.53 69.93"/><polygon class="cls-14" points="99.78 70.2 98.49 68.85 97.53 69.93 99.78 70.2"/><polygon class="cls-14" points="100.63 68.94 100.83 70.32 99.78 70.2 100.63 68.94"/><polygon class="cls-14" points="92.75 63.16 92.33 64.71 90.61 63.27 92.75 63.16"/><polygon class="cls-14" points="88.72 63.42 90.44 64.96 91.38 63.24 88.72 63.42"/><polygon class="cls-14" points="94.47 62.5 94.47 63.99 92.75 63.16 94.47 62.5"/><polygon class="cls-14" points="95.49 61.73 95.84 63.07 94.47 62.5 95.49 61.73"/><polygon class="cls-14" points="95.69 61.53 96.96 61.88 96.93 60.73 96.28 60.7 95.69 61.53"/><polygon class="cls-14" points="98.47 60.72 97.98 61.68 96.93 60.73 98.47 60.72"/><polygon class="cls-14" points="100.25 60.52 99.81 61.87 98.47 60.72 100.25 60.52"/><polygon class="cls-14" points="101.55 61.78 102.31 60.23 100.25 60.52 101.55 61.78"/><polygon class="cls-15" points="101.03 72.44 100.83 70.32 101.16 71.45 101.03 72.44"/><polygon class="cls-14" points="99.01 72.52 99.69 71.06 101.03 72.44 99.01 72.52"/><path class="cls-14" d="M97.33,71.87l1-.81L99,72.52A2.54,2.54,0,0,1,97.33,71.87Z"/><polygon class="cls-14" points="95.08 71.77 96.25 70.7 97.33 71.87 95.08 71.77"/><polygon class="cls-14" points="93.14 71.92 94.38 70.37 95.08 71.77 93.14 71.92"/><polygon class="cls-14" points="91.31 71.73 92.59 70.69 93.14 71.92 91.69 72.07 91.31 71.73"/><polygon class="cls-14" points="89.39 71.06 91.45 70.36 91.31 71.73 89.39 71.06"/><polygon class="cls-14" points="87.49 70.39 89.07 69.51 89.62 71.12 88.4 70.86 87.49 70.39"/><polygon class="cls-14" points="86.36 69.83 87.64 68.96 87.49 70.39 86.36 69.83"/></g></g></svg>