<svg xmlns="http://www.w3.org/2000/svg" viewBox="0 0 93 124"><defs><style>.cls-1{isolation:isolate;}.cls-2{fill:#fff;}.cls-3,.cls-4{fill:#d4d8d8;}.cls-11,.cls-4,.cls-5,.cls-7{mix-blend-mode:multiply;}.cls-6,.cls-7,.cls-8{fill:#601200;}.cls-11,.cls-7{opacity:0.5;}.cls-8{opacity:0.6;mix-blend-mode:color-dodge;}.cls-9{fill:#f4c23c;}.cls-10{fill:#ed1b2f;}.cls-11{fill:#737575;}</style></defs><g class="cls-1"><g id="Calque_2" data-name="Calque 2"><g id="Layer_1" data-name="Layer 1"><rect class="cls-2" width="93" height="124"/><path class="cls-3" d="M8.1,91.25a.49.49,0,0,1-.22-.92,5.29,5.29,0,0,0,1-6.2,3.93,3.93,0,0,1-.25-3.31,6.1,6.1,0,0,1,3.26-2.95.5.5,0,0,1,.63.29.48.48,0,0,1-.28.62,5.21,5.21,0,0,0-2.71,2.4,3,3,0,0,0,.22,2.52A6.18,6.18,0,0,1,10,88.79a5.07,5.07,0,0,1-1.75,2.42A.39.39,0,0,1,8.1,91.25Z"/><path class="cls-4" d="M12.52,78.16a.5.5,0,0,0-.63-.29,8,8,0,0,0-1.7,1l.06.1c.31.61-.47,1.07-.71,1.52a4,4,0,0,0-.1,3.46,6.69,6.69,0,0,1,.62,2.81,5.77,5.77,0,0,1-1,2.88A10.84,10.84,0,0,1,7.67,91a.48.48,0,0,0,.43.28.39.39,0,0,0,.18,0A5.07,5.07,0,0,0,10,88.79a6.18,6.18,0,0,0-.28-5.09,3,3,0,0,1-.22-2.52,5.21,5.21,0,0,1,2.71-2.4A.48.48,0,0,0,12.52,78.16Z"/><g class="cls-5"><polygon class="cls-6" points="13.65 66.34 5.8 69.09 10.98 81.36 18.58 78.12 13.65 66.34"/><path class="cls-6" d="M65.75,40.9l-47.28,13S7.85,58.08,9.86,69.69c2.19,12.67,14.85,13,21.89,10.26l41-21.62S71.15,53,65.75,40.9Z"/><path class="cls-7" d="M31.68,68.48Q29,69.76,26.22,71a33.08,33.08,0,0,1-4,1.57c-2.62.8-5.75,1.31-8.28,0A8.14,8.14,0,0,1,10.13,66a13.71,13.71,0,0,1,0-3.07,14.58,14.58,0,0,0-.31,6.78c2.19,12.67,14.85,13,21.89,10.26l41-21.62s-.21-1.4-2.75-7.61C69.83,50.8,39,65.09,31.68,68.48Z"/><path class="cls-8" d="M10.82,66.68a13.4,13.4,0,0,1,8.57-12L64.18,42.41,20.5,58.18A21,21,0,0,0,10.82,66.68Z"/><path class="cls-6" d="M72.71,59.57a.88.88,0,0,1-.8-.57L65,40.7a.88.88,0,1,1,1.64-.62l6.91,18.3A.88.88,0,0,1,73,59.51,1,1,0,0,1,72.71,59.57Z"/><path class="cls-6" d="M66.45,40.6a.51.51,0,1,1-.51-.51A.51.51,0,0,1,66.45,40.6Z"/><path class="cls-6" d="M68.2,45.44a.51.51,0,1,1-1,0,.51.51,0,1,1,1,0Z"/><path class="cls-6" d="M69.68,49.39a.51.51,0,1,1-.51-.51A.51.51,0,0,1,69.68,49.39Z"/><path class="cls-6" d="M71.36,53.81a.51.51,0,1,1-.51-.51A.51.51,0,0,1,71.36,53.81Z"/><path class="cls-6" d="M73,58.3a.51.51,0,1,1-.51-.51A.51.51,0,0,1,73,58.3Z"/></g><path class="cls-2" d="M65.42,76.05a1.33,1.33,0,0,1,.31-.46,2.64,2.64,0,0,1-2.23-1.54c0,.08,0,.16,0,.25a1.85,1.85,0,0,1-.16,1.37c-.22.3-.7.31-1.2.23a.81.81,0,0,1,.3.46.77.77,0,0,1-.06.5,1.63,1.63,0,0,1,1.71,1.08,1.08,1.08,0,0,1,.48-.82.83.83,0,0,1,.9.1A1.53,1.53,0,0,1,65.42,76.05Z"/><path class="cls-9" d="M84.64,54.56c1-2.11,2.53-4.43,4.92-5.14a8.88,8.88,0,0,1,1.76-.3l-.1,0c-.9-.39-1.8-.79-2.69-1.21a13.62,13.62,0,0,1-2.81-1.46,4.5,4.5,0,0,1-2.08-1.84c-1.19-2.67,3-4.8,4.72-6,.46-.32.94-.63,1.42-.94l-.74.25c-1.72.58-3.46,1.29-5.22,1.7a2.36,2.36,0,0,1-2.43-.36c-.71-.75-.5-2.32-.23-3.2A13.31,13.31,0,0,1,82,34c-.22.34-.39.59-.48.72-.76,1.06-1.54,2.12-2.36,3.14-.3.37-.69.92-1.19,1.06-1.41.4-2.83-.66-3.84-1.53S72,35.6,70.91,34.71c.11.13.24.26.35.4,1.21,1.44,3,3.57,2.69,5.63-.34,2.26-2.09,3.68-4.23,4.66a7.34,7.34,0,0,1,4.08.78c2.38,1.37,1.39,4.51.42,6.47-.26.53-.55,1-.85,1.55,2.46-2.84,5.76-5.72,8.93-3.77,1.62,1,2,3,2,4.87C84.41,55.05,84.52,54.8,84.64,54.56Z"/><path class="cls-10" d="M88.36,38.61l.6-.4c-2,.68-4.35,1.42-5.59,3.18S82.19,45,84,46.24a13.62,13.62,0,0,0,5,1.86l-.5-.23a13.62,13.62,0,0,1-2.81-1.46,4.5,4.5,0,0,1-2.08-1.84C82.45,41.9,86.66,39.77,88.36,38.61Z"/><path class="cls-10" d="M84.55,53.7c0,.33-.06.66-.11,1a.22.22,0,0,1,0,.12c0,.13,0,.26,0,.39.09-.22.19-.43.29-.64,1-2.11,2.53-4.43,4.92-5.14l.49-.11c-2-.26-4,.27-4.9,2.31A9.51,9.51,0,0,0,84.55,53.7Z"/><path class="cls-10" d="M75.17,51.22c.23-.28.47-.55.72-.8a4,4,0,0,0,.89-1.86c.27-1.74-1.13-2.76-2.71-3A11.54,11.54,0,0,0,72,45.53a5.83,5.83,0,0,1,1.85.65c2,1.18,1.6,3.66.82,5.57C74.81,51.58,75,51.41,75.17,51.22Z"/><path class="cls-10" d="M71.26,44.55c.47-.16.94-.32,1.4-.52,2.17-1,2.86-2.88,1.57-5a27.34,27.34,0,0,0-2.16-3c1.05,1.34,2.12,3,1.88,4.64A5.48,5.48,0,0,1,71.26,44.55Z"/><path class="cls-10" d="M78.73,39.06a6.34,6.34,0,0,0,1.07-2l-.63.82c-.3.37-.69.92-1.19,1.06-1.41.4-2.83-.66-3.84-1.53l-.31-.26C75.32,38.91,77.37,40.61,78.73,39.06Z"/><path class="cls-10" d="M80.58,40.28c.61.79,2,.15,3.31-.68l-.07,0a2.36,2.36,0,0,1-2.43-.36A3,3,0,0,1,81,36.81C80.45,37.87,79.87,39.36,80.58,40.28Z"/><path class="cls-10" d="M82.06,49.34a4.81,4.81,0,0,0-5,.75A11.2,11.2,0,0,0,75,52.51c2.2-2.12,4.81-3.64,7.33-2.08A4,4,0,0,1,84,52.9C84,51.42,83.54,49.91,82.06,49.34Z"/><path class="cls-11" d="M33.5,60.48A15.53,15.53,0,0,0,18,76a15.28,15.28,0,0,0,.76,4.81,10,10,0,0,0,3.22.56,24.24,24.24,0,0,0,2.56-.09,10.5,10.5,0,0,1-1.4-4.41h6.82a3.81,3.81,0,0,0,.43,1l-3,3c1-.17,2.09-.38,3.11-.64l1.14-1.14a3.25,3.25,0,0,0,.56.28c.53-.24,1.09-.44,1.64-.63l.7-.26c.85-.42,1.67-.9,2.49-1.38,0-.09,0-.18.08-.28h.38c1-.6,2-1.2,3.07-1.74H37.07a3.62,3.62,0,0,0-.43-1l4.82-4.83a10.41,10.41,0,0,1,2.22,4.5c1.55-.81,3.12-1.59,4.63-2.46A15.53,15.53,0,0,0,33.5,60.48ZM29.93,75.14H23.11a10.45,10.45,0,0,1,2.43-5.86l4.82,4.82A3.81,3.81,0,0,0,29.93,75.14Zm2.7-2.7a3.93,3.93,0,0,0-1,.43l-4.83-4.82a10.45,10.45,0,0,1,5.86-2.43Zm2.78.43a4.15,4.15,0,0,0-1-.43V65.62a10.42,10.42,0,0,1,5.86,2.43Z"/><g class="cls-5"><path class="cls-6" d="M32,62.36A14.15,14.15,0,1,0,46.1,76.5,14.14,14.14,0,0,0,32,62.36Zm0,24.57A10.43,10.43,0,1,1,42.38,76.5,10.42,10.42,0,0,1,32,86.93Z"/><path class="cls-6" d="M32,90.65a.87.87,0,0,1-.87-.87V63.23a.87.87,0,0,1,1.74,0V89.78A.87.87,0,0,1,32,90.65Z"/><path class="cls-6" d="M45.22,77.38H18.68a.88.88,0,0,1,0-1.75H45.22a.88.88,0,1,1,0,1.75Z"/><path class="cls-6" d="M22.57,86.76a.86.86,0,0,1-.62-.25.88.88,0,0,1,0-1.24L40.72,66.5a.87.87,0,0,1,1.23,0,.88.88,0,0,1,0,1.24L23.18,86.51A.85.85,0,0,1,22.57,86.76Z"/><path class="cls-6" d="M41.34,86.76a.86.86,0,0,1-.62-.25L22,67.74a.88.88,0,0,1,0-1.24.87.87,0,0,1,1.23,0L42,85.27a.88.88,0,0,1,0,1.24A.85.85,0,0,1,41.34,86.76Z"/><path class="cls-6" d="M35.62,76.5A3.67,3.67,0,1,1,32,72.83,3.67,3.67,0,0,1,35.62,76.5Z"/><path class="cls-6" d="M32,61A15.54,15.54,0,1,0,47.49,76.5,15.53,15.53,0,0,0,32,61Zm0,27A11.45,11.45,0,1,1,43.4,76.5,11.45,11.45,0,0,1,32,88Z"/></g></g></g></g></svg>