<svg id="kingdom" xmlns="http://www.w3.org/2000/svg" xmlns:xlink="http://www.w3.org/1999/xlink" viewBox="0 0 604 606.100000" shape-rendering="geometricPrecision" text-rendering="geometricPrecision"><style><![CDATA[#kingdom-king {animation: kingdom-king_c_o 3000ms linear 1 normal forwards}@keyframes kingdom-king_c_o { 0% {opacity: 0;animation-timing-function: cubic-bezier(0.250000,1,0.250000,1)} 16.666667% {opacity: 1} 100% {opacity: 1} }#kingdom-amazone_to {animation: kingdom-amazone_to__to 3000ms linear 1 normal forwards}@keyframes kingdom-amazone_to__to { 0% {transform: translate(767.713032px,296.021758px);animation-timing-function: cubic-bezier(0.420000,0,0.580000,1)} 100% {transform: translate(477.040000px,311.799999px)} }#kingdom-amazone2_to {animation: kingdom-amazone2_to__to 3000ms linear 1 normal forwards}@keyframes kingdom-amazone2_to__to { 0% {transform: translate(-248.024695px,299.776733px);animation-timing-function: cubic-bezier(0.420000,0,0.580000,1)} 100% {transform: translate(111.500000px,304.374974px)} }]]></style><g id="kingdom-g1" style="isolation:isolate"><g id="kingdom-calque-2"><g id="kingdom-section5"><g id="kingdom-throne"><ellipse id="kingdom-ellipse1" rx="111.500000" ry="23.500000" transform="matrix(1 0 0 1 283.50000000000000 352.60000000000002)" opacity="0.05" fill="rgb(140,140,140)" stroke="none" stroke-width="1"/><path id="kingdom-path1" d="M232.630000,311C232.630000,311,244.630000,324.800000,243.380000,338.240000C242.130000,351.680000,243.380000,346.160000,243.380000,346.160000L250.900000,346.160000C250.900000,346.160000,255.900000,325.320000,255.020000,318.160000C254.140000,311,232.630000,311,232.630000,311Z" fill="rgb(255,157,0)" stroke="none" stroke-width="1"/><path id="kingdom-path2" d="M232.630000,311C232.630000,311,244.480000,324.790000,243.380000,338.240000C242.890000,344.240000,243.380000,346.160000,243.380000,346.160000L250.900000,346.160000C250.900000,346.160000,255.900000,325.320000,255.020000,318.160000C254.140000,311,232.630000,311,232.630000,311Z" fill="rgb(147,70,12)" stroke="none" stroke-width="1"/><path id="kingdom-path3" d="M331.200000,310.350000C331.200000,310.350000,320.250000,324.250000,320.780000,337.740000C320.968080,340.379116,321.001470,343.026981,320.880000,345.670000L313.360000,345.770000C313.360000,345.770000,308.060000,325,308.900000,317.820000C309.740000,310.640000,331.200000,310.350000,331.200000,310.350000Z" fill="rgb(147,70,12)" stroke="none" stroke-width="1"/><path id="kingdom-path4" d="M218.420000,222.920000C218.420000,219.730000,218.720000,130.730000,216.350000,115.420000C213.980000,100.110000,200.660000,89.580000,205.690000,80C210.720000,70.420000,218.430000,74.260000,218.430000,74.260000C219.785664,71.569598,222.517932,69.849424,225.530000,69.790000C230.530000,69.790000,232.040000,77.450000,236.180000,77.450000C240.320000,77.450000,250.390000,65.650000,255.130000,65.650000C259.870000,65.650000,262.530000,70.430000,262.530000,70.430000C262.530000,70.430000,259.270000,62.770000,265.530000,61.020000C271.790000,59.270000,273.530000,61.020000,273.530000,61.020000C273.530000,61.020000,272.790000,55.120000,278.120000,53.680000C283.450000,52.240000,287.600000,54.320000,287.600000,58.950000L287.600000,61.660000C287.600000,61.660000,286.360000,59,290.360000,59C293.435679,58.855357,296.417094,60.082352,298.500000,62.350000C300.200000,64.180000,298.500000,69.840000,298.500000,69.840000C298.500000,69.840000,298.800000,66.840000,302.790000,65.700000C306.780000,64.560000,321.890000,75.580000,326.470000,77.020000C331.050000,78.460000,337.720000,69.840000,342.310000,69.840000C346.900000,69.840000,347.490000,73.190000,347.490000,73.190000C347.490000,73.190000,352.900000,72.950000,356.080000,76.380000C359.260000,79.810000,355.780000,94.320000,347.790000,102.940000C339.800000,111.560000,340.680000,235.720000,340.680000,235.720000L219.460000,232.370000Z" fill="rgb(255,182,0)" stroke="none" stroke-width="1"/><path id="kingdom-path5" d="M235.890000,82.240000L232.630000,258.320000L331.140000,258.320000L326.390000,82.400000C326.390000,82.400000,272,62.470000,235.890000,82.240000Z" fill="rgb(181,2,2)" stroke="none" stroke-width="1"/><path id="kingdom-path6" d="M212.200000,77.270000C212.200000,77.270000,208.060000,80.200000,212.200000,93.040000C216.340000,105.880000,222.270000,114.610000,222.270000,143.820000C222.270000,173.030000,222.870000,258.320000,222.870000,258.320000L232.630000,258.320000L235.890000,82.240000C235.890000,82.240000,220.120000,74.150000,212.200000,77.270000Z" fill="rgb(198,5,0)" stroke="none" stroke-width="1"/><path id="kingdom-path7" d="M350.090000,77.490000C350.090000,77.490000,354.220000,80.380000,350.090000,92.940000C345.960000,105.500000,339.960000,114.040000,339.880000,142.650000C339.800000,171.260000,338.960000,258.250000,338.960000,258.250000L329.960000,258.320000L326.390000,82.400000C326.390000,82.400000,342.180000,74.410000,350.090000,77.490000Z" fill="rgb(198,5,0)" stroke="none" stroke-width="1"/><path id="kingdom-path8" d="M211.910000,304.580000L232.630000,258.320000C232.630000,258.320000,235.900000,219.890000,222.680000,208.160000C208.190000,195.310000,180.030000,195.300000,176.170000,222.660000L202.170000,224.190000L202.910000,282.570000Z" fill="rgb(239,115,3)" stroke="none" stroke-width="1"/><path id="kingdom-path9" d="M351.190000,305.850000L329.940000,259.200000C329.940000,259.200000,328.530000,220.730000,341.940000,209.250000C360.250000,193.560000,385.770000,200.810000,384.250000,225.470000L362.250000,225.660000Z" fill="rgb(239,115,3)" stroke="none" stroke-width="1"/><path id="kingdom-path10" d="M233,256.850000C233,256.850000,217.270000,274.300000,213,279.940000C208.730000,285.580000,214.660000,298.750000,214.660000,298.750000C214.660000,298.750000,234.100000,298.090000,279.390000,299.480000C321.390000,300.770000,347.670000,298.170000,347.670000,298.170000C347.670000,298.170000,346.880000,285.680000,345.770000,280.410000C344.660000,275.140000,329.880000,256.850000,329.880000,256.850000Z" fill="rgb(198,5,0)" stroke="none" stroke-width="1"/><path id="kingdom-path11" d="M204.560000,275.550000L207.510000,275.550000C207.510000,275.550000,208.950000,289.270000,230.260000,293.730000C251.570000,298.190000,341.340000,292.420000,344.520000,291.200000C347.700000,289.980000,355.280000,282.140000,355.280000,276.130000L363.180000,280.650000L354.890000,307.130000L210.360000,308.130000Z" fill="rgb(181,2,2)" stroke="none" stroke-width="1"/><path id="kingdom-path12" d="M197.110000,228.660000C194.713091,233.476804,189.386591,236.090886,184.110000,235.040000C174.640000,233.440000,173.110000,217.690000,182.040000,214.240000C203.440000,205.930000,212.710000,239.020000,208.680000,258.010000C206.310000,269.170000,206.020000,296.600000,219.930000,302.660000C233.840000,308.720000,338.640000,306.490000,343.930000,304.580000C349.220000,302.670000,356.930000,287.350000,355.770000,279.380000C344.310000,202.120000,371.900000,207.750000,380.340000,216.860000C387.900000,225,383,234.720000,378,237C373,239.280000,365.270000,236.680000,365.270000,230C361.210849,243.247988,362.484622,257.557303,368.820000,269.880000C379.480000,290.610000,362.010000,308.160000,362.010000,308.160000C362.010000,308.160000,371.780000,315.810000,370.010000,321.870000C368.240000,327.930000,360.540000,352.810000,364.680000,360.150000L357.880000,360.150000C353.498734,352.008805,351.161667,342.924790,351.070000,333.680000C351.070000,318.680000,348.400000,313.580000,341.890000,311.030000C335.380000,308.480000,301.890000,320.920000,278.830000,320.920000C255.770000,320.920000,220.960000,308.920000,216.960000,313.260000C212.960000,317.600000,213.110000,319.960000,214.300000,332.400000C215.490000,344.840000,205.410000,360.150000,205.410000,360.150000L198.610000,360.150000C198.610000,360.150000,200.680000,356.960000,199.490000,342.930000C198.300000,328.900000,192.390000,327.300000,193.570000,318.040000C194.750000,308.780000,201.860000,306.880000,201.860000,306.880000C201.860000,306.880000,186.470000,291.570000,194.760000,266.050000C203.050000,240.530000,197.110000,228.660000,197.110000,228.660000Z" fill="rgb(165,85,14)" stroke="none" stroke-width="1"/><path id="kingdom-path13" d="M357.850000,360.080000C344.510000,336.550000,356.680000,317.200000,341.530000,311.570000C338.240000,310.570000,327.530000,313.230000,322.940000,314.310000C268.120000,327.110000,274.870000,321.400000,226.060000,313.450000C218.400000,312.340000,217.480000,313.620000,217.370000,313.640000C217.260000,313.660000,216.550000,314.560000,216.630000,314.460000C208.930000,323.360000,222.690000,333.680000,205.390000,360.080000C207.935463,355.843666,210.046192,351.360880,211.690000,346.700000C215.200000,336.240000,213.690000,332.790000,213.130000,324.620000C212.770000,317.530000,213.620000,316.240000,216.530000,312.720000C216.770000,312.650000,217.230000,311.300000,222.710000,311.630000C235.010000,312.320000,262.260000,320.630000,281.420000,319.830000C290.650000,319.470000,299.830000,317.720000,308.940000,315.780000C336.810000,309.780000,340.700000,307.500000,346.650000,313.210000C350.830000,317.110000,351.370000,325.270000,351.450000,331.260000C351.079449,341.256282,353.283220,351.180141,357.850000,360.080000Z" fill="rgb(127,62,4)" stroke="none" stroke-width="1"/><path id="kingdom-path14" d="M271.570000,79.740000C257.220000,80.130000,245.570000,92.370000,244.740000,107.810000C242.810000,143.230000,240.130000,214.160000,249.210000,219.410000C261.350000,226.410000,258.610000,123.410000,281.880000,114.780000C305.150000,106.150000,322.260000,108.010000,308.710000,91.490000C301.480000,82.680000,285.610000,79.360000,271.570000,79.740000Z" opacity="0.58" fill="rgb(255,184,113)" stroke="none" stroke-width="1"/><path id="kingdom-path15" d="M289.490000,58.190000C289.490000,61.740000,285.750000,64.630000,281.130000,64.630000C276.510000,64.630000,272.760000,61.740000,272.760000,58.190000C272.760000,54.640000,276.510000,51.750000,281.130000,51.750000C285.750000,51.750000,289.490000,54.630000,289.490000,58.190000Z" fill="rgb(255,212,0)" stroke="none" stroke-width="1"/><path id="kingdom-path16" d="M210.360000,354.670000L210.360000,362.550000L194,362.550000L194,354.670000C193.956704,353.649669,194.321632,352.654120,195.014091,351.903486C195.706550,351.152853,196.669495,350.708974,197.690000,350.670000L206.820000,350.670000C208.885960,350.829819,210.452511,352.599934,210.360000,354.670000Z" fill="rgb(132,63,11)" stroke="none" stroke-width="1"/><path id="kingdom-path17" d="M207.630000,352.900000L207.630000,362.550000L197.800000,362.550000L197.800000,352.900000C197.792562,352.092406,198.080646,351.309957,198.610000,350.700000L206.820000,350.700000C207.346161,351.311839,207.633786,352.093044,207.630000,352.900000Z" fill="rgb(127,62,4)" stroke="none" stroke-width="1"/><path id="kingdom-path18" d="M200,349.700000L202.810000,349.700000C204.168620,349.700000,205.270000,350.801380,205.270000,352.160000L205.270000,362.560000L197.550000,362.560000L197.550000,352.160000C197.549989,350.805275,198.645286,349.705507,200,349.700000Z" fill="rgb(160,80,21)" stroke="none" stroke-width="1"/><path id="kingdom-path19" d="M368.270000,354.670000L368.270000,362.550000L351.910000,362.550000L351.910000,354.670000C351.866704,353.649669,352.231632,352.654120,352.924091,351.903486C353.616550,351.152853,354.579495,350.708974,355.600000,350.670000L364.730000,350.670000C366.795960,350.829819,368.362511,352.599934,368.270000,354.670000Z" fill="rgb(127,62,4)" stroke="none" stroke-width="1"/><path id="kingdom-path20" d="M365.540000,352.900000L365.540000,362.550000L355.710000,362.550000L355.710000,352.900000C355.702562,352.092406,355.990646,351.309957,356.520000,350.700000L364.730000,350.700000C365.256161,351.311839,365.543786,352.093044,365.540000,352.900000Z" fill="rgb(127,62,4)" stroke="none" stroke-width="1"/><path id="kingdom-path21" d="M357.940000,349.700000L360.760000,349.700000C362.118620,349.700000,363.220000,350.801380,363.220000,352.160000L363.220000,362.550000L355.470000,362.550000L355.470000,352.160000C355.469995,351.505831,355.730545,350.878600,356.194049,350.416972C356.657554,349.955344,357.285837,349.697341,357.940000,349.700000Z" fill="rgb(160,80,21)" stroke="none" stroke-width="1"/><path id="kingdom-path22" d="M326.750000,341L326.750000,348.870000L310.390000,348.870000L310.390000,341C310.346704,339.979669,310.711632,338.984120,311.404091,338.233486C312.096550,337.482853,313.059495,337.038974,314.080000,337L323.210000,337C325.278479,337.154750,326.847850,338.928050,326.750000,341Z" fill="rgb(127,62,4)" stroke="none" stroke-width="1"/><path id="kingdom-path23" d="M324,339.180000L324,348.820000L314.170000,348.820000L314.170000,339.180000C314.170197,338.376179,314.465556,337.600415,315,337L323.210000,337C323.723670,337.609904,324.003688,338.382613,324,339.180000Z" fill="rgb(127,62,4)" stroke="none" stroke-width="1"/><path id="kingdom-path24" d="M316.090000,336L319.180000,336C320.571758,336,321.700000,337.128242,321.700000,338.520000L321.700000,348.850000L313.570000,348.850000L313.570000,338.490000C313.586430,337.109972,314.709874,335.999902,316.090000,336Z" fill="rgb(160,80,21)" stroke="none" stroke-width="1"/><path id="kingdom-path25" d="M255.940000,340.450000L255.940000,348.320000L239.590000,348.320000L239.590000,340.450000C239.505365,338.330595,241.150900,336.541970,243.270000,336.450000L252.270000,336.450000C252.316161,336.440288,252.363839,336.440288,252.410000,336.450000C254.474494,336.609869,256.038091,338.381650,255.940000,340.450000Z" fill="rgb(127,62,4)" stroke="none" stroke-width="1"/><path id="kingdom-path26" d="M253.210000,338.680000L253.210000,348.320000L243.380000,348.320000L243.380000,338.680000C243.371041,337.869132,243.659162,337.083023,244.190000,336.470000L252.260000,336.470000C252.306161,336.460288,252.353839,336.460288,252.400000,336.470000C252.931652,337.082544,253.219890,337.868973,253.210000,338.680000Z" fill="rgb(127,62,4)" stroke="none" stroke-width="1"/><path id="kingdom-path27" d="M245,335.470000L248.350000,335.470000C249.774895,335.470000,250.930000,336.625105,250.930000,338.050000L250.930000,348.320000L242.410000,348.320000L242.410000,338.050000C242.409995,337.364005,242.683188,336.706252,243.169197,336.222120C243.655205,335.737988,244.314010,335.467341,245,335.470000Z" fill="rgb(160,80,21)" stroke="none" stroke-width="1"/><path id="kingdom-path28" d="M191.480000,225.240000C191.631771,227.638932,190.303149,229.887265,188.128534,230.911451C185.953919,231.935636,183.374379,231.527942,181.621611,229.883037C179.868844,228.238132,179.298355,225.689646,180.182546,223.454447C181.066738,221.219248,183.226272,219.750694,185.630000,219.750000C188.759949,219.654574,191.376707,222.110301,191.480000,225.240000Z" fill="rgb(255,212,0)" stroke="none" stroke-width="1"/><path id="kingdom-path29" d="M380,225.240000C380.151771,227.638932,378.823149,229.887265,376.648534,230.911451C374.473919,231.935636,371.894379,231.527942,370.141611,229.883037C368.388844,228.238132,367.818355,225.689646,368.702546,223.454447C369.586738,221.219248,371.746272,219.750694,374.150000,219.750000C377.279949,219.654574,379.896707,222.110301,380,225.240000Z" fill="rgb(255,212,0)" stroke="none" stroke-width="1"/></g><g id="kingdom-king" opacity="0"><rect id="kingdom-rect1" width="95.990000" height="76.550000" rx="0" ry="0" transform="matrix(1 0 0 1 235.75000000000000 168.81999999999999)" fill="rgb(45,30,34)" stroke="none" stroke-width="1"/><rect id="kingdom-rect2" width="95.990000" height="76.550000" rx="0" ry="0" transform="matrix(1 0 0 1 235.75000000000000 168.81999999999999)" opacity="0.8" fill="none" stroke="none" stroke-width="1"/><path id="kingdom-path30" d="M203.170000,188.520000C214.630000,158.190000,225.350000,124.740000,247.900000,113.520000C270.450000,102.300000,315.570000,105.220000,325.630000,112.080000C335.690000,118.940000,367.270000,167.690000,366.230000,185.080000C365.190000,202.470000,285,177.630000,285,177.630000Z" fill="rgb(81,59,62)" stroke="none" stroke-width="1"/><path id="kingdom-path31" d="M203.170000,188.520000C214.630000,158.190000,225.350000,124.740000,247.900000,113.520000C270.450000,102.300000,315.570000,105.220000,325.630000,112.080000C335.690000,118.940000,367.270000,167.690000,366.230000,185.080000C365.190000,202.470000,285,177.630000,285,177.630000Z" opacity="0.8" fill="none" stroke="none" stroke-width="1"/><path id="kingdom-path32" d="M203.180000,188.490000L203.180000,188.490000L286.180000,180.340000C286.180000,180.340000,365.180000,202.340000,366.240000,185.020000C366.390000,182.520000,364.460000,182.170000,363.410000,178.590000C346.410000,170.770000,319.570000,162.830000,287.660000,162.830000C245.670000,162.860000,215.350000,176.270000,203.180000,188.490000Z" fill="rgb(66,45,49)" stroke="none" stroke-width="1"/><path id="kingdom-path33" d="M203.180000,188.490000L203.180000,188.490000L286.180000,180.340000C286.180000,180.340000,365.180000,202.340000,366.240000,185.020000C366.390000,182.520000,364.460000,182.170000,363.410000,178.590000C346.410000,170.770000,319.570000,162.830000,287.660000,162.830000C245.670000,162.860000,215.350000,176.270000,203.180000,188.490000Z" opacity="0.5" fill="none" stroke="none" stroke-width="1"/><path id="kingdom-path34" d="M309.140000,107.340000C301.340000,105.510000,290.830000,105.100000,280.780000,105.690000C271.350000,106.240000,261.950000,107.580000,254.130000,110.990000L287,172.230000Z" fill="rgb(183,78,6)" stroke="none" stroke-width="1"/><polygon id="kingdom-polygon1" points="316.950000,222.610000 253.970000,227.750000 243.740000,267.750000 316.950000,267.750000 316.950000,222.610000" fill="rgb(66,45,49)" stroke="none" stroke-width="1"/><path id="kingdom-path35" d="M228.460000,250.860000C227.100000,260.410000,266.540000,356.590000,266.540000,356.590000L268.750000,356.590000L288.880000,225.060000C254.340000,222.680000,229.820000,241.310000,228.460000,250.860000Z" fill="rgb(183,78,6)" stroke="none" stroke-width="1"/><path id="kingdom-path36" d="M232.640000,243.500000C253.130000,235.880000,269.490000,250.900000,272.070000,267.970000C274.760000,285.780000,262.860000,305.720000,244.630000,299.250000C255.850000,327.170000,268.630000,356.590000,268.630000,356.590000L271,356.590000L294.900000,223.120000C266.350000,221.260000,241.730000,234.080000,232.640000,243.500000Z" fill="rgb(183,78,6)" stroke="none" stroke-width="1"/><path id="kingdom-path37" d="M338.540000,251.630000C340.160000,261.110000,303.250000,356.630000,303.250000,356.630000L301,356.630000L277.450000,226C311.920000,223.650000,336.930000,242.150000,338.540000,251.630000Z" fill="rgb(183,78,6)" stroke="none" stroke-width="1"/><path id="kingdom-path38" d="M331.550000,241.830000C320.550000,233.170000,295.450000,223.830000,268.400000,225.520000L297.820000,356.590000L300.260000,356.590000C300.260000,356.590000,313.260000,326.210000,324.260000,298.020000C297.040000,314.100000,289.260000,281.690000,297.850000,259.570000C303.160000,245.830000,316.670000,240.410000,331.550000,241.830000Z" fill="rgb(183,78,6)" stroke="none" stroke-width="1"/><polygon id="kingdom-polygon2" points="260.130000,109.570000 264.560000,83.570000 297.870000,64.820000 303.340000,107.590000 282.770000,117.690000 260.130000,109.570000" fill="rgb(183,78,6)" stroke="none" stroke-width="1"/><path id="kingdom-path39" d="M253.280000,368.330000L268.590000,368.330000L274.820000,354.860000C274.820000,354.860000,271.160000,347.010000,267.390000,350.750000C263.620000,354.490000,262.720000,362.220000,262.720000,362.220000Z" fill="rgb(183,78,6)" stroke="none" stroke-width="1"/><path id="kingdom-path40" d="M316.630000,368.330000L300.710000,368.330000L294.230000,354.860000C294.230000,354.860000,298,347,302,350.750000C306,354.500000,308.200000,364.110000,308.200000,364.110000Z" fill="rgb(183,78,6)" stroke="none" stroke-width="1"/><polygon id="kingdom-polygon3" points="285.460000,218.810000 279.480000,218.810000 276.360000,232.900000 288.590000,232.900000 285.460000,218.810000" fill="rgb(211,127,127)" stroke="none" stroke-width="1"/><path id="kingdom-path41" style="mix-blend-mode:multiply" d="M282.120000,125.620000C300.270000,124.940000,315.450000,118.340000,320.540000,109.820000C316.817181,108.671634,313.003437,107.841977,309.140000,107.340000C308.200000,107.120000,307.210000,106.920000,306.190000,106.740000L306.450000,106.590000L304.380000,106.590000L302.740000,102.810000L297.870000,64.810000L264.560000,83.570000L260.870000,105.220000L260.870000,106.640000L257.870000,109.430000L258.060000,109.520000C256.730000,109.970000,255.420000,110.440000,254.160000,110.990000C252.029683,111.702522,249.948527,112.554360,247.930000,113.540000C246.880000,114.060000,245.860000,114.660000,244.840000,115.260000C251.690000,122,265.880000,126.240000,282.120000,125.620000Z" opacity="0.6" fill="rgb(132,49,49)" stroke="none" stroke-width="1"/><path id="kingdom-path42" d="M258.740000,32.210000C249.340000,51.750000,257.050000,92.940000,257.050000,97.210000C257.050000,99.100000,270.500000,106.580000,274.110000,106.030000C277.720000,105.480000,286.040000,100.210000,289.230000,97.210000C292.420000,94.210000,300.530000,68.340000,300.760000,64C300.990000,59.660000,312.110000,32.830000,289.150000,25.360000C286.060000,24.330000,261.490000,26.490000,258.740000,32.210000Z" fill="rgb(183,78,6)" stroke="none" stroke-width="1"/><path id="kingdom-path43" d="M294.910000,76.350000C299.040000,70.540000,301.910000,67.090000,300.540000,61.460000C299.170000,55.830000,293.820000,56.920000,292.450000,62.550000C291.080000,68.180000,294.910000,76.350000,294.910000,76.350000Z" fill="rgb(183,78,6)" stroke="none" stroke-width="1"/><path id="kingdom-path44" d="M295.610000,72.640000C298.090000,69.140000,299.840000,67.070000,298.990000,63.640000C298.140000,60.210000,294.990000,60.910000,294.130000,64.290000C293.270000,67.670000,295.610000,72.640000,295.610000,72.640000Z" fill="rgb(79,34,3)" stroke="none" stroke-width="1"/><path id="kingdom-path45" d="M295.390000,73.090000C297.170000,70.590000,298.390000,69.090000,297.810000,66.680000C297.230000,64.270000,294.930000,64.680000,294.340000,67.150000C293.750000,69.620000,295.390000,73.090000,295.390000,73.090000Z" fill="rgb(183,78,6)" stroke="none" stroke-width="1"/><path id="kingdom-path46" d="M258,41C263.880000,44.420000,282.410000,40.580000,284.130000,40.190000C285.850000,39.800000,262.490000,39.290000,258,41Z" fill="rgb(79,34,3)" stroke="none" stroke-width="1"/><path id="kingdom-path47" d="M260.170000,34.880000C264.940000,37.650000,279.950000,34.530000,281.350000,34.220000C282.750000,33.910000,263.840000,33.520000,260.170000,34.880000Z" fill="rgb(79,34,3)" stroke="none" stroke-width="1"/><path id="kingdom-path48" d="M267.450000,58.240000C267.790000,57.520000,268.120000,57.420000,268.450000,57.800000C265.200000,65.040000,264.450000,83.230000,264.680000,84.090000C264.860000,84.780000,270.240000,84.090000,272.430000,83.720000C272.530000,84.840000,272.580000,85.510000,272.580000,85.510000C272.580000,85.510000,263.680000,86.950000,263.440000,86.040000C263.200000,85.130000,264,65.790000,267.450000,58.240000Z" fill="rgb(79,34,3)" stroke="none" stroke-width="1"/><path id="kingdom-path49" d="M259.470000,87.380000L259.600000,89.170000C259.720000,89.170000,271.530000,90.170000,281.860000,88.340000L281.740000,87.420000C278.360000,87.680000,274.800000,88.770000,271.500000,88.760000C267.452246,88.730582,263.419270,88.267947,259.470000,87.380000Z" fill="rgb(79,34,3)" stroke="none" stroke-width="1"/><path id="kingdom-path50" d="M275.400000,63.470000C275.220000,60.920000,276.270000,58.690000,277.750000,58.470000C279.230000,58.250000,280.590000,60.180000,280.750000,62.730000C280.910000,65.280000,279.880000,67.510000,278.400000,67.730000C276.920000,67.950000,275.590000,66,275.400000,63.470000Z" fill="rgb(0,0,0)" stroke="none" stroke-width="1"/><path id="kingdom-path51" d="M257,62.570000C256.810000,60.010000,257.860000,57.790000,259.350000,57.570000C260.840000,57.350000,262.180000,59.280000,262.350000,61.830000C262.520000,64.380000,261.490000,66.610000,260,66.830000C258.510000,67.050000,257.210000,65.120000,257,62.570000Z" fill="rgb(0,0,0)" stroke="none" stroke-width="1"/><path id="kingdom-path52" d="M270.210000,51.740000C270.197864,53.004445,270.902944,54.166665,272.030000,54.740000C276.880000,56.740000,284.380000,60.320000,285.030000,58.900000C285.900000,56.960000,285.490000,52.680000,284.420000,51.300000C283.920000,50.650000,278.090000,49.480000,271.800000,48.660000C271.362810,48.603345,270.927514,48.777464,270.650000,49.120000C270.327775,49.517050,270.163915,50.019316,270.190000,50.530000Z" fill="rgb(79,34,3)" stroke="none" stroke-width="1"/><path id="kingdom-path53" d="M255.930000,56.140000C256.670000,56.880000,261.620000,55.080000,265.130000,54.070000C265.734119,53.830383,266.102865,53.215807,266.030000,52.570000L266,50.140000C265.992805,49.586215,265.806908,49.049570,265.470000,48.610000C265.189920,48.212638,264.753119,47.954198,264.270000,47.900000C259.940000,47.620000,256.450000,47.720000,255.760000,48.570000C255.070000,49.420000,254.910000,55.120000,255.930000,56.140000Z" fill="rgb(79,34,3)" stroke="none" stroke-width="1"/><path id="kingdom-path54" d="M267.880000,92.260000C268.459473,91.270141,269.503855,90.644266,270.650000,90.600000C271.758281,90.519500,272.820279,91.058195,273.410000,92C273.410000,92.340000,272.170000,91.730000,270.640000,91.790000C269.110000,91.850000,267.880000,92.600000,267.880000,92.260000Z" fill="rgb(79,34,3)" stroke="none" stroke-width="1"/><path id="kingdom-path55" d="M341.460000,247.200000C341.460000,203.570000,226.630000,206,226.630000,249.630000L243.630000,337.720000L333.550000,339.720000Z" fill="rgb(66,45,49)" stroke="none" stroke-width="1"/><path id="kingdom-path56" d="M341.460000,247.200000C341.460000,203.570000,226.630000,206,226.630000,249.630000L243.630000,337.720000L333.550000,339.720000Z" opacity="0.5" fill="none" stroke="none" stroke-width="1"/><path id="kingdom-path57" d="M272.100000,193.280000C272.100000,193.280000,263.170000,167.970000,282.370000,156.850000C283.161788,156.406990,284.129755,156.419960,284.909388,156.884028C285.689021,157.348095,286.161919,158.192782,286.150000,159.100000L286,174.680000C285.905763,183.240290,280.291136,190.758797,272.110000,193.280000Z" fill="rgb(183,78,6)" stroke="none" stroke-width="1"/><path id="kingdom-path58" d="M282.290000,156.920000C287.580000,163.560000,279.100000,184.560000,270.900000,184.440000C271.160571,187.907180,271.831938,191.331152,272.900000,194.640000L274.040000,194.290000C281.551366,191.990361,286.703907,185.085228,286.770000,177.230000L286.570000,159.320000C286.562166,158.323126,286.026746,157.405028,285.162968,156.907328C284.299190,156.409627,283.236378,156.406839,282.370000,156.900000Z" fill="rgb(170,73,7)" stroke="none" stroke-width="1"/><path id="kingdom-path59" d="M298.940000,190.400000C298.940000,190.400000,306.460000,161.130000,284.940000,158.170000L290.940000,184.170000Z" fill="rgb(183,78,6)" stroke="none" stroke-width="1"/><path id="kingdom-path60" d="M300.160000,181.520000C293.840000,180.330000,286.160000,169.220000,287.750000,158.780000C286.821822,158.511809,285.876242,158.307991,284.920000,158.170000L286.570000,178.940000C287.186354,186.621572,291.433162,193.547250,298,197.580000L299.880000,198.740000C299.880000,198.740000,299.920000,186.560000,300.160000,181.520000Z" fill="rgb(170,73,7)" stroke="none" stroke-width="1"/><polygon id="kingdom-polygon4" points="301.900000,174.660000 294.550000,199.150000 306.120000,201.910000 310.680000,179.290000 301.900000,174.660000" fill="rgb(242,238,221)" stroke="none" stroke-width="1"/><polygon id="kingdom-polygon5" points="265.350000,199.060000 263.060000,174.380000 270.100000,173.180000 276.920000,196.370000 265.350000,199.060000" fill="rgb(242,238,221)" stroke="none" stroke-width="1"/><path id="kingdom-path61" d="M211.560000,214.130000C211.560000,214.130000,199.460000,196.770000,203.560000,187.850000C207.990000,178.220000,245.440000,169.690000,263.310000,169.700000L265.690000,204.140000C265.690000,204.140000,216.610000,219,211.560000,214.130000Z" fill="rgb(81,59,62)" stroke="none" stroke-width="1"/><path id="kingdom-path62" d="M211.560000,214.130000C211.560000,214.130000,199.460000,196.770000,203.560000,187.850000C207.990000,178.220000,245.440000,169.690000,263.310000,169.700000L265.690000,204.140000C265.690000,204.140000,216.610000,219,211.560000,214.130000Z" opacity="0.8" fill="none" stroke="none" stroke-width="1"/><path id="kingdom-path63" d="M214.490000,179.790000C208.970000,182.170000,204.930000,184.880000,203.560000,187.850000C199.460000,196.770000,211.560000,214.130000,211.560000,214.130000C216.610000,219.040000,265.690000,204.130000,265.690000,204.130000L264.340000,184.630000C236.240000,193.530000,213.920000,189.630000,214.490000,179.790000Z" fill="rgb(66,45,49)" stroke="none" stroke-width="1"/><path id="kingdom-path64" d="M361.870000,211.940000C361.870000,211.940000,373.770000,187.770000,365.490000,177.630000C357.210000,167.490000,316.360000,168.970000,301.880000,173.170000L304.360000,205.810000C304.360000,205.810000,356.540000,218.560000,361.870000,211.940000Z" fill="rgb(81,59,62)" stroke="none" stroke-width="1"/><path id="kingdom-path65" d="M361.870000,211.940000C361.870000,211.940000,373.770000,187.770000,365.490000,177.630000C357.210000,167.490000,316.360000,168.970000,301.880000,173.170000L304.360000,205.810000C304.360000,205.810000,356.540000,218.560000,361.870000,211.940000Z" opacity="0.8" fill="none" stroke="none" stroke-width="1"/><path id="kingdom-path66" d="M303,188.530000L304.320000,205.810000C304.320000,205.810000,356.500000,218.560000,361.830000,211.940000C361.830000,211.940000,373.730000,187.770000,365.450000,177.630000C361.400000,172.620000,320.540000,187.340000,303,188.530000Z" fill="rgb(66,45,49)" stroke="none" stroke-width="1"/><path id="kingdom-path67" d="M284.120000,158.270000C284.120000,158.270000,278.420000,164.950000,277.290000,169.050000L277.820000,171.940000C280.700000,162.820000,284.880000,161.940000,284.880000,161.940000Z" fill="rgb(170,73,7)" stroke="none" stroke-width="1"/><path id="kingdom-path68" d="M287.160000,160C287.160000,160,293.990000,166.690000,295.360000,170.790000L294.720000,173.670000C291.260000,164.560000,286.250000,163.670000,286.250000,163.670000Z" fill="rgb(170,73,7)" stroke="none" stroke-width="1"/><path id="kingdom-path69" d="M276.600000,251.300000C257.530000,251.300000,240.140000,249.250000,226.930000,245.880000C226.732563,247.120288,226.632259,248.374098,226.630000,249.630000L243.630000,337.720000L333.550000,339.720000L341.450000,247.170000C341.450923,245.053826,341.161559,242.947526,340.590000,240.910000C327.510000,247.150000,303.750000,251.300000,276.600000,251.300000Z" fill="rgb(45,30,34)" stroke="none" stroke-width="1"/><path id="kingdom-path70" d="M276.600000,251.300000C257.530000,251.300000,240.140000,249.250000,226.930000,245.880000C226.732563,247.120288,226.632259,248.374098,226.630000,249.630000L243.630000,337.720000L333.550000,339.720000L341.450000,247.170000C341.450923,245.053826,341.161559,242.947526,340.590000,240.910000C327.510000,247.150000,303.750000,251.300000,276.600000,251.300000Z" opacity="0.8" fill="none" stroke="none" stroke-width="1"/><path id="kingdom-path71" d="M214.490000,179.790000C208.970000,182.170000,204.930000,184.880000,203.560000,187.850000C199.460000,196.770000,211.560000,214.130000,211.560000,214.130000C216.610000,219.040000,265.690000,204.130000,265.690000,204.130000L264.340000,184.630000C236.240000,193.530000,213.920000,189.630000,214.490000,179.790000Z" opacity="0.5" fill="none" stroke="none" stroke-width="1"/><path id="kingdom-path72" d="M303,188.530000L304.320000,205.810000C304.320000,205.810000,356.500000,218.560000,361.830000,211.940000C361.830000,211.940000,373.730000,187.770000,365.450000,177.630000C361.400000,172.620000,320.540000,187.340000,303,188.530000Z" opacity="0.5" fill="none" stroke="none" stroke-width="1"/></g><g id="kingdom-amazone_to" transform="translate(767.713032,296.021758)"><g id="kingdom-amazone" transform="translate(-492.500000,-303.100000)"><ellipse id="kingdom-ellipse2" rx="111.500000" ry="23.500000" transform="matrix(1 0 0 1 492.50000000000000 582.60000000000002)" opacity="0.05" fill="rgb(140,140,140)" stroke="none" stroke-width="1"/><path id="kingdom-path73" d="M494.070000,307.190000L489.990000,307.370000L486.650000,354.680000C486.650000,354.680000,484.980000,386.780000,482.940000,399.210000C480.900000,411.640000,475.890000,439.280000,475.890000,439.280000L475.890000,456.530000C478.300000,463.020000,473.890000,514.230000,473.890000,514.230000L473.520000,542.610000L475.890000,566L475.520000,582.690000C475.520000,582.690000,473.110000,588.070000,468.520000,589.190000C463.930000,590.310000,454.420000,582.880000,453.680000,579.910000C452.940000,576.940000,460.910000,562.840000,460.910000,562.840000L460.540000,547.450000C460.540000,547.450000,446.260000,490.860000,446.260000,476.760000C446.260000,462.660000,450.710000,436.500000,450.710000,436.500000L450.710000,423.320000C446.440000,411.630000,438.280000,279.920000,438.830000,273.980000C439.380000,268.040000,448.670000,239.470000,454.230000,223.150000C457.575065,213.177791,458.530735,202.559231,457.020000,192.150000L454.230000,173.410000L450.470000,169C450.470000,169,446.210000,200.900000,444.720000,209.620000C443.230000,218.340000,440.270000,229.290000,440.270000,229.290000C440.270000,229.290000,425.610000,275.460000,424.500000,277C423.390000,278.540000,427.840000,288.080000,427.840000,288.080000C427.840000,288.080000,428.020000,310.900000,426.540000,315.350000C425.060000,319.800000,421.720000,313.870000,421.720000,313.870000C421.720000,313.870000,421.160000,306.820000,420.790000,302.730000C420.420000,298.640000,418,304,418,304L417.630000,316.430000C417.630000,316.430000,421.710000,325.520000,422.260000,327.940000C422.810000,330.360000,419.110000,329.940000,419.110000,329.940000C419.110000,329.940000,410.950000,322.330000,409.280000,316.760000C407.610000,311.190000,410.760000,292.090000,410.760000,292.090000L414.470000,269.830000L416.700000,246.080000C417.250000,219.740000,428.940000,193.020000,428.940000,193.020000C428.940000,193.020000,429.680000,123.450000,432.100000,114.550000C434.520000,105.650000,442.670000,98.960000,448.050000,98.550000C453.430000,98.140000,461.410000,96.330000,470.870000,93.730000C480.330000,91.130000,477.730000,72.730000,477.730000,72.730000L493.140000,74L495,74L510.390000,72.890000C510.390000,72.890000,507.800000,91.250000,517.260000,93.890000C526.720000,96.530000,534.700000,98.340000,540.080000,98.710000C545.460000,99.080000,553.620000,105.710000,556.030000,114.710000C558.440000,123.710000,559.190000,193.180000,559.190000,193.180000C559.190000,193.180000,570.870000,219.900000,571.430000,246.240000L573.660000,269.990000L577.370000,292.250000C577.370000,292.250000,580.520000,311.360000,578.850000,316.920000C577.180000,322.480000,569,330,569,330C569,330,565.290000,330.370000,565.850000,328C566.410000,325.630000,570.480000,316.490000,570.480000,316.490000L570.130000,304C570.130000,304,567.720000,298.620000,567.350000,302.700000C566.980000,306.780000,566.420000,313.840000,566.420000,313.840000C566.420000,313.840000,563.080000,319.770000,561.600000,315.320000C560.120000,310.870000,560.300000,288.050000,560.300000,288.050000C560.300000,288.050000,564.750000,278.500000,563.640000,276.970000C562.530000,275.440000,547.870000,229.240000,547.870000,229.240000C547.870000,229.240000,544.870000,218.240000,543.420000,209.570000C541.970000,200.900000,537.670000,169,537.670000,169L534,173.430000L531.210000,192.170000C529.699265,202.579231,530.654935,213.197791,534,223.170000C539.560000,239.490000,541.790000,411.650000,537.520000,423.340000L537.520000,436.510000C537.520000,436.510000,541.970000,462.670000,541.970000,476.770000C541.970000,490.870000,527.690000,547.460000,527.690000,547.460000L527.320000,562.850000C527.320000,562.850000,535.320000,576.950000,534.550000,579.920000C533.780000,582.890000,524.350000,590.310000,519.710000,589.200000C515.070000,588.090000,512.710000,582.700000,512.710000,582.700000L512.250000,566L514.660000,542.620000L514.290000,514.240000C514.290000,514.240000,509.840000,463.030000,512.290000,456.540000L512.290000,439.280000C512.290000,439.280000,507.290000,411.630000,505.240000,399.210000C503.190000,386.790000,501.530000,354.680000,501.530000,354.680000L498.190000,307.370000L494.110000,307.190000" fill="rgb(131,61,19)" stroke="none" stroke-width="1"/><path id="kingdom-path74" d="M500.610000,305.280000L499.280000,323.280000C499.280000,323.280000,502.350000,408.800000,507.690000,413.700000C513.030000,418.600000,539.250000,413.700000,539.250000,413.700000L547.910000,314Z" fill="rgb(249,56,11)" stroke="none" stroke-width="1"/><path id="kingdom-path75" d="M449.070000,415L438.920000,305.280000L493.420000,307.220000C493.420000,307.220000,482.290000,411.370000,480.220000,415C478.150000,418.630000,449.070000,415,449.070000,415Z" fill="rgb(249,56,11)" stroke="none" stroke-width="1"/><path id="kingdom-path76" d="M534,66.890000C535.630000,66.960000,537.290000,71.340000,540.610000,80.110000C543.020000,86.480000,543.160000,88.030000,542.810000,89.650000C542.520000,91.010000,541.810000,92.790000,535.470000,98.460000C529.550000,103.750000,526.590000,106.400000,525.190000,105.800000C521.190000,104.090000,525.300000,87.130000,525.930000,84.510000C527,80.310000,530.220000,66.740000,534,66.890000Z" fill="rgb(0,0,0)" stroke="none" stroke-width="1"/><path id="kingdom-path77" d="M430.200000,322.720000C430.200000,322.720000,435.380000,278.430000,439.790000,258.950000C444.200000,239.470000,456.360000,209.370000,456.360000,209.370000C456.360000,209.370000,456.740000,177.510000,450.470000,168.980000C444.200000,160.450000,443.150000,100.330000,443.150000,100.330000L470.880000,93.840000L517.260000,93.840000L543.840000,99.750000L537.670000,169C537.670000,169,531.670000,193.820000,534.830000,209.390000C537.990000,224.960000,555.640000,262.180000,552.270000,287.860000L556.630000,322.740000Z" fill="rgb(222,215,255)" stroke="none" stroke-width="1"/><path id="kingdom-path78" d="M429.190000,113.390000C433.560000,127.810000,432.700000,149.970000,432.700000,149.970000C431.730141,150.070783,430.754693,150.107529,429.780000,150.080000C430.022613,148.136115,430.400192,146.211467,430.910000,144.320000C431.238609,143.245806,430.634194,142.108609,429.560000,141.780000C428.485806,141.451391,427.348609,142.055806,427.020000,143.130000C426.450569,145.280167,426.019684,147.464654,425.730000,149.670000C424.826353,149.532217,423.931503,149.341895,423.050000,149.100000C422.460000,132.210000,429.190000,113.390000,429.190000,113.390000Z" fill="rgb(161,191,194)" stroke="none" stroke-width="1"/><path id="kingdom-path79" d="M429.570000,141.790000C430.087053,141.942065,430.520850,142.296372,430.773105,142.772644C431.025360,143.248916,431.074719,143.806838,430.910000,144.320000C430.400192,146.211467,430.022613,148.136115,429.780000,150.080000C428.950000,155.760000,428.010000,165.860000,428.340000,181.580000C428.630000,195.240000,427.620000,212.980000,425.840000,231.170000C424.380000,231.020000,422.690000,231.280000,421.480000,231.170000L421.480000,231.170000C423.240000,213.170000,424.580000,195.110000,424.270000,181.670000C423.930000,165.840000,424.860000,155.590000,425.730000,149.670000C426.019684,147.464654,426.450569,145.280167,427.020000,143.130000C427.171691,142.608243,427.529141,142.170662,428.010134,141.917905C428.491127,141.665148,429.054258,141.618973,429.570000,141.790000Z" fill="rgb(143,127,86)" stroke="none" stroke-width="1"/><path id="kingdom-path80" d="M424.350000,228.720000C424.880753,229.000517,425.428483,229.247664,425.990000,229.460000C424.680000,246.100000,423.410000,263.180000,422.420000,280.460000C419.500000,332.560000,412.510000,579.240000,412.420000,581.720000C412.519400,582.961218,411.649152,584.070784,410.420000,584.270000L410.340000,584.270000C409.230000,584.270000,408.340000,583,408.410000,581.520000C408.410000,579.040000,415.410000,332.270000,418.410000,280.080000C419.410000,262.700000,420.690000,245.550000,421.990000,228.890000L422.110000,227.340000C422.821643,227.854566,423.570349,228.315823,424.350000,228.720000Z" fill="rgb(143,127,86)" stroke="none" stroke-width="1"/><path id="kingdom-path81" d="M408.930000,317C410.740000,323,419.590000,331.270000,419.590000,331.270000C419.590000,331.270000,423.590000,331.670000,423.010000,329.060000C422.430000,326.450000,418.010000,316.590000,418.010000,316.590000L412.790000,300.970000C414.219089,301.345422,415.720911,301.345422,417.150000,300.970000C414.380000,298.570000,413.570000,295.730000,409.980000,294.160000C409.070000,300.400000,407.610000,312.550000,408.930000,317Z" fill="rgb(131,61,19)" stroke="none" stroke-width="1"/><path id="kingdom-path82" d="M469.800000,44.510000C469.800000,44.510000,477.870000,84.880000,494.750000,84.140000C511.630000,83.400000,524.110000,46,522.640000,41.570000C521.170000,37.140000,516.040000,30.570000,516.040000,30.570000L479.740000,30.570000L471.260000,35.710000C471.260000,35.710000,468.330000,37.900000,469.800000,44.510000Z" fill="rgb(131,61,19)" stroke="rgb(112,49,18)" stroke-width="1.090000" stroke-miterlimit="10"/><path id="kingdom-path83" d="M484.840000,14.050000C478.710000,13.600000,475.390000,16.200000,465.760000,20.650000C454.130000,26,454.450000,36.320000,454,39C453.190000,43.920000,454.250000,46.110000,453.260000,50.750000C452.380000,54.860000,456.260000,52.690000,452.530000,58.820000C449.690000,63.520000,448.280000,69.520000,450.330000,73.500000C453.930000,80.500000,456.410000,73.500000,458.400000,80.840000C459.200000,83.840000,458.240000,83.900000,459.130000,87.450000C459.800000,90,461.560000,97,468,99.920000C472.580000,102.010000,479.160000,101.820000,483.420000,97.720000C489.360000,92,486.500000,82.720000,486.350000,82.310000C485.680000,80.310000,485.260000,80.600000,482.680000,74.970000C480.020000,69.160000,479.680000,67.120000,480.480000,65.430000C481.280000,63.740000,482.380000,64.120000,483.420000,62.490000C485.970000,58.490000,480.700000,53.680000,482.680000,49.280000C484.050000,46.280000,488.310000,44.680000,491.490000,44.870000C496.110000,45.160000,496.580000,49.030000,501.770000,50.750000C508.880000,53.100000,515.500000,48.300000,516.450000,50.010000C517.130000,51.240000,513.520000,53.380000,511.310000,58.090000C510.190000,60.450000,510.380000,61.910000,509.840000,69.830000C509.480000,75.040000,509.030000,75.180000,509.110000,79.370000C509.110000,81.720000,509.380000,94.080000,516.450000,96.990000C521.960000,99.260000,529.200000,94.750000,532.590000,90.380000C534.370000,88.090000,533.700000,87.640000,536.260000,83.040000C540.370000,75.680000,543,75.230000,544.340000,71.300000C545.240000,68.640000,544.770000,66.680000,540.670000,55.150000C534.190000,36.930000,533.060000,35.310000,531.860000,33.860000C529.760000,31.320000,524.950000,25.510000,517.180000,23.590000C510.060000,21.830000,507.550000,25.090000,501.770000,22.120000C497.840000,20.120000,496.920000,17.540000,491.490000,15.510000C489.350283,14.722360,487.112873,14.231139,484.840000,14.050000Z" fill="rgb(0,0,0)" stroke="none" stroke-width="1"/><path id="kingdom-path84" d="M465.730000,8.160000C460.400000,17.500000,465.330000,31.570000,465.330000,31.570000C465.330000,31.570000,515.800000,47.310000,523.770000,36.780000C531.740000,26.250000,529.230000,6.620000,529.230000,6.620000" fill="rgb(233,233,234)" stroke="rgb(0,0,0)" stroke-width="0.200000" stroke-miterlimit="10"/><ellipse id="kingdom-ellipse3" rx="31.830000" ry="7.160000" transform="matrix(1 0 0 1 497.63000000000000 7.26000000000000)" fill="rgb(255,255,255)" stroke="rgb(0,0,0)" stroke-width="0.200000" stroke-miterlimit="10"/><path id="kingdom-path85" d="M502.700000,22.640000C502.700000,22.640000,506.400000,24.490000,506.400000,24.490000C506.400000,24.490000,506.400000,24.640000,507.120000,24.680000C507.840000,24.720000,509.880000,24.600000,509.880000,24.600000C509.880000,24.600000,510.260000,25.180000,510.090000,25.390000C509.590500,25.609308,509.061539,25.754182,508.520000,25.820000L504,26.100000L502.400000,25.220000L501.920000,24Z" fill="rgb(228,35,38)" stroke="rgb(29,29,27)" stroke-width="0.100000" stroke-miterlimit="10"/><path id="kingdom-path86" d="M480.190000,17.740000C480.190000,17.740000,477.980000,17.530000,477.280000,18.740000C476.580000,19.950000,475.470000,22.030000,477.330000,23.280000C480.615442,25.292414,484.258963,26.650670,488.060000,27.280000C491.861037,27.909330,490.420000,28.740000,495.380000,28.150000C500.340000,27.560000,500.380000,27.270000,500.380000,27.270000C501.500596,27.711179,502.776396,27.439481,503.620000,26.580000C503.952572,26.783671,504.364294,26.809871,504.720000,26.650000C505.440000,26.410000,507,26.470000,507.490000,26.280000C508.244496,26.104866,509.009376,25.977943,509.780000,25.900000C510.550624,25.822057,510.150000,25.540000,510.080000,25.440000C510.010000,25.340000,509.010000,25.730000,508.850000,25.570000C508.690000,25.410000,508.500000,25.330000,506.510000,25.890000C506.510000,25.890000,506.390000,25.660000,505.180000,25.640000C505.180000,25.640000,502.620000,24.910000,502.820000,23.960000C503.020000,23.010000,506.220000,22.490000,506.220000,22.490000C506.814117,22.305977,507.294708,21.865741,507.530000,21.290000C507.967678,21.247128,508.399886,21.160016,508.820000,21.030000L509.820000,20.730000C509.820000,20.730000,509.470000,19.730000,508.910000,19.730000C508.158515,19.750312,507.459552,20.120134,507.020000,20.730000C506.580448,21.339866,506.240000,21.430000,505.650000,21.170000C505.060000,20.910000,504.650000,20.170000,504.150000,21.170000C504.150000,21.170000,503.240000,20.250000,501.670000,22.170000C500.840543,22.045122,499.994924,22.245777,499.310000,22.730000C498.761429,22.271452,497.977119,22.226751,497.380000,22.620000L495.730000,22.510000C495.077757,22.177410,494.289719,22.268034,493.730000,22.740000C493.143998,22.556488,492.506174,22.652346,492,23C491.397049,22.929318,490.787826,23.063136,490.270000,23.380000C489.752174,23.696864,489.200000,23.030000,488.670000,23.380000C488.670000,23.380000,487.250000,23.030000,486.670000,23.380000C485.965281,23.370022,485.260616,23.403418,484.560000,23.480000C483.859384,23.556582,483.230000,23.360000,483.100000,23.480000C482.712654,23.415658,482.317346,23.415658,481.930000,23.480000L479.110000,22C479.110000,22,477.990000,20.870000,478.630000,19.750000C479.061565,19.015815,479.585877,18.340259,480.190000,17.740000Z" fill="rgb(50,172,186)" stroke="rgb(29,29,27)" stroke-width="0.100000" stroke-miterlimit="10"/><path id="kingdom-path87" d="M496,24.150000C496,24.150000,497,22.750000,497.220000,22.690000" fill="none" stroke="rgb(29,29,27)" stroke-width="0.100000" stroke-miterlimit="10"/><path id="kingdom-path88" d="M494.530000,24.050000C494.530000,24.050000,495.240000,22.500000,495.610000,22.550000" fill="none" stroke="rgb(29,29,27)" stroke-width="0.100000" stroke-miterlimit="10"/><path id="kingdom-path89" d="M493,24C493,24,493.330000,22.880000,493.750000,22.800000" fill="none" stroke="rgb(29,29,27)" stroke-width="0.100000" stroke-miterlimit="10"/><path id="kingdom-path90" d="M490.780000,24.230000C490.780000,24.230000,491.570000,22.930000,491.900000,22.960000" fill="none" stroke="rgb(29,29,27)" stroke-width="0.100000" stroke-miterlimit="10"/><path id="kingdom-path91" d="M489.530000,24.370000C489.703322,24.010417,489.921747,23.674378,490.180000,23.370000" fill="none" stroke="rgb(29,29,27)" stroke-width="0.100000" stroke-miterlimit="10"/><path id="kingdom-path92" d="M487.880000,24.080000C487.880000,24.080000,488.450000,23.380000,488.690000,23.350000" fill="none" stroke="rgb(29,29,27)" stroke-width="0.100000" stroke-miterlimit="10"/><path id="kingdom-path93" d="M485.600000,24.150000C485.600000,24.150000,486.220000,23.260000,486.600000,23.350000" fill="none" stroke="rgb(29,29,27)" stroke-width="0.100000" stroke-miterlimit="10"/><path id="kingdom-path94" d="M484.100000,24.050000C484.100000,24.050000,484.330000,23.560000,484.620000,23.450000" fill="none" stroke="rgb(29,29,27)" stroke-width="0.100000" stroke-miterlimit="10"/><path id="kingdom-path95" d="M482.650000,24C482.764872,23.792438,482.943767,23.627574,483.160000,23.530000" fill="none" stroke="rgb(29,29,27)" stroke-width="0.100000" stroke-miterlimit="10"/><path id="kingdom-path96" d="M481.770000,23.730000C481.816231,23.633817,481.893817,23.556231,481.990000,23.510000" fill="none" stroke="rgb(29,29,27)" stroke-width="0.100000" stroke-miterlimit="10"/><path id="kingdom-path97" d="M486.310000,25.530000C486.566827,25.909098,486.880504,26.246384,487.240000,26.530000C487.680000,26.800000,488.420000,27.040000,488.330000,27.190000L487.870000,28.130000C487.870000,28.130000,487.360000,29.130000,488.210000,29.310000C489.060000,29.490000,489.830000,29.310000,490.090000,29.600000C490.350000,29.890000,490.540000,29.990000,490.490000,30.300000C490.440000,30.610000,490.490000,30.620000,490.490000,30.620000C490.490000,30.620000,490.880000,30.440000,490.860000,30.190000C490.840000,29.940000,491.170000,30.430000,491.300000,30.610000C491.430000,30.790000,491.440000,30.610000,491.440000,30.610000C491.530843,30.359910,491.508961,30.082737,491.380000,29.850000C491.170000,29.480000,492.230000,29.960000,492.230000,29.960000C492.230000,29.960000,492.330000,29.960000,492.230000,29.820000C492.034348,29.668137,491.823171,29.537409,491.600000,29.430000C491.376829,29.322591,491.380000,29.170000,491.720000,29.190000C491.856463,29.179452,491.993537,29.179452,492.130000,29.190000C492.266463,29.200548,492.550000,29.370000,492.260000,29.040000C491.970000,28.710000,491.910000,28.350000,491.520000,28.380000C491.185046,28.380566,490.850604,28.353810,490.520000,28.300000C490.448546,28.219024,490.417219,28.110248,490.434659,28.003671C490.452099,27.897095,490.516463,27.803977,490.610000,27.750000C490.843862,27.576029,491.029677,27.345480,491.150000,27.080000C491.270323,26.814520,491.270000,26.720000,490.780000,26.500000C490.242403,26.184516,489.730786,25.826718,489.250000,25.430000" fill="rgb(50,172,186)" stroke="rgb(29,29,27)" stroke-width="0.100000" stroke-miterlimit="10"/><path id="kingdom-path98" d="M496.850000,26.090000C496.850000,26.090000,497.590000,26.610000,497.380000,26.830000C497.215567,27.122690,496.894266,27.291178,496.560000,27.260000C496.010000,27.260000,495.360000,27.070000,495.560000,28.120000C495.609180,28.675326,496.014776,29.133650,496.560000,29.250000C497.105224,29.366350,498.010000,29.500000,498.150000,29.870000C498.216858,30.012957,498.263957,30.164345,498.290000,30.320000C498.316043,30.475655,498.490000,30.520000,498.480000,30.320000L498.480000,29.740000C498.814412,30.065504,499.172019,30.366295,499.550000,30.640000C499.562015,30.493579,499.562015,30.346421,499.550000,30.200000L499.320000,29.550000L500.210000,30.610000C500.210000,30.610000,500.350000,30.800000,500.260000,30.280000C500.170000,29.760000,499.680000,29.180000,499.850000,29.170000C500.020000,29.160000,501.280000,29.510000,501.400000,29.490000C501.520000,29.470000,501.620000,29.380000,501.400000,29.130000C500.919239,28.692023,500.290308,28.452601,499.640000,28.460000C499.445657,28.217486,499.190239,28.031100,498.900000,27.920000C498.609761,27.808900,500.250000,27.620000,500.390000,27.170000C500.448909,26.673285,500.428658,26.170370,500.330000,25.680000C500.303932,25.417312,500.303932,25.152688,500.330000,24.890000" fill="rgb(50,172,186)" stroke="rgb(29,29,27)" stroke-width="0.100000" stroke-miterlimit="10"/><polygon id="kingdom-polygon6" points="505.650000,24.130000 506.170000,23.810000 506.250000,24.420000 505.650000,24.130000" fill="rgb(251,252,248)" stroke="rgb(29,29,27)" stroke-width="0.100000" stroke-miterlimit="10"/><path id="kingdom-path99" d="M506.920000,24.670000L506.600000,24L506.260000,24.440000C506.451122,24.582697,506.681586,24.663010,506.920000,24.670000Z" fill="rgb(251,252,248)" stroke="rgb(29,29,27)" stroke-width="0.100000" stroke-miterlimit="10"/><polygon id="kingdom-polygon7" points="507.680000,24.690000 507.340000,24.050000 506.920000,24.660000 507.680000,24.690000" fill="rgb(251,252,248)" stroke="rgb(29,29,27)" stroke-width="0.100000" stroke-miterlimit="10"/><polygon id="kingdom-polygon8" points="508.600000,24.660000 508.070000,24.120000 507.680000,24.690000 508.600000,24.660000" fill="rgb(251,252,248)" stroke="rgb(29,29,27)" stroke-width="0.100000" stroke-miterlimit="10"/><polygon id="kingdom-polygon9" points="509.470000,24.620000 508.890000,24.190000 508.600000,24.660000 509.470000,24.620000" fill="rgb(251,252,248)" stroke="rgb(29,29,27)" stroke-width="0.100000" stroke-miterlimit="10"/><polygon id="kingdom-polygon10" points="509.710000,24.090000 509.880000,24.600000 509.470000,24.620000 509.710000,24.090000" fill="rgb(251,252,248)" stroke="rgb(29,29,27)" stroke-width="0.100000" stroke-miterlimit="10"/><polygon id="kingdom-polygon11" points="506.360000,22.390000 506.290000,23.010000 505.550000,22.570000 506.360000,22.390000" fill="rgb(251,252,248)" stroke="rgb(29,29,27)" stroke-width="0.100000" stroke-miterlimit="10"/><polygon id="kingdom-polygon12" points="504.840000,22.750000 505.590000,23.220000 505.840000,22.510000 504.840000,22.750000" fill="rgb(251,252,248)" stroke="rgb(29,29,27)" stroke-width="0.100000" stroke-miterlimit="10"/><polygon id="kingdom-polygon13" points="506.970000,22.040000 507.060000,22.600000 506.360000,22.390000 506.970000,22.040000" fill="rgb(251,252,248)" stroke="rgb(29,29,27)" stroke-width="0.100000" stroke-miterlimit="10"/><polygon id="kingdom-polygon14" points="507.310000,21.680000 507.520000,22.160000 506.970000,22.040000 507.310000,21.680000" fill="rgb(251,252,248)" stroke="rgb(29,29,27)" stroke-width="0.100000" stroke-miterlimit="10"/><polygon id="kingdom-polygon15" points="507.370000,21.590000 507.870000,21.640000 507.790000,21.210000 507.540000,21.240000 507.370000,21.590000" fill="rgb(251,252,248)" stroke="rgb(29,29,27)" stroke-width="0.100000" stroke-miterlimit="10"/><polygon id="kingdom-polygon16" points="508.370000,21.100000 508.250000,21.500000 507.790000,21.210000 508.370000,21.100000" fill="rgb(251,252,248)" stroke="rgb(29,29,27)" stroke-width="0.100000" stroke-miterlimit="10"/><polygon id="kingdom-polygon17" points="509.030000,20.910000 508.950000,21.460000 508.370000,21.100000 509.030000,20.910000" fill="rgb(251,252,248)" stroke="rgb(29,29,27)" stroke-width="0.100000" stroke-miterlimit="10"/><polygon id="kingdom-polygon18" points="509.610000,21.310000 509.800000,20.680000 509.030000,20.910000 509.610000,21.310000" fill="rgb(251,252,248)" stroke="rgb(29,29,27)" stroke-width="0.100000" stroke-miterlimit="10"/><polygon id="kingdom-polygon19" points="510.090000,25.390000 509.880000,24.600000 510.070000,25.010000 510.090000,25.390000" fill="rgb(251,252,248)" stroke="rgb(29,29,27)" stroke-width="0.040000" stroke-miterlimit="10"/><polygon id="kingdom-polygon20" points="509.330000,25.550000 509.490000,24.950000 510.090000,25.390000 509.330000,25.550000" fill="rgb(251,252,248)" stroke="rgb(29,29,27)" stroke-width="0.100000" stroke-miterlimit="10"/><path id="kingdom-path100" d="M508.650000,25.410000L509,25L509.370000,25.510000C509.125953,25.568165,508.868959,25.532471,508.650000,25.410000Z" fill="rgb(251,252,248)" stroke="rgb(29,29,27)" stroke-width="0.100000" stroke-miterlimit="10"/><polygon id="kingdom-polygon21" points="507.780000,25.510000 508.160000,25.030000 508.650000,25.410000 507.780000,25.510000" fill="rgb(251,252,248)" stroke="rgb(29,29,27)" stroke-width="0.100000" stroke-miterlimit="10"/><polygon id="kingdom-polygon22" points="507.060000,25.690000 507.430000,25.030000 507.780000,25.510000 507.060000,25.690000" fill="rgb(251,252,248)" stroke="rgb(29,29,27)" stroke-width="0.100000" stroke-miterlimit="10"/><polygon id="kingdom-polygon23" points="506.350000,25.740000 506.770000,25.260000 507.060000,25.690000 506.520000,25.840000 506.350000,25.740000" fill="rgb(251,252,248)" stroke="rgb(29,29,27)" stroke-width="0.100000" stroke-miterlimit="10"/><polygon id="kingdom-polygon24" points="505.580000,25.610000 506.320000,25.210000 506.350000,25.740000 505.580000,25.610000" fill="rgb(251,252,248)" stroke="rgb(29,29,27)" stroke-width="0.100000" stroke-miterlimit="10"/><polygon id="kingdom-polygon25" points="504.820000,25.470000 505.360000,25.040000 505.670000,25.610000 505.190000,25.590000 504.820000,25.470000" fill="rgb(251,252,248)" stroke="rgb(29,29,27)" stroke-width="0.100000" stroke-miterlimit="10"/><polygon id="kingdom-polygon26" points="504.360000,25.330000 504.780000,24.920000 504.820000,25.470000 504.360000,25.330000" fill="rgb(251,252,248)" stroke="rgb(29,29,27)" stroke-width="0.100000" stroke-miterlimit="10"/><polyline id="kingdom-polyline1" points="493.200000,55.410000 491.340000,65.700000 493.200000,66.890000" fill="none" stroke="rgb(84,24,4)" stroke-width="0.570000" stroke-miterlimit="10"/></g></g><g id="kingdom-amazone2_to" transform="translate(-248.024695,299.776733)"><g id="kingdom-amazone2" transform="translate(-111.500000,-308.344975)"><ellipse id="kingdom-ellipse4" rx="111.500000" ry="23.500000" transform="matrix(1 0 0 1 111.50000000000000 582.60000000000002)" opacity="0.05" fill="rgb(140,140,140)" stroke="none" stroke-width="1"/><path id="kingdom-path101" d="M185.930000,320.290000C185.593570,314.380463,184.949363,308.492476,184,302.650000L180.290000,280.390000L178.070000,256.640000C177.510000,230.300000,165.820000,203.580000,165.820000,203.580000C165.820000,203.580000,165.080000,134.010000,162.670000,125.110000C160.260000,116.210000,152.090000,109.520000,146.670000,109.110000C141.250000,108.700000,133.320000,106.880000,123.850000,104.290000C114.380000,101.700000,116.990000,83.290000,116.990000,83.290000L101.590000,84.410000L99.780000,84.410000L84.380000,83.290000C84.380000,83.290000,86.980000,101.660000,77.510000,104.290000C68.040000,106.920000,60.070000,108.740000,54.690000,109.110000C49.310000,109.480000,41.150000,116.110000,38.740000,125.110000C36.330000,134.110000,35.590000,203.580000,35.590000,203.580000C35.590000,203.580000,23.900000,230.300000,23.340000,256.640000L21.120000,280.390000L17.410000,302.650000C17.410000,302.650000,14.250000,321.760000,15.920000,327.320000C17.590000,332.880000,25.750000,340.490000,25.750000,340.490000C25.750000,340.490000,29.460000,340.860000,28.910000,338.490000C28.360000,336.120000,24.270000,327,24.270000,327L24.640000,314.570000C24.640000,314.570000,27.050000,309.190000,27.420000,313.270000C27.790000,317.350000,28.350000,324.400000,28.350000,324.400000C28.350000,324.400000,31.690000,330.340000,33.170000,325.890000C34.650000,321.440000,34.470000,298.620000,34.470000,298.620000C34.470000,298.620000,30,289,31.130000,287.490000C32.260000,285.980000,46.900000,239.760000,46.900000,239.760000C46.900000,239.760000,49.900000,228.810000,51.360000,220.090000C52.820000,211.370000,57.110000,179.460000,57.110000,179.460000L60.820000,183.920000L63.600000,202.650000C65.111324,213.058522,64.159135,223.676455,60.820000,233.650000C55.250000,250,46,278.530000,45.420000,284.470000C44.840000,290.410000,53,422.120000,57.290000,433.810000L57.290000,447C57.290000,447,52.840000,473.160000,52.840000,487.260000C52.840000,501.360000,67.120000,557.940000,67.120000,557.940000L67.500000,573.340000C67.500000,573.340000,59.500000,587.440000,60.260000,590.410000C61.020000,593.380000,70.460000,600.800000,75.100000,599.680000C79.740000,598.560000,82.150000,593.190000,82.150000,593.190000L82.520000,576.500000L80.110000,553.100000L80.480000,524.710000C80.480000,524.710000,84.930000,473.510000,82.480000,467.020000L82.480000,449.770000C82.480000,449.770000,87.480000,422.120000,89.480000,409.690000C91.480000,397.260000,93.190000,365.170000,93.190000,365.170000L96.530000,317.860000L100.610000,317.670000L104.700000,317.860000L108.030000,365.170000C108.030000,365.170000,109.700000,397.260000,111.740000,409.690000C113.780000,422.120000,118.740000,449.770000,118.740000,449.770000L118.740000,467C116.330000,473.490000,120.790000,524.690000,120.790000,524.690000L121.160000,553.080000L118.740000,576.460000L119.120000,593.150000C119.120000,593.150000,121.530000,598.530000,126.120000,599.640000C130.710000,600.750000,140.210000,593.340000,140.960000,590.370000C141.710000,587.400000,133.720000,573.300000,133.720000,573.300000L134.090000,557.900000C134.090000,557.900000,148.380000,501.320000,148.380000,487.220000C148.380000,473.120000,144.120000,447,144.120000,447L144.120000,433.810000C148.380000,422.120000,146.120000,249.960000,140.590000,233.630000C137.244979,223.657687,136.292665,213.038356,137.810000,202.630000L140.590000,183.900000L144.300000,179.440000C144.300000,179.440000,148.570000,211.350000,150.050000,220.070000C151.530000,228.790000,154.500000,239.740000,154.500000,239.740000C154.500000,239.740000,169.160000,285.930000,170.270000,287.470000C171.380000,289.010000,166.930000,298.550000,166.930000,298.550000C166.930000,298.550000,166.750000,321.370000,168.230000,325.820000C169.710000,330.270000,173.060000,324.330000,173.060000,324.330000C173.060000,324.330000,173.610000,317.280000,173.980000,313.200000C174.350000,309.120000,176.770000,314.500000,176.770000,314.500000L176.910000,319.410000C179.836962,320.255556,182.894800,320.553882,185.930000,320.290000Z" fill="rgb(131,61,19)" stroke="none" stroke-width="1"/><path id="kingdom-path102" d="M176.910000,319.430000L177.140000,326.950000C177.140000,326.950000,173.060000,336.040000,172.500000,338.450000C171.940000,340.860000,175.650000,340.450000,175.650000,340.450000C175.650000,340.450000,183.820000,332.850000,185.490000,327.280000C185.966738,324.979185,186.114879,322.622402,185.930000,320.280000C182.896646,320.553617,179.838840,320.265464,176.910000,319.430000Z" fill="rgb(131,61,19)" stroke="none" stroke-width="1"/><path id="kingdom-path103" d="M107.240000,315.770000L105.910000,333.770000C105.910000,333.770000,108.980000,419.290000,114.330000,424.200000C119.680000,429.110000,145.880000,424.200000,145.880000,424.200000L154.550000,324.470000Z" fill="rgb(249,56,11)" stroke="none" stroke-width="1"/><path id="kingdom-path104" d="M55.700000,425.490000L45.560000,315.770000L100.050000,317.700000C100.050000,317.700000,88.920000,421.860000,86.860000,425.490000C84.800000,429.120000,55.700000,425.490000,55.700000,425.490000Z" fill="rgb(249,56,11)" stroke="none" stroke-width="1"/><path id="kingdom-path105" d="M140.660000,77.380000C142.280000,77.450000,143.940000,81.830000,147.260000,90.590000C149.680000,96.970000,149.810000,98.510000,149.460000,100.140000C149.170000,101.490000,148.460000,103.280000,142.120000,108.940000C136.200000,114.240000,133.240000,116.940000,131.850000,116.280000C127.850000,114.570000,131.950000,97.620000,132.580000,95C133.590000,90.800000,136.860000,77.230000,140.660000,77.380000Z" fill="rgb(0,0,0)" stroke="none" stroke-width="1"/><path id="kingdom-path106" d="M36.840000,333.210000C36.840000,333.210000,42.020000,288.910000,46.430000,269.430000C50.840000,249.950000,63,219.850000,63,219.850000C63,219.850000,63.380000,188,57.120000,179.460000C50.860000,170.920000,49.790000,110.820000,49.790000,110.820000L77.520000,104.330000L123.900000,104.330000L150.490000,110.240000L144.310000,179.460000C144.310000,179.460000,138.310000,204.290000,141.480000,219.850000C144.650000,235.410000,162.280000,272.650000,158.920000,298.330000L163.280000,333.210000Z" fill="rgb(222,215,255)" stroke="none" stroke-width="1"/><path id="kingdom-path107" d="M165.610000,111.180000C161.240000,125.600000,162.110000,147.770000,162.110000,147.770000C163.079859,147.870783,164.055307,147.907529,165.030000,147.880000C164.778485,145.934257,164.401026,144.006878,163.900000,142.110000C163.571391,141.038568,164.173568,139.903609,165.245000,139.575000C166.316432,139.246391,167.451391,139.848568,167.780000,140.920000C168.354304,143.072974,168.788546,145.260888,169.080000,147.470000C169.980246,147.331638,170.871734,147.141320,171.750000,146.900000C172.340000,130,165.610000,111.180000,165.610000,111.180000Z" fill="rgb(161,191,194)" stroke="none" stroke-width="1"/><path id="kingdom-path108" d="M165.230000,139.590000C164.717119,139.744347,164.287576,140.097960,164.037579,140.571639C163.787582,141.045318,163.738022,141.599477,163.900000,142.110000C164.401026,144.006878,164.778485,145.934257,165.030000,147.880000C165.860000,153.560000,166.800000,163.660000,166.460000,179.380000C166.170000,193.040000,167.190000,210.780000,168.960000,228.960000C170.430000,228.810000,172.110000,229.080000,173.320000,228.960000L173.320000,228.960000C171.560000,210.960000,170.230000,192.910000,170.530000,179.470000C170.870000,163.640000,169.940000,153.380000,169.080000,147.470000C168.788546,145.260888,168.354304,143.072974,167.780000,140.920000C167.626163,140.400081,167.267825,139.964901,166.787084,139.714161C166.306344,139.463422,165.744401,139.418613,165.230000,139.590000Z" fill="rgb(143,127,86)" stroke="none" stroke-width="1"/><path id="kingdom-path109" d="M170.460000,226.520000C169.926353,226.794561,169.378966,227.041552,168.820000,227.260000C170.120000,243.900000,171.400000,260.980000,172.380000,278.260000C175.300000,330.370000,182.290000,577.050000,182.380000,579.530000C182.275624,580.772711,183.148212,581.885261,184.380000,582.080000L184.450000,582.080000C185.726514,581.827303,186.580099,580.617325,186.390000,579.330000C186.330000,576.850000,179.340000,330.070000,176.390000,277.890000C175.390000,260.510000,174.110000,243.360000,172.810000,226.690000C172.810000,226.180000,172.730000,225.690000,172.700000,225.150000C171.982859,225.653275,171.234709,226.110849,170.460000,226.520000Z" fill="rgb(143,127,86)" stroke="none" stroke-width="1"/><path id="kingdom-path110" d="M15.570000,327.430000C17.380000,333.430000,26.220000,341.710000,26.220000,341.710000C26.220000,341.710000,30.220000,342.110000,29.640000,339.500000C29.060000,336.890000,24.640000,327.030000,24.640000,327.030000L19.400000,311.410000C20.828972,311.786329,22.331028,311.786329,23.760000,311.410000C20.980000,309.010000,20.180000,306.160000,16.590000,304.590000C15.700000,310.890000,14.250000,323,15.570000,327.430000Z" fill="rgb(131,61,19)" stroke="none" stroke-width="1"/><path id="kingdom-path111" d="M76.430000,55C76.430000,55,84.510000,95.370000,101.430000,94.630000C118.350000,93.890000,130.790000,56.460000,129.320000,52.060000C127.850000,47.660000,122.710000,41.060000,122.710000,41.060000L86.370000,41.060000L77.900000,46.190000C77.900000,46.190000,75,48.390000,76.430000,55Z" fill="rgb(131,61,19)" stroke="rgb(112,49,18)" stroke-width="1.090000" stroke-miterlimit="10"/><path id="kingdom-path112" d="M91.480000,24.530000C85.340000,24.090000,82.030000,26.680000,72.390000,31.140000C60.760000,36.520000,61.090000,46.800000,60.650000,49.490000C59.850000,54.410000,60.910000,56.590000,59.920000,61.230000C59.040000,65.350000,62.920000,63.230000,59.180000,69.310000C56.340000,74,54.940000,80,57,84C60.610000,91,63.090000,84,65.070000,91.340000C65.880000,94.340000,64.910000,94.340000,65.810000,97.940000C66.450000,100.490000,68.220000,107.510000,74.620000,110.420000C79.190000,112.510000,85.770000,112.320000,90.030000,108.220000C95.980000,102.490000,93.110000,93.220000,92.970000,92.810000C92.290000,90.750000,91.870000,91.100000,89.300000,85.470000C86.640000,79.660000,86.300000,77.620000,87.090000,75.920000C87.880000,74.220000,89,74.610000,90,73C92.550000,69,87.290000,64.180000,89.270000,59.790000C90.640000,56.740000,94.890000,55.180000,98.070000,55.380000C102.690000,55.670000,103.160000,59.540000,108.350000,61.250000C115.460000,63.610000,122.080000,58.810000,123.030000,60.520000C123.710000,61.750000,120.110000,63.890000,117.890000,68.590000C116.780000,70.960000,116.960000,72.420000,116.420000,80.340000C116.070000,85.550000,115.610000,85.690000,115.690000,89.880000C115.690000,92.230000,115.960000,104.590000,123.030000,107.500000C128.550000,109.760000,135.780000,105.260000,139.180000,100.890000C140.960000,98.600000,140.280000,98.150000,142.850000,93.550000C146.960000,86.190000,149.590000,85.740000,150.920000,81.810000C151.830000,79.140000,151.350000,77.190000,147.250000,65.660000C140.770000,47.440000,139.640000,45.820000,138.440000,44.370000C136.340000,41.830000,131.530000,36.020000,123.760000,34.100000C116.650000,32.340000,114.130000,35.590000,108.350000,32.630000C104.430000,30.630000,103.500000,28.050000,98.070000,26.020000C95.952025,25.223583,93.734585,24.722219,91.480000,24.530000Z" fill="rgb(0,0,0)" stroke="none" stroke-width="1"/><path id="kingdom-path113" d="M72.370000,18.650000C67,28,72,42.060000,72,42.060000C72,42.060000,122.470000,57.790000,130.440000,47.270000C138.410000,36.750000,135.890000,17.110000,135.890000,17.110000" fill="rgb(233,233,234)" stroke="rgb(0,0,0)" stroke-width="0.200000" stroke-miterlimit="10"/><ellipse id="kingdom-ellipse5" rx="31.830000" ry="7.160000" transform="matrix(1 0 0 1 104.26000000000001 17.75000000000000)" fill="rgb(255,255,255)" stroke="rgb(0,0,0)" stroke-width="0.200000" stroke-miterlimit="10"/><path id="kingdom-path114" d="M109.330000,33.130000C109.330000,33.130000,113,35,113,35C113,35,113,35.150000,113.730000,35.190000C114.460000,35.230000,116.480000,35.110000,116.480000,35.110000C116.480000,35.110000,116.870000,35.690000,116.690000,35.900000C116.190304,36.116835,115.661217,36.258374,115.120000,36.320000L110.650000,36.610000L109.040000,35.730000L108.520000,34.490000Z" fill="rgb(228,35,38)" stroke="rgb(29,29,27)" stroke-width="0.100000" stroke-miterlimit="10"/><path id="kingdom-path115" d="M86.830000,28.230000C86.830000,28.230000,84.610000,28.020000,83.920000,29.180000C83.230000,30.340000,82.100000,32.470000,83.920000,33.720000C87.206654,35.729924,90.849677,37.087993,94.650000,37.720000C98.450323,38.352007,97.010000,39.180000,101.970000,38.590000C106.930000,38,106.970000,37.710000,106.970000,37.710000C108.090596,38.151179,109.366396,37.879481,110.210000,37.020000C110.546198,37.223741,110.960870,37.249891,111.320000,37.090000C112.040000,36.850000,113.590000,36.910000,114.090000,36.720000C114.840000,36.537111,115.601852,36.406794,116.370000,36.330000C117.138148,36.253206,116.750000,35.980000,116.670000,35.880000C116.590000,35.780000,115.610000,36.170000,115.440000,36.010000C115.270000,35.850000,115.090000,35.770000,113.100000,36.330000C113.100000,36.330000,112.980000,36.090000,111.780000,36.080000C111.780000,36.080000,109.220000,35.350000,109.420000,34.400000C109.620000,33.450000,112.820000,32.920000,112.820000,32.920000C113.416310,32.743829,113.896763,32.300334,114.120000,31.720000C114.560258,31.677921,114.995537,31.594214,115.420000,31.470000L116.420000,31.160000C116.420000,31.160000,116.080000,30.210000,115.520000,30.210000C114.768515,30.230312,114.069552,30.600134,113.630000,31.210000C113.190448,31.819866,112.850000,31.910000,112.260000,31.650000C111.670000,31.390000,111.260000,30.650000,110.760000,31.650000C110.760000,31.650000,109.840000,30.730000,108.270000,32.700000C107.441727,32.569040,106.595040,32.766362,105.910000,33.250000C105.362338,32.796248,104.581837,32.755597,103.990000,33.150000L102.340000,33.040000C101.686790,32.712820,100.901889,32.803084,100.340000,33.270000C99.774991,33.054193,99.142671,33.105661,98.620000,33.410000C98.019219,33.344583,97.413811,33.481856,96.900000,33.800000C96.386189,34.118144,95.830000,33.450000,95.290000,33.800000C95.290000,33.800000,93.870000,33.450000,93.290000,33.800000C92.588604,33.789796,91.887252,33.823194,91.190000,33.900000C90.492748,33.976806,89.850000,33.770000,89.720000,33.900000C89.332654,33.835658,88.937346,33.835658,88.550000,33.900000L85.680000,32.390000C85.680000,32.390000,84.560000,31.260000,85.200000,30.130000C85.661602,29.430890,86.209225,28.792556,86.830000,28.230000Z" fill="rgb(50,172,186)" stroke="rgb(29,29,27)" stroke-width="0.100000" stroke-miterlimit="10"/><path id="kingdom-path116" d="M102.630000,34.640000C102.630000,34.640000,103.630000,33.240000,103.840000,33.180000" fill="none" stroke="rgb(29,29,27)" stroke-width="0.100000" stroke-miterlimit="10"/><path id="kingdom-path117" d="M101.160000,34.540000C101.160000,34.540000,101.880000,32.980000,102.250000,33.040000" fill="none" stroke="rgb(29,29,27)" stroke-width="0.100000" stroke-miterlimit="10"/><path id="kingdom-path118" d="M99.620000,34.510000C99.620000,34.510000,99.950000,33.380000,100.370000,33.310000" fill="none" stroke="rgb(29,29,27)" stroke-width="0.100000" stroke-miterlimit="10"/><path id="kingdom-path119" d="M97.410000,34.720000C97.410000,34.720000,98.210000,33.420000,98.530000,33.450000" fill="none" stroke="rgb(29,29,27)" stroke-width="0.100000" stroke-miterlimit="10"/><path id="kingdom-path120" d="M96.160000,34.860000C96.333605,34.500576,96.552007,34.164572,96.810000,33.860000" fill="none" stroke="rgb(29,29,27)" stroke-width="0.100000" stroke-miterlimit="10"/><path id="kingdom-path121" d="M94.520000,34.570000C94.520000,34.570000,95.090000,33.870000,95.320000,33.840000" fill="none" stroke="rgb(29,29,27)" stroke-width="0.100000" stroke-miterlimit="10"/><path id="kingdom-path122" d="M92.240000,34.630000C92.240000,34.630000,92.860000,33.750000,93.240000,33.840000" fill="none" stroke="rgb(29,29,27)" stroke-width="0.100000" stroke-miterlimit="10"/><path id="kingdom-path123" d="M90.730000,34.540000C90.730000,34.540000,90.970000,34.040000,91.260000,33.940000" fill="none" stroke="rgb(29,29,27)" stroke-width="0.100000" stroke-miterlimit="10"/><path id="kingdom-path124" d="M89.280000,34.450000C89.280000,34.450000,89.500000,34.050000,89.790000,33.980000" fill="none" stroke="rgb(29,29,27)" stroke-width="0.100000" stroke-miterlimit="10"/><path id="kingdom-path125" d="M88.400000,34.220000C88.446231,34.123817,88.523817,34.046231,88.620000,34" fill="none" stroke="rgb(29,29,27)" stroke-width="0.100000" stroke-miterlimit="10"/><path id="kingdom-path126" d="M92.940000,36C93.198838,36.380658,93.516065,36.718133,93.880000,37C94.310000,37.270000,95.050000,37.510000,94.970000,37.670000L94.500000,38.610000C94.500000,38.610000,94,39.610000,94.850000,39.790000C95.700000,39.970000,96.470000,39.790000,96.730000,40.070000C96.990000,40.350000,97.170000,40.460000,97.120000,40.780000C97.070000,41.100000,97.120000,41.100000,97.120000,41.100000C97.120000,41.100000,97.500000,40.910000,97.490000,40.670000C97.480000,40.430000,97.800000,40.910000,97.920000,41.090000C98.040000,41.270000,98.070000,41.090000,98.070000,41.090000C98.155288,40.842549,98.133544,40.570744,98.010000,40.340000C97.790000,39.970000,98.850000,40.440000,98.850000,40.440000C98.850000,40.440000,98.960000,40.440000,98.850000,40.310000C98.656703,40.152020,98.445200,40.017732,98.220000,39.910000C97.994800,39.802268,98,39.660000,98.340000,39.680000C98.479835,39.670381,98.620165,39.670381,98.760000,39.680000C98.899835,39.689619,99.170000,39.860000,98.880000,39.530000C98.590000,39.200000,98.530000,38.840000,98.150000,38.860000C97.815247,38.866501,97.480583,38.843075,97.150000,38.790000C97.079372,38.707680,97.049625,38.597903,97.069028,38.491187C97.088431,38.384471,97.154916,38.292191,97.250000,38.240000C97.483862,38.066029,97.669677,37.835480,97.790000,37.570000C97.910323,37.304520,97.900000,37.210000,97.420000,36.990000C96.887710,36.701118,96.379418,36.370059,95.900000,36" fill="rgb(50,172,186)" stroke="rgb(29,29,27)" stroke-width="0.100000" stroke-miterlimit="10"/><path id="kingdom-path127" d="M103.480000,36.570000C103.480000,36.570000,104.220000,37.100000,104.020000,37.320000C103.847688,37.608572,103.524568,37.772078,103.190000,37.740000C102.650000,37.740000,101.990000,37.560000,102.190000,38.610000C102.233736,39.165650,102.642835,39.623841,103.190000,39.730000C103.737165,39.836159,104.630000,39.990000,104.770000,40.350000C104.833870,40.498458,104.884078,40.652428,104.920000,40.810000C104.955922,40.967572,105.120000,41.010000,105.100000,40.810000L105.100000,40.230000C105.432232,40.557904,105.790028,40.858854,106.170000,41.130000C106.182880,40.983616,106.182880,40.836384,106.170000,40.690000L105.940000,40.040000L106.840000,41.040000C106.840000,41.040000,106.980000,41.240000,106.890000,40.720000C106.800000,40.200000,106.300000,39.620000,106.480000,39.610000C106.660000,39.600000,107.910000,39.950000,108.020000,39.930000C108.130000,39.910000,108.250000,39.820000,108.020000,39.570000C107.542306,39.133526,106.917045,38.894140,106.270000,38.900000C106.070940,38.658133,105.812516,38.472068,105.520000,38.360000C105.227484,38.247932,106.880000,38.060000,107.010000,37.610000C107.074337,37.113511,107.054050,36.609708,106.950000,36.120000C106.929164,35.857079,106.929164,35.592921,106.950000,35.330000" fill="rgb(50,172,186)" stroke="rgb(29,29,27)" stroke-width="0.100000" stroke-miterlimit="10"/><polygon id="kingdom-polygon27" points="112.280000,34.610000 112.800000,34.300000 112.890000,34.910000 112.280000,34.610000" fill="rgb(251,252,248)" stroke="rgb(29,29,27)" stroke-width="0.100000" stroke-miterlimit="10"/><path id="kingdom-path128" d="M113.560000,35.150000L113.230000,34.470000L112.890000,34.910000C113.082338,35.058832,113.316908,35.142857,113.560000,35.150000Z" fill="rgb(251,252,248)" stroke="rgb(29,29,27)" stroke-width="0.100000" stroke-miterlimit="10"/><polygon id="kingdom-polygon28" points="114.320000,35.170000 113.970000,34.530000 113.560000,35.150000 114.320000,35.170000" fill="rgb(251,252,248)" stroke="rgb(29,29,27)" stroke-width="0.100000" stroke-miterlimit="10"/><polygon id="kingdom-polygon29" points="115.230000,35.150000 114.710000,34.610000 114.320000,35.170000 115.230000,35.150000" fill="rgb(251,252,248)" stroke="rgb(29,29,27)" stroke-width="0.100000" stroke-miterlimit="10"/><polygon id="kingdom-polygon30" points="116.100000,35.110000 115.530000,34.680000 115.230000,35.150000 116.100000,35.110000" fill="rgb(251,252,248)" stroke="rgb(29,29,27)" stroke-width="0.100000" stroke-miterlimit="10"/><polygon id="kingdom-polygon31" points="116.350000,34.570000 116.510000,35.090000 116.100000,35.110000 116.350000,34.570000" fill="rgb(251,252,248)" stroke="rgb(29,29,27)" stroke-width="0.100000" stroke-miterlimit="10"/><polygon id="kingdom-polygon32" points="112.990000,32.880000 112.930000,33.500000 112.190000,33.060000 112.990000,32.880000" fill="rgb(251,252,248)" stroke="rgb(29,29,27)" stroke-width="0.100000" stroke-miterlimit="10"/><polygon id="kingdom-polygon33" points="111.480000,33.230000 112.230000,33.710000 112.470000,33 111.480000,33.230000" fill="rgb(251,252,248)" stroke="rgb(29,29,27)" stroke-width="0.100000" stroke-miterlimit="10"/><polygon id="kingdom-polygon34" points="113.600000,32.520000 113.690000,33.090000 112.990000,32.880000 113.600000,32.520000" fill="rgb(251,252,248)" stroke="rgb(29,29,27)" stroke-width="0.100000" stroke-miterlimit="10"/><polygon id="kingdom-polygon35" points="113.940000,32.170000 114.160000,32.650000 113.600000,32.520000 113.940000,32.170000" fill="rgb(251,252,248)" stroke="rgb(29,29,27)" stroke-width="0.100000" stroke-miterlimit="10"/><polygon id="kingdom-polygon36" points="114,32.080000 114.510000,32.130000 114.420000,31.700000 114.170000,31.730000 114,32.080000" fill="rgb(251,252,248)" stroke="rgb(29,29,27)" stroke-width="0.100000" stroke-miterlimit="10"/><polygon id="kingdom-polygon37" points="115.010000,31.590000 114.880000,31.990000 114.420000,31.700000 115.010000,31.590000" fill="rgb(251,252,248)" stroke="rgb(29,29,27)" stroke-width="0.100000" stroke-miterlimit="10"/><polygon id="kingdom-polygon38" points="115.670000,31.400000 115.590000,31.940000 115.010000,31.590000 115.670000,31.400000" fill="rgb(251,252,248)" stroke="rgb(29,29,27)" stroke-width="0.100000" stroke-miterlimit="10"/><polygon id="kingdom-polygon39" points="116.240000,31.800000 116.430000,31.160000 115.670000,31.400000 116.240000,31.800000" fill="rgb(251,252,248)" stroke="rgb(29,29,27)" stroke-width="0.100000" stroke-miterlimit="10"/><polygon id="kingdom-polygon40" points="116.720000,35.880000 116.510000,35.090000 116.710000,35.490000 116.720000,35.880000" fill="rgb(251,252,248)" stroke="rgb(29,29,27)" stroke-width="0.040000" stroke-miterlimit="10"/><polygon id="kingdom-polygon41" points="115.960000,36.040000 116.120000,35.440000 116.720000,35.880000 115.960000,36.040000" fill="rgb(251,252,248)" stroke="rgb(29,29,27)" stroke-width="0.100000" stroke-miterlimit="10"/><path id="kingdom-path129" d="M115.280000,35.900000L115.590000,35.530000L116,36C115.755953,36.058165,115.498959,36.022471,115.280000,35.900000Z" fill="rgb(251,252,248)" stroke="rgb(29,29,27)" stroke-width="0.100000" stroke-miterlimit="10"/><polygon id="kingdom-polygon42" points="114.420000,36 114.800000,35.520000 115.280000,35.900000 114.420000,36" fill="rgb(251,252,248)" stroke="rgb(29,29,27)" stroke-width="0.100000" stroke-miterlimit="10"/><polygon id="kingdom-polygon43" points="113.690000,36.180000 114.060000,35.520000 114.420000,36 113.690000,36.180000" fill="rgb(251,252,248)" stroke="rgb(29,29,27)" stroke-width="0.100000" stroke-miterlimit="10"/><polygon id="kingdom-polygon44" points="112.990000,36.230000 113.410000,35.750000 113.690000,36.180000 113.150000,36.330000 112.990000,36.230000" fill="rgb(251,252,248)" stroke="rgb(29,29,27)" stroke-width="0.100000" stroke-miterlimit="10"/><polygon id="kingdom-polygon45" points="112.220000,36.090000 112.950000,35.700000 112.990000,36.230000 112.220000,36.090000" fill="rgb(251,252,248)" stroke="rgb(29,29,27)" stroke-width="0.100000" stroke-miterlimit="10"/><polygon id="kingdom-polygon46" points="111.450000,35.960000 112,35.520000 112.310000,36.100000 111.830000,36.080000 111.450000,35.960000" fill="rgb(251,252,248)" stroke="rgb(29,29,27)" stroke-width="0.100000" stroke-miterlimit="10"/><polygon id="kingdom-polygon47" points="110.990000,35.820000 111.420000,35.410000 111.450000,35.960000 110.990000,35.820000" fill="rgb(251,252,248)" stroke="rgb(29,29,27)" stroke-width="0.100000" stroke-miterlimit="10"/><polyline id="kingdom-polyline2" points="99.840000,65.890000 97.970000,76.190000 99.840000,77.380000" fill="none" stroke="rgb(84,24,4)" stroke-width="0.570000" stroke-miterlimit="10"/><path id="kingdom-path130" d="M178,319.100000L177.140000,326.950000C177.140000,326.950000,173.060000,336.040000,172.500000,338.450000C171.940000,340.860000,175.650000,340.450000,175.650000,340.450000C175.650000,340.450000,183.820000,332.850000,185.490000,327.280000C185.966738,324.979185,186.114879,322.622402,185.930000,320.280000C183.233572,320.437845,180.533648,320.036091,178,319.100000Z" fill="rgb(131,61,19)" stroke="none" stroke-width="1"/></g></g></g></g></g></svg>