<svg xmlns="http://www.w3.org/2000/svg" viewBox="0 0 1687.5 874"><defs><style>.cls-1,.cls-17{fill:#d9dbcd;}.cls-1{opacity:0.2;}.cls-2{fill:#723808;stroke:#3f2006;}.cls-10,.cls-11,.cls-12,.cls-14,.cls-15,.cls-16,.cls-17,.cls-18,.cls-19,.cls-2,.cls-20,.cls-21,.cls-22,.cls-23,.cls-24,.cls-25,.cls-26,.cls-27,.cls-28,.cls-29,.cls-3,.cls-30,.cls-31,.cls-32,.cls-33,.cls-34,.cls-35,.cls-37,.cls-4,.cls-5,.cls-6,.cls-7,.cls-8,.cls-9{stroke-miterlimit:10;}.cls-2,.cls-3,.cls-4,.cls-5,.cls-6{stroke-width:0.83px;}.cls-3{fill:#a1b7e2;}.cls-10,.cls-11,.cls-12,.cls-14,.cls-15,.cls-16,.cls-17,.cls-18,.cls-19,.cls-20,.cls-21,.cls-22,.cls-23,.cls-24,.cls-25,.cls-26,.cls-27,.cls-28,.cls-29,.cls-3,.cls-30,.cls-31,.cls-32,.cls-33,.cls-34,.cls-35,.cls-37,.cls-5,.cls-6,.cls-7,.cls-8,.cls-9{stroke:#000;}.cls-4{fill:#844308;stroke:#542a09;}.cls-5{fill:#b8c9f4;}.cls-10,.cls-11,.cls-12,.cls-18,.cls-34,.cls-6,.cls-7,.cls-8,.cls-9{fill:#fff;}.cls-7{stroke-width:0.67px;}.cls-8{stroke-width:0.65px;}.cls-9{stroke-width:0.52px;}.cls-10{stroke-width:0.5px;}.cls-11{stroke-width:0.63px;}.cls-12{stroke-width:0.61px;}.cls-13{opacity:0.15;}.cls-14,.cls-23,.cls-33{fill:#ffdaca;}.cls-14,.cls-15,.cls-17,.cls-18,.cls-22{stroke-width:1.87px;}.cls-15,.cls-19,.cls-24,.cls-25,.cls-28,.cls-32,.cls-37{fill:#d1d8c8;}.cls-16,.cls-26,.cls-27{fill:#959492;}.cls-16,.cls-19,.cls-21{stroke-width:1.12px;}.cls-20,.cls-21,.cls-29,.cls-30,.cls-31{fill:#fceac2;}.cls-20{stroke-width:0.37px;}.cls-22,.cls-35{fill:none;}.cls-23,.cls-24,.cls-34,.cls-35{stroke-width:1.54px;}.cls-25{stroke-width:1.76px;}.cls-26,.cls-28{stroke-width:1.01px;}.cls-27{stroke-width:1.15px;}.cls-29{stroke-width:1.11px;}.cls-30{stroke-width:1.01px;}.cls-31{stroke-width:0.34px;}.cls-32{stroke-width:1.69px;}.cls-33{stroke-width:1.6px;}.cls-36{fill:#4e4037;}.cls-37{stroke-width:1.99px;}</style></defs><g id="Calque_2" data-name="Calque 2"><g id="Calque_1-2" data-name="Calque 1"><polygon class="cls-1" points="1627.16 874 0 874 67.63 296 1687.5 287 1627.16 874"/><path id="left_feet" class="cls-2" d="M300.34,406.77l20.26,116s6.6,28.9,10.73,34.68,26.43,75.16,31.38,99.93,24,61.94,24,61.94,1.66,6.61,13.22,6.61h53.55s10.6,6.24,0,13l-10.61,6.79-53.68,26.43h-23s-10-19.82-7.55-27.26-53.71-108-58.24-140.7S281,557.48,281,557.48l-57.81-89.19-4.4-61.52S263.58,325.42,300.34,406.77Z"/><polygon class="cls-3" points="344.55 537.66 238.84 556.66 226.44 394.16 298.34 385.85 344.55 537.66"/><path class="cls-2" d="M140.56,313l57.89-116,20.29-5.18,12.66,47.71L218.74,281l-17.07,14.68s-25.6,18.17-25.6,26.43,5.78,57,5.78,57,6.72,52.61,5,55.62S173.59,466.64,162,466.64s-4.95-40.47-4.95-40.47.82-33.86-1.66-42.11-18.16-58.64-18.16-61.12S140.56,313,140.56,313Z"/><path class="cls-4" d="M300.34,406.77V282.91s5.39-67.33-11.13-88.8-21.47-22.3-21.47-22.3l-4.13-21.47s49.14-21.81,18.79-84.4-75.77,5.12-75.77,5.12,0,44.59,7.43,57.81,7.43,44.59,7.43,44.59-25.6,21.48-28.08,33,2.48,104.06,2.48,104.06S217.36,423.7,214.06,430.3,295,419.57,295,419.57Z"/><path id="right_foot" class="cls-4" d="M214.47,410.07s29.32-79.69,86.3-22.71c0,0,5,29.73-9.91,57S207,576.07,207,576.07s-14.86,34.68-25.6,51.2-41.29,66.89-41.29,66.89-16.11,31-10.33,42.53,10.74,28.08,19,32.21,16.52,8.26,17.34,13.22-1.65,12.38-1.65,12.38H126.39L91.83,758.17s-15.69-10.74-7.43-28.08,59.46-128,59.46-128,17.35-28.08,20.65-38.81S214.47,410.07,214.47,410.07Z"/><path class="cls-5" d="M255.67,333.68l62.86,45.43s-14,34-17.58,41.78-41.13,144.79-41.13,144.79l-99.53-40.23,50-107.52s-9.71-23.58-1.44-43.22l8.26-19.63Z"/><path class="cls-6" d="M213.23,179.24s46.08,12,53.51,6.67,6.2-9.42,6.2-9.42,23.33,11.77,31.28,34.37,7.92,38.14,5,50.61S298.84,306,303.91,321s-8.47,13.72,4.13,38.82C345.41,434.29,352.58,444.69,351,449c-3,8-153.61,18.67-164.34,16.51s-11.7-43.77-5.78-51.2,16.51-95.8,16.51-95.8-2.3-21.19-3.13-34.4c-.89-14.31-4.13-17.35-5.32-28.35-1.6-14.83-.57-36.57,4.49-49.28S213.23,179.24,213.23,179.24Z"/><path class="cls-4" d="M257,204s-14.32,17-10.05,50.23S279.3,360.93,279.3,360.93s47.08,63.59,48.73,67.72,0,40.47,5,44.6,14.87,26.43,19.82,16.51,5.78-61.11,5.78-61.11-57.84-105-58.24-111.15-24.55-84.21-24-96.78S259.48,200.72,257,204Z"/><path class="cls-2" d="M538.44,181.06s-19.64,32.87-24.6,43.61-23.12,63.59-12.38,87.54,48.12,79.68,48.12,79.68V286.48Z"/><path class="cls-4" d="M552.66,147.86s6.61-18.76,0-28.79-37.16-81,0-94.25,63.59,9.9,64.42,20.64,9.91,49.09,0,57.16-19.82,15.51-19.82,15.51l1.65,25.6S627,180.9,627,210.63s4.13,73.73,0,86.83-14.87,76.69-10.74,82.47-6-12.85-12.91-9.32-18.47,7.66-33.34,9.32-32.21-13.22-32.21-13.22-18.16-170.12-8.25-189.12A102.6,102.6,0,0,1,552.66,147.86Z"/><path class="cls-2" d="M560.09,395.62l-7.43,10.73s5,98.44,7.43,107.44,8.84,48.76,2.77,66.87-12,59.65-12,59.65l-5.61,90.6s-8.68,46.22-6.41,47.89,105.51,5,105.51,5,11.56-14.87-6.61-19.82-44.52-18.64-44.52-18.64S584,740,585.69,726s9.91-70.2,15.7-82.59,12.08-53.68,12.08-53.68,1.13-47.9,1.13-63.59S625.33,446,617.9,413,560.09,395.62,560.09,395.62Z"/><path class="cls-4" d="M571.65,337s-43.77,10.74-32.2,45.42S589,492.24,589,492.24s22.3,41.3,22.3,44.6-.83,13.77-9.09,20.64S551,671.72,537.5,674.47c-5.49,1.11-26.13,25.06-26.13,25.06s-12.39,17.71,0,27.44,66.89,47.71,66.89,47.71,20.5-4.95,14.87-18.16-32.72-52.32-32.72-52.32l7.94-10.45S648,579.89,647,580.66s15.51-24.83,5.6-71.07-24-133.79-26.43-132.14S614,337,604,337Z"/><polygon class="cls-3" points="623.68 555.83 534.87 540.99 573.68 390.69 643.47 409.87 623.68 555.83"/><path class="cls-5" d="M552.39,359.32l77.54,1.85s7.64,35.94,9.16,44.38,48.09,142.63,48.09,142.63l-104.82,23.2L562.71,454.44s-21.36-13.94-25.66-34.81l-4.31-20.86Z"/><path class="cls-6" d="M549.19,148s35.51,14.73,42.94,9.43,6.19-9.43,6.19-9.43,23.33,11.77,31.28,34.38,14.3,40.54,11.43,53-11.67,31.26-6.61,46.25-13.59,24.61-1,49.71c37.38,74.46,57.93,127.65,56.33,132-3,8-158.56,31.06-169.3,28.9s-20.12-98.94-14.21-106.37,16.52-95.8,16.52-95.8,6.59-23.61-2.31-34.85,0-13.21-6.14-27.91c-5.75-13.75,2.46-31.57,7.52-44.28S549.19,148,549.19,148Z"/><path class="cls-4" d="M565.05,187.5s28.9-23.12,38-8.26,3.3,109.84,3.3,109.84,4.13,24.78,9.08,33,30.56,76,30.56,76,7.52,14.4,9.13,29.08-4.17,46.89-10.78,53.5-15.69-3.3-14.87-17.34c0,0,.83-33-2.47-41.29s-43-75.16-43-75.16-17.15-32.46-15.59-39.77l1.55-7.3Z"/><path class="cls-2" d="M776,778.8h42.38s12.22-11.74,0-15.77-32.87-35.42-32-47.81,70.19-139.57,81.76-170.12,40.46-89.19,40.46-89.19-.82-46.25-21.47-46.25a29.06,29.06,0,0,1-27.25-17.35L822.71,535.19s-5,24.77-18.17,44.59-40.46,104.06-44.59,114-24.78,19.82-23.12,28.91S776,778.8,776,778.8Z"/><path class="cls-2" d="M932.55,215.58s18.17,6.61,18.17,19.82,10.74,49.55,17.34,61.12,56.16,95,56.16,95,24.78,51.2,9.09,63.59-32.21-13.21-34.69-23.95-.83-33.86-.83-33.86l-84.23-85.89,16.19-95.8Z"/><path class="cls-4" d="M843.36,227.14s-2.48-57.81,16.52-64.41,14-35.51,14-35.51S831,57,883.83,28.94s71,70.2,59.46,84.24-29.73,21.07-29.73,21.07v19.61s42.12,21.26,41.29,65.85-16.52,109-17.34,126.36.34,44.34,2.23,47.77-60.87,26.55-60.87,26.55l-24.52-24.25s11.31-52.55,3-78.15S843.36,227.14,843.36,227.14Z"/><path class="cls-4" d="M869.79,364.24s45.54-29.74,58.69,0,42.89,126.35,45.36,143.69,17.35,71,20.65,80.11,36.34,130.49,36.34,130.49,1.65,19,18.17,16.51,61.88-1.2,63.56.23,14.89,8-4.1,17.12-68.64,26.41-68.64,26.41c-2.38,2.49-31.29,3.32-34.59-10.72s3.3-20.65-1.65-33.86S958.15,659.06,954,632.64s-4.13-44.6-11.56-57.81-63.59-133-63.59-133-33-20.65-28.08-43.77S869.79,364.24,869.79,364.24Z"/><polygon class="cls-3" points="898.69 556.66 811.15 531.06 849.97 380.75 919.75 399.93 898.69 556.66"/><path class="cls-5" d="M860.33,348l77.41-4.89s10.74,35.15,13,43.42S1011,524.45,1011,524.45L908.6,556.66,878.87,441.87s-22.48-12-28.58-32.45L844.19,389Z"/><path class="cls-6" d="M870.61,153.64s35.51,14.73,42.95,9.43,5.78-6.12,5.78-6.12S943.08,165.42,951,188s7.93,38.14,5.05,50.61-10.42,44.54-5.36,59.54-8.47,13.72,4.13,38.81c37.37,74.46,44.54,84.86,42.94,89.19-2.94,8-153.6,18.67-164.34,16.52s-11.69-43.77-5.78-51.2,16.52-95.8,16.52-95.8-.19-25.92-9.09-37.16-.39-10.72.63-25.6-.73-36,4.33-48.73S870.61,153.64,870.61,153.64Z"/><path class="cls-4" d="M834.6,229.59s23.31-50,32.14-55.53,32.78-8,27.82,19.22-14,40.47-23.12,53.68-25.6,32.21-26.43,48.73,2.48,146.18,2.48,146.18-4.13,24.77-19,36.33-28.14,13.23-21.09-15.68,10.36-39.65,10.36-39.65-6.61-51.2-9.91-67.72,0-61.11,8.26-78.45S834.6,229.59,834.6,229.59Z"/><path class="cls-2" d="M1289.32,292.39l45.42,69.37s9.91,9.08,9.91,28.08,3.31,47.9-9.91,45.42-15.69-5.78-20.64-19-4.13-38-4.13-38L1282.71,356Z"/><path class="cls-2" d="M1282.71,379.35s17.37,43.33,24.79,72.74,9.9,51.71,9.9,83.92-3.3,45.61-17.34,64.1-28.08,29.22-39.64,52.35-18.17,33-19.82,47.07-4.13,25.86,0,31.51-4.13,12.26-5.79,16.39-15.65,1.65-23.93,0-28.09-7.43-29.75-16.52-6.6-15.69,4.13-26.42,46.25-60.29,46.25-60.29,28.08-118.1,27.25-114S1248,463.48,1248,463.48V415.41l32.27-36.31Z"/><path class="cls-4" d="M1229,146.21v-20.5s-48.18-93.59,4-101.79,81.9,48.79,60.43,73.57-24.78,23.12-24.78,23.12V138s39.64,18.17,38.82,58.64-12.39,187.47-12.39,187.47l-90,2.47L1200.13,280l9.08-80.94Z"/><polygon class="cls-3" points="1344.97 548.53 1253.88 553.15 1241.08 398.45 1313.29 393.6 1344.97 548.53"/><path class="cls-4" d="M1214.17,413s-18.17-40.47-9.09-56.16,19.82-28.9,38.82-28.08,37.16.83,42.94,14.87,10.94,16.48,7.54,27.23-11.67,144.55-11.67,144.55-.82,66.89-6.6,92.49-14.87,85.89-18.17,100.76-12.39,30.55,3.3,37.16,52.86,24.77,52.86,24.77,6.17,8.65-5.18,9.7-94.24-1.45-94.24-1.45-4.64-16.5-2.16-27.24,13.49-147,14.17-157.33,8.12-51.61,1.52-85.47S1214.17,413,1214.17,413Z"/><path class="cls-5" d="M1219.3,336.17l76.2,14.51s1.65,36.72,1.77,45.29,24.1,148.58,24.1,148.58l-118.76,6.33-2.48-130.49s-5-5.94-5.83-27.23l-.83-21.28Z"/><path class="cls-6" d="M1227.47,141.62s36.77,16.15,43,9.42c9-9.78,6.51-8.13,6.51-8.13s23,10.48,31,33.09,7.93,38.13,5,50.6-5.27,43.72-5.36,59.54c-.09,16.16-8.46,13.72,4.13,38.82,37.37,74.46,44.54,84.86,43,89.19-3,8-153.61,18.67-164.35,16.52s-7.89-41.95-5.78-51.21c4-17.7,16.52-95.8,16.52-95.8s-4.17-22.46-5.88-36.7c-2.47-20.64-3.59-11.18-2.58-26.05s-.73-36,4.33-48.74S1227.47,141.62,1227.47,141.62Z"/><path class="cls-4" d="M1228.21,153.64s28.9-.82,22.3,31.39-20.65,87.68-22.3,99.58,3.3,36.68,7.43,47.42,19.82,63.59,23.95,72.67,9.91,20.81,0,39.31-19.82,29.24-27.25,27.59-15.69.82-9.91-24,13.21-33.86,9.91-41.3-9.91-32.2-14.87-35.51S1196,334.5,1191,321.29s.83-71,5.78-99.1,6.61-55.33,13.22-61.11S1228.21,153.64,1228.21,153.64Z"/><path d="M935,68.58c4.63-3.94,8.51-.9,12.39-4.13,5.26-4.39,3.52-14.52,2.47-20.65-1.14-6.66-2.41-14.11-8.25-18.16-4.28-3-6.31-.85-15.69-4.13-8.51-3-8.15-5.17-13.22-5.78-7.46-.9-8.78,3.79-19,4.95-9.42,1.07-11.57-2.56-16.52,0-4,2-3.6,4.88-9.91,15.69-4.2,7.2-6.87,11.7-11.56,15.69-6,5.08-10.29,5.18-14,7.44-13.37,8-10.78,34.27-9.54,43.22a8,8,0,0,0,.45,3c1.61,3.46,6.23,3,9.09,5,5,3.49.81,12,3.3,21.47,2.89,11,14.23,21.33,25.6,21.47,7.3.09,12.82-4,17.35-7.43a47.73,47.73,0,0,0,14.86-19c6.25-14.53,1.9-24.28,9.09-35.52a27,27,0,0,1,7.43-8.25c4.14-2.92,5.88-2.13,9.08-5C932.74,74.68,931.28,71.77,935,68.58Z"/><path d="M622.44,50.82c4.13,14-.82,31.39-12.38,32.21-12.73.91-7.49,3.24-8.67,37.58-.31,8.71-.69,19.87-8.26,25.6-12.07,9.13-35.29-.92-47.9-11.56-18.33-15.48-25.09-40.58-22.3-61.94,2.55-19.53,15.18-52.27,42.12-56.16C594.15,12.35,620.09,42.82,622.44,50.82Z"/><path d="M245.86,174.7c-15.33,3-16.05,13.05-28.91,13.22-6.13.08-5.39-2.21-21.47-7.44-16.9-5.48-20.58-3.88-27.25-9.08-1.73-1.34-9.55-7.44-11.57-17.34-2.9-14.31,9.53-20.8,5.78-33-2.59-8.48-9.39-8.07-10.73-16.52-.29-1.84-.47-5,7.43-21.47,5.09-10.58,7.63-15.87,10.74-19.82s9.31-11.65,19.82-16.51c9.22-4.28,11.27-1.49,17.34-5.79,8.42-5.95,6.17-12.51,14-17.34,6.13-3.76,12.93-3.12,19.82-2.48,7.45.7,12.56,2.82,21.47,6.61C275.32,33.2,281.8,36,285.5,40.09c7.31,8.17,11.39,21.73,6.6,33-.91,2.16.64,20.1-6.6,22.3-7,2.12-3.67,8.17-13.22,9.08-6.09.59-10.45-6.13-12.38,0-1.77,5.6-14.9,2.4-9.92,4.13,19,6.61,18.25,11.46,22.3,22.3,1.17,3.13.08,2.33,1.65,8.26,3.4,12.79,8.32,15.95,7.44,22.3-.85,6.09-6.32,9.95-7.44,10.73C265.58,178.12,259,172.12,245.86,174.7Z"/><path class="cls-7" d="M293.85,73.72c-9.58,22-55.44,21.84-102.44,21.65-9.42,0-19.85-.51-28.32-6.53C150.25,79.73,146.56,63,151.46,51.16c1.23-3,2.7-8.11,4.29-4.24,1.12,2.74,16,2.94,29.49-1.52,12.91-4.26,36.7-2.53,50.94-2,15.55.63,28.85-21.11,40.38-12.89C291.3,41.06,300.21,59.07,293.85,73.72Z"/><ellipse class="cls-8" cx="213.13" cy="36.79" rx="61.69" ry="12.39" transform="translate(-3.1 41.26) rotate(-10.98)"/><path class="cls-9" d="M623.5,58.13c-10,15.71-45,10.1-80.93,4.35-7.2-1.15-15.12-2.76-20.88-8.37-8.73-8.5-9.57-21.73-4.41-30.2,1.3-2.13,3-5.89,3.79-2.73.53,2.23,11.9,4.15,22.74,2.35C554.19,21.81,572.17,26,583,28.1c11.82,2.33,24.58-12.71,32.42-5.05C625.44,32.85,630.11,47.68,623.5,58.13Z"/><ellipse class="cls-10" cx="565.34" cy="21.09" rx="47.75" ry="9.59" transform="translate(-0.39 20.95) rotate(-2.12)"/><path class="cls-11" d="M955.52,53.11c-4.91,22.14-47.45,30.21-91,38.48-8.74,1.66-18.5,3.1-27.43-1-13.54-6.14-20-21-17.56-32.82.61-3,1-8,3.22-4.71,1.54,2.34,15.37-.16,27.06-6.71,11.2-6.27,33.55-8.94,46.86-11,14.53-2.22,23-24.76,35.1-19.21C947.28,23.3,958.79,38.38,955.52,53.11Z"/><ellipse class="cls-12" cx="874.07" cy="33.39" rx="58.24" ry="11.7" transform="translate(50.92 329.25) rotate(-21.96)"/><path d="M1299.64,68.17c-5.57,6.33-8.36,9.49-9.08,9.91-8.75,5-16.6-5.78-26.43-1.65-4.69,2-7.53,6.54-13.21,15.69-3.82,6.15-4.2,8.72-8.26,12.38-3.51,3.17-7,4.67-11.56,6.61-6.36,2.72-9.54,4.07-13.22,3.31-3.87-.82-6-3.51-9.91-8.26-16-19.51-16.33-18.2-17.34-21.48-1.62-5.23.34-4.78,0-24-.19-11-.84-11.21,0-14,.58-1.94,2.67-7.84,20.65-19,11.75-7.29,17.63-10.94,27.25-13.21a60.87,60.87,0,0,1,26.43-.83c4.28.84,25.82,5.08,28.9,17.34,1.71,6.79-3.69,10.25-.82,16.52,3.22,7.06,12.18,7.31,12.38,12.39C1305.48,61.19,1304.94,62.15,1299.64,68.17Z"/><path class="cls-11" d="M1309.1,44.36c-4.91,22.15-47.45,30.22-91,38.49-8.74,1.65-18.5,3.09-27.43-1-13.54-6.14-20-21-17.55-32.83.6-3,1-8,3.21-4.7,1.54,2.33,15.37-.16,27.06-6.71,11.2-6.28,33.56-8.95,46.86-11,14.53-2.22,23-24.75,35.11-19.21C1300.87,14.55,1312.37,29.64,1309.1,44.36Z"/><ellipse class="cls-12" cx="1227.66" cy="24.64" rx="58.24" ry="11.7" transform="translate(79.84 460.83) rotate(-21.96)"/><ellipse class="cls-13" cx="1504.86" cy="387.19" rx="55.81" ry="10.27"/><polygon class="cls-14" points="1528.65 381.61 1526.88 373.38 1533.23 371.14 1534.72 380.47 1528.65 381.61"/><polygon class="cls-14" points="1472.06 372.55 1472.57 380.65 1478.91 381.4 1478.17 370.58 1472.06 369.29 1472.06 372.55"/><path class="cls-15" d="M1467.71,369.08s13.44,6.35,14.94,1.87,6.71-34.34,10.45-36.58-19-6-19-6S1465.47,365.35,1467.71,369.08Z"/><path class="cls-15" d="M1518.48,335.49s-1.49,37.33,2.61,39.94,16.8,1.12,16.06-3.73-6.77-29.12-3.2-36.21S1518.48,335.49,1518.48,335.49Z"/><path class="cls-15" d="M1462.86,327.27s5.6-56.74,18.29-71.67,59.41,0,59.41,0,3.68,7.47,4,12,4.11,62.17,0,65.61S1475.93,345.94,1462.86,327.27Z"/><polygon class="cls-16" points="1493.84 275.01 1512.13 263.82 1492.72 258.22 1493.84 275.01"/><polygon class="cls-16" points="1531.17 263.44 1524.45 276.51 1507.47 264.07 1531.17 263.44"/><path class="cls-14" d="M1553.94,210.6s12-5.53,13.44,2.55-5.6,17.44-9,17.44S1553.94,210.6,1553.94,210.6Z"/><path class="cls-14" d="M1484.14,201.56s-13.81-5.27-14.93,2.43-.38,10.94,5.22,15S1484.14,201.56,1484.14,201.56Z"/><path class="cls-14" d="M1483.58,255.42s-39,40.92-39.13,43.6a19.72,19.72,0,0,1-.1,2.11s6.85,9.72-8.76,15.14c0,0-10.89-5.35.87-18.89l4.32-2s21.13-44.54,35.48-46.26S1483.58,255.42,1483.58,255.42Z"/><path class="cls-14" d="M1541.81,264s31.73,43.3,31.73,45.92V312s-7.09,9.15,7.84,15.12c0,0,10.83-4.71,0-18.41l-4.11-2.12s-17.1-49.2-31-51.52S1541.81,264,1541.81,264Z"/><path class="cls-14" d="M1488.62,195.13s-49.65,64.21,22,70.55,40.69-64.58,40.69-64.58Z"/><path class="cls-17" d="M1465.1,229s6-30.63,9.6-34.62,4.4-1.78,4.4-1.78l-1.2,4.44s-9,30.19-8.88,32S1465.1,229,1465.1,229Z"/><path class="cls-17" d="M1561.6,203V245.6c0,.56,4.39,1.42,4.39,1.42s1.32-42,0-43.4S1561.6,203,1561.6,203Z"/><path d="M1531.73,379s-8.58-1.5-6.34,11.19c0,0,11.85,3.36,13.39,0S1541.44,379.72,1531.73,379Z"/><ellipse class="cls-18" cx="1535.65" cy="215.29" rx="10.83" ry="12.69"/><ellipse class="cls-18" cx="1498.88" cy="211.74" rx="11.2" ry="12.69"/><path class="cls-17" d="M1564.89,207.6c6.68.23-2-41.21-43.8-50.92s-49.64,41.06-49.64,41.06S1558.3,207.38,1564.89,207.6Z"/><polygon class="cls-19" points="1484.51 302.26 1475.93 295.55 1477.42 285.29 1495.34 287.33 1493.84 297.41 1484.51 302.26"/><path class="cls-20" d="M1477.42,284.72v3.49s14.57,3.23,16.25,2.3a3.91,3.91,0,0,0,1.67-3.18S1478.17,285.84,1477.42,284.72Z"/><path class="cls-21" d="M1496.46,318.32V322s-31.8-5.71-31.77-9.37.59-4,.59-4S1495,321.3,1496.46,318.32Z"/><path class="cls-21" d="M1511,320.18s34-1.12,34.71-3.36.72,3.36.72,3.36-35.06,5.09-35.43,3.1A6.61,6.61,0,0,1,1511,320.18Z"/><polygon class="cls-19" points="1527.47 305.98 1518.33 300.05 1518.91 289.69 1536.94 290.15 1536.34 300.33 1527.47 305.98"/><path class="cls-20" d="M1518.86,289.13l.31,3.48s14.8,1.93,16.38.85a3.87,3.87,0,0,0,1.39-3.31S1519.7,290.18,1518.86,289.13Z"/><path d="M1467.34,374.75s-7.09,2.86-4.48,10.54c0,0,15.68,4.32,16.43,1S1481.9,375.56,1467.34,374.75Z"/><path class="cls-15" d="M1462.86,315.35l-3.92-1.33s-.19-10.53,2-13.1,5.73-.44,5.73-.44l-2.32,14.87Z"/><path class="cls-15" d="M1547.69,322.81l4.11-.52s2.26-10.29.67-13.23-5.52-1.57-5.52-1.57l-.68,15Z"/><ellipse cx="1493.66" cy="207.64" rx="2.99" ry="3.73"/><ellipse cx="1529.12" cy="211.74" rx="2.99" ry="3.73"/><path class="cls-22" d="M1521.69,227.87s-11.42-9.6-14.22,0c-2.38,8.15,11.85,5.79,11.85,5.79"/><path d="M1503.92,251.87s11.57,1.12,13.81,1.87,11.2-1.5-2.61-9.34C1515.12,244.4,1499.44,242.54,1503.92,251.87Z"/><path d="M1462.55,226.53l-3,16.14,8.07,1.51,3-16.14Zm4,14.4-5-.93,1.86-10,5,.93Z"/><path d="M1494.51,324.93l17.65.81.6-8.21-17.65-.81Zm14.89-6-.42,4.68-10.87-.35.42-4.69Z"/><ellipse class="cls-13" cx="399.37" cy="393.11" rx="55.27" ry="7.9"/><polygon class="cls-23" points="406.87 375.38 403.8 386.76 409.02 384.3 412.1 376.3 407.6 375.38 406.87 375.38"/><polygon class="cls-23" points="388.73 376.92 390.88 386.14 395.8 386.14 393.34 374.46 388.73 375.51 388.73 376.92"/><polygon class="cls-24" points="370.44 337.41 386.43 379.53 397.19 375.84 395.34 339.56 370.44 337.41"/><polygon class="cls-24" points="407.02 343.56 403.03 376.46 413.17 379.53 431.31 338.64 407.02 343.56"/><path class="cls-23" d="M369.26,267.93s-22.69,33.84-23.51,39.21S388.06,272.54,369.26,267.93Z"/><path class="cls-23" d="M423.26,272.9s32.12,25.05,34.59,29.9S406.84,283.16,423.26,272.9Z"/><path class="cls-25" d="M356.63,338.83s1.84-51.52,13.29-65.85S428,268.85,428,268.85s4.08,6.47,4.73,10.48,8,55.74,4.2,59.12S370.6,354.74,356.63,338.83Z"/><polygon class="cls-26" points="386.06 289.41 401.82 278.15 383.97 274.35 386.06 289.41"/><polygon class="cls-27" points="416.32 271.28 414.81 287.58 395.99 278.04 416.32 271.28"/><polygon class="cls-28" points="379.39 314.56 371.23 309.06 371.92 299.72 388.19 300.41 387.49 309.59 379.39 314.56"/><path class="cls-29" d="M391.18,328.26l.24,3.33s-34.76-2.7-35-6,.39-3.62.39-3.62S389.76,331.06,391.18,328.26Z"/><path class="cls-30" d="M404.42,329s30.43-3.18,30.95-5.24.87,3,.87,3-31.16,6.82-31.62,5.05A6.13,6.13,0,0,1,404.42,329Z"/><polygon class="cls-28" points="418.34 315.16 409.72 310.4 409.58 301.03 425.86 300.29 425.97 309.5 418.34 315.16"/><path class="cls-31" d="M409.5,300.53l.5,3.11s13.46.79,14.82-.28a3.51,3.51,0,0,0,1-3.07S410.33,301.42,409.5,300.53Z"/><path class="cls-32" d="M355.19,327.74l-3.62-.95s-.84-9.47.93-11.93,5.13-.77,5.13-.77l-1.13,13.55Z"/><path class="cls-32" d="M439.48,329l3.66-.73s1.39-9.42-.23-12-5.08-1.06-5.08-1.06l.35,13.59Z"/><path d="M389.85,334.34l15.95-.4,0-7.44-15.95.4Zm13-6.38-.08,4.24-9.81.38.07-4.25Z"/><path class="cls-33" d="M432.43,221.31s9.79-4.94,11,2.29-4.58,15.6-7.34,15.6S432.43,221.31,432.43,221.31Z"/><path class="cls-23" d="M361.41,223.59s-11.37-4.34-12.29,2-.31,9,4.3,12.35S361.41,223.59,361.41,223.59Z"/><path class="cls-23" d="M371.36,210.44s-49.8,67.94,22.14,67.33S427,213.51,427,213.51Z"/><path class="cls-34" d="M374.51,237.67s-7.67-12.6.43-16.25,8.56-4.46,15.31,2.93S380.81,243.39,374.51,237.67Z"/><path class="cls-35" d="M401.64,236.73s-9.92-7.44-11.41,3,9.11,3.35,9.11,3.35"/><path class="cls-34" d="M403.34,231.65s-.62-13.52,12.29-12.29,6.46,19.67.93,20.29S405.18,240.26,403.34,231.65Z"/><ellipse class="cls-36" cx="396.57" cy="261.32" rx="8.3" ry="11.22"/><ellipse class="cls-36" cx="363.29" cy="255.63" rx="1.64" ry="3.79" transform="translate(-72.91 171.64) rotate(-24.23)"/><ellipse class="cls-36" cx="431.82" cy="255.54" rx="3.79" ry="1.64" transform="translate(5.94 520.86) rotate(-62.54)"/><path d="M382,393.21s-3.38-15.06,9.84-8.3l4.76.46s2.31,8.07-.77,8.72S382,393.21,382,393.21Z"/><path d="M402,393.52s.16-6.3,1.69-8.15,8.37-5.49,11-2.2,6.73,8.51,3.77,10.35S402,393.52,402,393.52Z"/><path class="cls-23" d="M376.52,245.49s-10.78,4.37-9.74,11.95-29.41,41.72-24.17,49.7,27.83-45.82,27.83-45.82S388.9,259.17,376.52,245.49Z"/><path class="cls-23" d="M416.94,250s11.42,2.17,11.89,9.8,37.05,35.12,33.48,44S426,264.35,426,264.35,407.49,265.87,416.94,250Z"/><path class="cls-25" d="M347.47,255.63h3.91s3.27-34.28,5.25-36-4.58-1-4.58-1S345.26,249.63,347.47,255.63Z"/><path class="cls-37" d="M439.07,256.85h4.48s-1.86-32-7-37.55-6.57-3-6.57-3S443.17,248.61,439.07,256.85Z"/><path d="M345.8,254.91l.91,13.49,6.74-.45-.91-13.5Zm5.84,10.74h-3l-1-8.22h3Z"/><path class="cls-25" d="M438.12,223.29c1.34-1.32,3.49-42.71-33.25-45.84S350.09,204.31,352,223.29c0,0,61.61-10.51,87.27-1.15"/><path class="cls-31" d="M371.94,300.06l.5,3.12s13.46.79,14.82-.28a3.51,3.51,0,0,0,1-3.07S372.77,301,371.94,300.06Z"/><line class="cls-25" x1="443.61" y1="181.68" x2="443.61" y2="215.75"/><line class="cls-25" x1="451.3" y1="188.61" x2="451.3" y2="223.29"/><line class="cls-25" x1="458.67" y1="180.93" x2="458.67" y2="215.75"/><ellipse class="cls-13" cx="733.54" cy="391.3" rx="55.27" ry="7.9"/><polygon class="cls-23" points="741.05 373.58 737.97 384.95 743.2 382.49 746.27 374.5 741.78 373.58 741.05 373.58"/><polygon class="cls-23" points="722.91 375.11 725.06 384.34 729.98 384.34 727.52 372.65 722.91 373.71 722.91 375.11"/><polygon class="cls-24" points="704.62 335.61 720.6 377.73 731.36 374.04 729.52 337.76 704.62 335.61"/><polygon class="cls-24" points="741.2 341.76 737.21 374.65 747.35 377.73 765.49 336.84 741.2 341.76"/><path class="cls-23" d="M703.43,266.13S680.75,300,679.92,305.34,722.24,270.74,703.43,266.13Z"/><path class="cls-23" d="M757.43,271.1s32.13,25,34.59,29.89S741,281.36,757.43,271.1Z"/><path class="cls-25" d="M690.8,337s1.85-51.51,13.3-65.85,58.09-4.12,58.09-4.12,4.07,6.47,4.73,10.48,8,55.73,4.2,59.12S704.77,352.93,690.8,337Z"/><polygon class="cls-26" points="720.23 287.61 736 276.34 718.15 272.54 720.23 287.61"/><polygon class="cls-27" points="750.5 269.47 748.99 285.78 730.17 276.24 750.5 269.47"/><polygon class="cls-28" points="713.57 312.76 705.4 307.25 706.09 297.91 722.37 298.61 721.67 307.79 713.57 312.76"/><path class="cls-29" d="M725.36,326.45l.24,3.34s-34.76-2.71-35-6,.38-3.61.38-3.61S723.94,329.26,725.36,326.45Z"/><path class="cls-30" d="M738.6,327.2S769,324,769.55,322s.87,3,.87,3-31.16,6.82-31.62,5.06A6,6,0,0,1,738.6,327.2Z"/><polygon class="cls-28" points="752.51 313.36 743.9 308.59 743.76 299.23 760.03 298.49 760.14 307.69 752.51 313.36"/><path class="cls-31" d="M743.68,298.72l.5,3.12s13.46.79,14.82-.28a3.52,3.52,0,0,0,1-3.07S744.5,299.61,743.68,298.72Z"/><path class="cls-32" d="M689.36,325.93l-3.61-.94s-.84-9.48.93-11.94,5.13-.76,5.13-.76l-1.14,13.55Z"/><path class="cls-32" d="M773.66,327.23l3.66-.74s1.39-9.41-.24-12-5.08-1.06-5.08-1.06l.36,13.59Z"/><path d="M724,332.54l16-.4,0-7.44-16,.4Zm13-6.39L737,330.4l-9.82.37.08-4.24Z"/><path class="cls-33" d="M766.61,219.51s9.79-4.95,11,2.28S773,237.4,770.28,237.4,766.61,219.51,766.61,219.51Z"/><path class="cls-23" d="M695.59,221.78s-11.38-4.34-12.3,2-.31,9,4.31,12.35S695.59,221.78,695.59,221.78Z"/><path class="cls-23" d="M705.54,208.64S655.73,276.58,727.67,276s33.52-64.25,33.52-64.25Z"/><path class="cls-34" d="M708.69,235.87s-7.68-12.6.42-16.26,8.56-4.45,15.32,2.94S715,241.58,708.69,235.87Z"/><path class="cls-35" d="M735.82,234.92s-9.92-7.44-11.42,3.05,9.12,3.35,9.12,3.35"/><path class="cls-34" d="M737.51,229.85s-.61-13.53,12.3-12.3,6.46,19.68.92,20.29S739.36,238.46,737.51,229.85Z"/><ellipse class="cls-36" cx="730.75" cy="259.52" rx="8.3" ry="11.22"/><ellipse class="cls-36" cx="697.47" cy="253.82" rx="1.64" ry="3.79" transform="translate(-42.72 308.65) rotate(-24.23)"/><ellipse class="cls-36" cx="765.99" cy="253.73" rx="3.79" ry="1.64" transform="translate(187.62 816.41) rotate(-62.54)"/><path d="M716.15,391.41s-3.39-15.07,9.83-8.3l4.77.46s2.3,8.06-.77,8.72S716.15,391.41,716.15,391.41Z"/><path d="M736.13,391.72s.15-6.31,1.69-8.15,8.36-5.49,11-2.21,6.72,8.51,3.77,10.36S736.13,391.72,736.13,391.72Z"/><path class="cls-23" d="M710.69,243.69s-10.77,4.37-9.73,11.94-29.41,41.72-24.18,49.71,27.84-45.82,27.84-45.82S723.07,257.37,710.69,243.69Z"/><path class="cls-23" d="M751.12,248.22s11.42,2.16,11.89,9.8,37,35.11,33.48,44-36.3-39.45-36.3-39.45S741.67,264.07,751.12,248.22Z"/><path class="cls-25" d="M681.65,253.82h3.9s3.28-34.27,5.25-36-4.57-1.06-4.57-1.06S679.44,247.82,681.65,253.82Z"/><path class="cls-37" d="M773.24,255.05h4.49s-1.86-32-7-37.56-6.57-3-6.57-3S777.34,246.81,773.24,255.05Z"/><path d="M680,253.1l.91,13.5,6.75-.45-.91-13.5Zm5.85,10.75h-3l-1-8.22h3Z"/><path class="cls-25" d="M772.3,221.48c1.34-1.32,3.49-42.71-33.25-45.84s-54.79,26.87-52.83,45.84c0,0,61.6-10.51,87.27-1.15"/><path class="cls-31" d="M706.12,298.26l.5,3.11s13.46.8,14.82-.27a3.53,3.53,0,0,0,1-3.07S707,299.15,706.12,298.26Z"/><line class="cls-25" x1="777.79" y1="179.88" x2="777.79" y2="213.94"/><line class="cls-25" x1="785.47" y1="186.81" x2="785.47" y2="221.48"/><line class="cls-25" x1="792.85" y1="179.12" x2="792.85" y2="213.94"/><ellipse class="cls-13" cx="1091.54" cy="383.3" rx="55.27" ry="7.9"/><polygon class="cls-23" points="1099.05 365.58 1095.97 376.95 1101.2 374.49 1104.27 366.5 1099.78 365.58 1099.05 365.58"/><polygon class="cls-23" points="1080.91 367.11 1083.06 376.34 1087.98 376.34 1085.52 364.65 1080.91 365.71 1080.91 367.11"/><polygon class="cls-24" points="1062.62 327.61 1078.6 369.73 1089.36 366.04 1087.52 329.76 1062.62 327.61"/><polygon class="cls-24" points="1099.2 333.76 1095.2 366.65 1105.35 369.73 1123.49 328.84 1099.2 333.76"/><path class="cls-23" d="M1061.43,258.13s-22.68,33.83-23.51,39.21S1080.24,262.74,1061.43,258.13Z"/><path class="cls-23" d="M1115.43,263.1s32.13,25,34.59,29.89S1099,273.36,1115.43,263.1Z"/><path class="cls-25" d="M1048.8,329s1.85-51.51,13.3-65.85,58.09-4.12,58.09-4.12,4.07,6.47,4.73,10.48,8,55.73,4.2,59.12S1062.77,344.93,1048.8,329Z"/><polygon class="cls-26" points="1078.23 279.61 1094 268.34 1076.15 264.54 1078.23 279.61"/><polygon class="cls-27" points="1108.5 261.47 1106.99 277.78 1088.17 268.24 1108.5 261.47"/><polygon class="cls-28" points="1071.57 304.76 1063.4 299.25 1064.09 289.91 1080.37 290.61 1079.67 299.79 1071.57 304.76"/><path class="cls-29" d="M1083.36,318.45l.24,3.34s-34.76-2.71-35-6,.38-3.61.38-3.61S1081.94,321.26,1083.36,318.45Z"/><path class="cls-30" d="M1096.6,319.2s30.42-3.17,31-5.24.87,3,.87,3-31.16,6.82-31.62,5.06A6,6,0,0,1,1096.6,319.2Z"/><polygon class="cls-28" points="1110.52 305.36 1101.9 300.59 1101.76 291.23 1118.03 290.49 1118.14 299.69 1110.52 305.36"/><path class="cls-31" d="M1101.68,290.72l.5,3.12s13.46.79,14.82-.28a3.52,3.52,0,0,0,1-3.07S1102.5,291.61,1101.68,290.72Z"/><path class="cls-32" d="M1047.36,317.93l-3.61-.94s-.84-9.48.93-11.94,5.13-.76,5.13-.76l-1.14,13.55Z"/><path class="cls-32" d="M1131.66,319.23l3.66-.74s1.39-9.41-.24-12-5.08-1.06-5.08-1.06l.36,13.59Z"/><path d="M1082,324.54l16-.4,0-7.44-16,.4Zm13-6.39-.08,4.25-9.82.37.08-4.24Z"/><path class="cls-33" d="M1124.61,211.51s9.79-4.95,11,2.28-4.59,15.61-7.34,15.61S1124.61,211.51,1124.61,211.51Z"/><path class="cls-23" d="M1053.59,213.78s-11.38-4.34-12.3,2-.31,9,4.31,12.35S1053.59,213.78,1053.59,213.78Z"/><path class="cls-23" d="M1063.54,200.64s-49.81,67.94,22.13,67.32,33.52-64.25,33.52-64.25Z"/><path class="cls-34" d="M1066.69,227.87s-7.68-12.6.42-16.26,8.56-4.45,15.32,2.94S1073,233.58,1066.69,227.87Z"/><path class="cls-35" d="M1093.82,226.92s-9.92-7.44-11.42,3.05,9.12,3.35,9.12,3.35"/><path class="cls-34" d="M1095.51,221.85s-.61-13.53,12.3-12.3,6.46,19.68.92,20.29S1097.36,230.46,1095.51,221.85Z"/><ellipse class="cls-36" cx="1088.75" cy="251.52" rx="8.3" ry="11.22"/><ellipse class="cls-36" cx="1055.47" cy="245.82" rx="1.64" ry="3.79" transform="translate(-7.89 454.89) rotate(-24.23)"/><ellipse class="cls-36" cx="1123.99" cy="245.73" rx="3.79" ry="1.64" transform="translate(387.63 1129.76) rotate(-62.54)"/><path d="M1074.15,383.41s-3.39-15.07,9.83-8.3l4.77.46s2.3,8.06-.77,8.72S1074.15,383.41,1074.15,383.41Z"/><path d="M1094.13,383.72s.15-6.31,1.69-8.15,8.36-5.49,11-2.21,6.72,8.51,3.77,10.36S1094.13,383.72,1094.13,383.72Z"/><path class="cls-23" d="M1068.69,235.69s-10.77,4.37-9.73,11.94-29.41,41.72-24.18,49.71,27.84-45.82,27.84-45.82S1081.07,249.37,1068.69,235.69Z"/><path class="cls-23" d="M1109.12,240.22s11.42,2.16,11.89,9.8,37,35.11,33.48,44-36.3-39.45-36.3-39.45S1099.67,256.07,1109.12,240.22Z"/><path class="cls-25" d="M1039.65,245.82h3.9s3.28-34.27,5.25-36-4.57-1.06-4.57-1.06S1037.44,239.82,1039.65,245.82Z"/><path class="cls-37" d="M1131.24,247.05h4.49s-1.86-32-7-37.56-6.57-3-6.57-3S1135.34,238.81,1131.24,247.05Z"/><path d="M1038,245.1l.91,13.5,6.75-.45-.91-13.5Zm5.85,10.75h-3l-1-8.22h3Z"/><path class="cls-25" d="M1130.3,213.48c1.34-1.32,3.49-42.71-33.25-45.84s-54.79,26.87-52.83,45.84c0,0,61.6-10.51,87.27-1.15"/><path class="cls-31" d="M1064.12,290.26l.5,3.11s13.46.8,14.82-.27a3.53,3.53,0,0,0,1-3.07S1065,291.15,1064.12,290.26Z"/><line class="cls-25" x1="1135.79" y1="171.88" x2="1135.79" y2="205.94"/><line class="cls-25" x1="1143.47" y1="178.81" x2="1143.47" y2="213.48"/><line class="cls-25" x1="1150.85" y1="171.12" x2="1150.85" y2="205.94"/></g></g></svg>