<svg xmlns="http://www.w3.org/2000/svg" viewBox="0 0 2193.55 825.46"><defs><style>.cls-1{fill:#898585;opacity:0.15;}.cls-2{fill:#723808;stroke:#3f2006;}.cls-10,.cls-11,.cls-12,.cls-13,.cls-14,.cls-15,.cls-16,.cls-17,.cls-18,.cls-19,.cls-2,.cls-20,.cls-21,.cls-3,.cls-4,.cls-5,.cls-6,.cls-7,.cls-8,.cls-9{stroke-miterlimit:10;}.cls-2,.cls-3,.cls-4,.cls-5,.cls-6{stroke-width:0.83px;}.cls-3{fill:#a1b7e2;}.cls-10,.cls-11,.cls-12,.cls-13,.cls-14,.cls-15,.cls-16,.cls-17,.cls-18,.cls-19,.cls-20,.cls-21,.cls-3,.cls-5,.cls-6,.cls-7,.cls-8,.cls-9{stroke:#000;}.cls-4{fill:#844308;stroke:#542a09;}.cls-5{fill:#b8c9f4;}.cls-10,.cls-11,.cls-12,.cls-17,.cls-6,.cls-7,.cls-8,.cls-9{fill:#fff;}.cls-7{stroke-width:0.67px;}.cls-8{stroke-width:0.65px;}.cls-9{stroke-width:0.52px;}.cls-10{stroke-width:0.5px;}.cls-11{stroke-width:0.63px;}.cls-12{stroke-width:0.61px;}.cls-13{fill:#ffdaca;}.cls-13,.cls-14,.cls-16,.cls-17,.cls-21{stroke-width:2.72px;}.cls-14,.cls-18{fill:#d1d8c8;}.cls-15{fill:#959492;}.cls-15,.cls-18,.cls-20{stroke-width:1.63px;}.cls-16{fill:#d9dbcd;}.cls-19,.cls-20{fill:#fceac2;}.cls-19{stroke-width:0.54px;}.cls-21{fill:none;}</style></defs><g id="Calque_2" data-name="Calque 2"><g id="Calque_1-2" data-name="Calque 1"><ellipse class="cls-1" cx="696" cy="766.46" rx="176" ry="59"/><ellipse class="cls-1" cx="222.5" cy="730.96" rx="222.5" ry="68.5"/><ellipse class="cls-1" cx="1189.5" cy="750.96" rx="217.5" ry="73.5"/><ellipse class="cls-1" cx="1672" cy="749.96" rx="188" ry="63.5"/><path id="left_feet" class="cls-2" d="M254.34,387.22l20.26,116s6.6,28.91,10.73,34.69,26.43,75.15,31.38,99.92,24,61.94,24,61.94,1.66,6.61,13.22,6.61h53.55s10.6,6.24,0,13l-10.61,6.79-53.68,26.43h-23s-10-19.82-7.55-27.25-53.71-108-58.24-140.71S235,537.94,235,537.94l-57.81-89.2-4.4-61.52S217.58,305.87,254.34,387.22Z"/><polygon class="cls-3" points="298.55 518.12 192.84 537.11 180.44 374.61 252.34 366.31 298.55 518.12"/><path class="cls-2" d="M94.56,293.48l57.89-116,20.29-5.18L185.4,220l-12.66,41.48-17.07,14.68s-25.6,18.17-25.6,26.43,5.78,57,5.78,57,6.72,52.61,5,55.62S127.59,447.09,116,447.09s-5-40.46-5-40.46.82-33.86-1.66-42.12-18.16-58.64-18.16-61.12S94.56,293.48,94.56,293.48Z"/><path class="cls-4" d="M254.34,387.22V263.36s5.39-67.33-11.13-88.8-21.47-22.3-21.47-22.3l-4.13-21.47s49.14-21.8,18.79-84.4-75.77,5.12-75.77,5.12,0,44.6,7.43,57.81,7.43,44.6,7.43,44.6-25.6,21.47-28.08,33S149.89,291,149.89,291s21.47,113.14,18.17,119.75S249,400,249,400Z"/><path id="right_foot" class="cls-4" d="M168.47,390.52s29.32-79.69,86.3-22.71c0,0,5,29.73-9.91,57S161,556.52,161,556.52s-14.86,34.68-25.6,51.2-41.29,66.9-41.29,66.9-16.11,31-10.33,42.53,10.74,28.08,19,32.2,16.52,8.26,17.34,13.22S118.51,775,118.51,775H80.39L45.83,738.62s-15.69-10.74-7.43-28.08,59.46-128,59.46-128,17.35-28.08,20.65-38.81S168.47,390.52,168.47,390.52Z"/><path class="cls-5" d="M209.67,314.13l62.86,45.44s-14,33.95-17.58,41.77-41.13,144.79-41.13,144.79L114.29,505.9l50-107.52s-9.71-23.58-1.44-43.22l8.26-19.63Z"/><path class="cls-6" d="M167.23,159.7s46.08,12,53.51,6.66,6.2-9.42,6.2-9.42,23.33,11.77,31.28,34.38,7.92,38.13,5,50.6-10.42,44.55-5.35,59.54-8.47,13.72,4.13,38.82c37.37,74.46,44.54,84.86,42.94,89.19-3,8-153.61,18.67-164.34,16.52s-11.7-43.77-5.78-51.21S151.37,299,151.37,299s-2.3-21.19-3.13-34.4c-.89-14.31-4.13-17.34-5.32-28.35-1.6-14.82-.57-36.57,4.49-49.28S167.23,159.7,167.23,159.7Z"/><path class="cls-4" d="M211,184.47S196.68,201.52,201,234.7,233.3,341.38,233.3,341.38,280.38,405,282,409.1s0,40.47,5,44.6,14.87,26.43,19.82,16.52,5.78-61.12,5.78-61.12-57.84-105-58.24-111.14-24.55-84.21-24-96.79S213.48,181.17,211,184.47Z"/><path d="M199.86,155.15c-15.33,3-16.05,13-28.91,13.22-6.13.08-5.39-2.21-21.47-7.44-16.9-5.48-20.58-3.88-27.25-9.08-1.73-1.34-9.55-7.44-11.57-17.34-2.9-14.31,9.53-20.79,5.78-33C113.85,93,107.05,93.4,105.71,85c-.29-1.85-.47-5,7.43-21.48,5.09-10.58,7.63-15.87,10.74-19.82S133.19,32,143.7,27.15c9.22-4.27,11.27-1.49,17.34-5.78,8.42-6,6.17-12.51,14-17.35C181.21.26,188,.9,194.9,1.55c7.45.69,12.56,2.81,21.47,6.6,12.95,5.5,19.43,8.26,23.13,12.39,7.31,8.17,11.39,21.74,6.6,33-.91,2.16.64,20.1-6.6,22.3C232.5,78,235.83,84,226.28,85c-6.09.58-10.45-6.14-12.38,0-1.77,5.59-14.9,2.39-9.92,4.13,19,6.6,18.25,11.46,22.3,22.29,1.17,3.13.08,2.33,1.65,8.26,3.4,12.8,8.32,16,7.44,22.3-.85,6.09-6.32,9.95-7.44,10.74C219.58,158.58,213,152.57,199.86,155.15Z"/><path class="cls-7" d="M247.85,54.17c-9.58,22-55.44,21.85-102.44,21.65-9.42,0-19.85-.51-28.32-6.53-12.84-9.11-16.53-25.83-11.63-37.67,1.23-3,2.7-8.12,4.29-4.24,1.12,2.73,16,2.93,29.49-1.53,12.91-4.26,36.7-2.53,50.94-2C205.73,24.52,219,2.78,230.56,11,245.3,21.51,254.21,39.52,247.85,54.17Z"/><ellipse class="cls-8" cx="167.13" cy="17.24" rx="61.69" ry="12.39" transform="translate(-0.22 32.15) rotate(-10.98)"/><path class="cls-2" d="M656.44,178.51s-19.64,32.87-24.6,43.61-23.12,63.59-12.38,87.54,48.12,79.69,48.12,79.69V283.93Z"/><path class="cls-4" d="M670.66,145.31s6.61-18.76,0-28.79-37.16-81,0-94.25,63.59,9.9,64.42,20.64,9.91,49.09,0,57.17-19.82,15.5-19.82,15.5l1.65,25.6S745,178.35,745,208.08s4.13,73.73,0,86.83-14.87,76.69-10.74,82.47-6-12.85-12.91-9.32-18.47,7.67-33.34,9.32-32.21-13.22-32.21-13.22S637.63,194,647.54,175A102.6,102.6,0,0,1,670.66,145.31Z"/><path class="cls-2" d="M678.09,393.07l-7.43,10.74s5,98.43,7.43,107.44,8.84,48.75,2.77,66.87-12,59.64-12,59.64l-5.61,90.61s-8.68,46.21-6.41,47.88,105.51,5,105.51,5,11.56-14.87-6.61-19.82-44.52-18.63-44.52-18.63-9.16-5.32-7.51-19.36,9.91-70.2,15.7-82.58,12.08-53.69,12.08-53.69,1.13-47.89,1.13-63.59,10.73-80.1,3.3-113.14S678.09,393.07,678.09,393.07Z"/><path class="cls-4" d="M689.65,334.43s-43.77,10.74-32.2,45.43S707,489.69,707,489.69s22.3,41.3,22.3,44.6-.83,13.77-9.09,20.65S669,669.17,655.5,671.92C650,673,629.37,697,629.37,697s-12.39,17.72,0,27.44,66.89,47.72,66.89,47.72,20.5-5,14.87-18.17-32.72-52.32-32.72-52.32l7.94-10.45S766,577.35,765,578.12s15.51-24.84,5.6-71.08-24-133.79-26.43-132.14S732,334.43,722,334.43Z"/><polygon class="cls-3" points="741.68 553.28 652.87 538.44 691.68 388.14 761.47 407.32 741.68 553.28"/><path class="cls-5" d="M670.39,356.77l77.54,1.85s7.64,35.94,9.16,44.38,48.09,142.63,48.09,142.63l-104.82,23.2L680.71,451.89s-21.36-13.94-25.66-34.8l-4.31-20.87Z"/><path class="cls-6" d="M667.19,145.47s35.51,14.73,42.94,9.43,6.19-9.43,6.19-9.43,23.33,11.77,31.28,34.38,14.3,40.54,11.43,53-11.67,31.26-6.61,46.25-13.59,24.62-1,49.71c37.38,74.46,57.93,127.65,56.33,132-3,8-158.56,31.06-169.3,28.9s-20.12-98.94-14.21-106.37,16.52-95.8,16.52-95.8,6.59-23.6-2.31-34.85,0-13.21-6.14-27.91c-5.75-13.75,2.46-31.56,7.52-44.28S667.19,145.47,667.19,145.47Z"/><path class="cls-4" d="M683.05,185s28.9-23.12,38-8.25,3.3,109.83,3.3,109.83,4.13,24.78,9.08,33,30.56,76,30.56,76,7.52,14.4,9.13,29.08-4.17,46.9-10.78,53.5-15.69-3.3-14.87-17.34c0,0,.83-33-2.47-41.29s-43-75.16-43-75.16-17.15-32.46-15.59-39.76l1.55-7.31Z"/><path d="M740.44,48.28c4.13,14-.82,31.38-12.38,32.2-12.73.91-7.49,3.24-8.67,37.58-.31,8.71-.69,19.87-8.26,25.6-12.07,9.13-35.29-.91-47.9-11.56-18.33-15.48-25.09-40.58-22.3-61.94,2.55-19.53,15.18-52.27,42.12-56.16C712.15,9.81,738.09,40.28,740.44,48.28Z"/><path class="cls-9" d="M741.5,55.58c-10,15.71-45,10.1-80.93,4.35-7.2-1.15-15.12-2.76-20.88-8.37-8.73-8.5-9.57-21.72-4.41-30.2,1.3-2.13,3-5.88,3.79-2.73.53,2.23,11.9,4.15,22.74,2.35,10.38-1.72,28.36,2.44,39.19,4.57,11.82,2.33,24.58-12.7,32.42-5.05C743.44,30.3,748.11,45.13,741.5,55.58Z"/><ellipse class="cls-10" cx="683.34" cy="18.54" rx="47.75" ry="9.59" transform="translate(-0.22 25.32) rotate(-2.12)"/><path class="cls-2" d="M1040,781.25h42.38s12.22-11.74,0-15.77-32.87-35.42-32-47.81,70.19-139.56,81.76-170.12,40.46-89.19,40.46-89.19-.82-46.25-21.47-46.25a29.06,29.06,0,0,1-27.25-17.34l-37.17,142.87s-5,24.77-18.17,44.59-40.46,104.06-44.59,114-24.78,19.82-23.12,28.91S1040,781.25,1040,781.25Z"/><path class="cls-2" d="M1196.55,218s18.17,6.61,18.17,19.82,10.74,49.56,17.34,61.12,56.16,95,56.16,95,24.78,51.2,9.09,63.59-32.21-13.21-34.69-23.95-.83-33.86-.83-33.86l-84.23-85.89,16.19-95.8Z"/><path class="cls-4" d="M1107.36,229.6s-2.48-57.81,16.52-64.42,14-35.51,14-35.51-43-70.2,9.91-98.28,71,70.2,59.46,84.24-29.73,21.07-29.73,21.07v19.61s42.12,21.26,41.29,65.85-16.52,109-17.34,126.36.34,44.34,2.23,47.77-60.87,26.56-60.87,26.56l-24.52-24.26s11.31-52.55,3.05-78.15S1107.36,229.6,1107.36,229.6Z"/><path class="cls-4" d="M1133.79,366.69s45.54-29.73,58.69,0,42.89,126.35,45.36,143.7,17.35,71,20.65,80.1S1294.83,721,1294.83,721s1.65,19,18.17,16.51,61.88-1.2,63.56.23,14.89,8-4.1,17.12-68.64,26.41-68.64,26.41c-2.38,2.49-31.29,3.32-34.59-10.72s3.3-20.65-1.65-33.86-45.43-75.15-49.56-101.58-4.13-44.6-11.56-57.81-63.59-133-63.59-133-33-20.65-28.08-43.77S1133.79,366.69,1133.79,366.69Z"/><polygon class="cls-3" points="1162.69 559.11 1075.15 533.51 1113.97 383.2 1183.75 402.38 1162.69 559.11"/><path class="cls-5" d="M1124.33,350.45l77.41-4.89s10.74,35.15,13,43.43S1275,526.9,1275,526.9L1172.6,559.11l-29.73-114.79s-22.48-12-28.58-32.45l-6.1-20.41Z"/><path class="cls-6" d="M1134.61,156.09s35.51,14.73,43,9.43,5.78-6.12,5.78-6.12,23.74,8.47,31.69,31.07,7.93,38.14,5,50.61-10.42,44.55-5.36,59.54-8.47,13.72,4.13,38.81c37.37,74.47,44.54,84.86,42.94,89.2-2.94,8-153.6,18.67-164.34,16.51s-11.69-43.77-5.78-51.2,16.52-95.8,16.52-95.8-.19-25.92-9.09-37.16-.39-10.72.63-25.59-.73-36,4.33-48.74S1134.61,156.09,1134.61,156.09Z"/><path class="cls-4" d="M1098.6,232s23.31-50,32.14-55.53,32.78-8,27.82,19.23-14,40.46-23.12,53.68-25.6,32.2-26.43,48.72,2.48,146.18,2.48,146.18-4.13,24.77-19,36.33-28.14,13.23-21.09-15.68,10.36-39.65,10.36-39.65-6.61-51.2-9.91-67.72,0-61.11,8.26-78.45S1098.6,232,1098.6,232Z"/><path d="M1199,71c4.63-3.93,8.51-.9,12.39-4.13,5.26-4.39,3.52-14.52,2.47-20.64-1.14-6.66-2.41-14.12-8.25-18.17-4.28-3-6.31-.85-15.69-4.13-8.51-3-8.15-5.17-13.22-5.78-7.46-.9-8.78,3.79-19,4.95-9.42,1.07-11.57-2.55-16.52,0-4,2-3.6,4.88-9.91,15.69-4.2,7.2-6.87,11.7-11.56,15.69-6,5.08-10.29,5.18-14,7.44-13.37,8-10.78,34.27-9.54,43.23a8,8,0,0,0,.45,3c1.61,3.45,6.23,3,9.09,5,5,3.5.81,12,3.3,21.47,2.89,11,14.23,21.33,25.6,21.47,7.3.1,12.82-4,17.35-7.43a47.73,47.73,0,0,0,14.86-19c6.25-14.53,1.9-24.28,9.09-35.51a26.85,26.85,0,0,1,7.43-8.26c4.14-2.91,5.88-2.13,9.08-5C1196.74,77.13,1195.28,74.22,1199,71Z"/><path class="cls-11" d="M1219.52,55.56c-4.91,22.15-47.45,30.21-91,38.48-8.74,1.66-18.5,3.1-27.43-1-13.54-6.13-20-21-17.56-32.82.61-3,1-8,3.22-4.7,1.54,2.33,15.37-.17,27.06-6.72,11.2-6.27,33.55-8.94,46.86-11,14.53-2.22,22.95-24.76,35.1-19.21C1211.28,25.75,1222.79,40.83,1219.52,55.56Z"/><ellipse class="cls-12" cx="1138.07" cy="35.84" rx="58.24" ry="11.7" transform="translate(69.15 428.15) rotate(-21.96)"/><path class="cls-2" d="M1736.32,294.84l45.42,69.37s9.91,9.08,9.91,28.08,3.31,47.9-9.91,45.42-15.69-5.78-20.64-19-4.13-38-4.13-38l-27.26-22.3Z"/><path class="cls-2" d="M1729.71,381.8s17.37,43.33,24.79,72.75,9.9,51.71,9.9,83.91-3.3,45.61-17.34,64.1-28.08,29.23-39.64,52.35-18.17,33-19.82,47.07-4.13,25.86,0,31.51-4.13,12.26-5.79,16.39-15.65,1.65-23.93,0-28.09-7.43-29.75-16.51-6.6-15.7,4.13-26.43,46.25-60.29,46.25-60.29,28.08-118.1,27.25-114S1695,465.93,1695,465.93V417.86l32.27-36.31Z"/><path class="cls-4" d="M1676,148.66v-20.5s-48.18-93.59,4-101.79,81.9,48.79,60.43,73.57-24.78,23.12-24.78,23.12V140.4s39.64,18.17,38.82,58.64-12.39,187.47-12.39,187.47l-90,2.48-4.95-106.54,9.08-80.93Z"/><polygon class="cls-3" points="1791.97 550.98 1700.88 555.61 1688.08 400.9 1760.29 396.05 1791.97 550.98"/><path class="cls-4" d="M1661.17,415.41S1643,375,1652.08,359.25s19.82-28.9,38.82-28.07,37.16.82,42.94,14.86,10.94,16.48,7.54,27.24-11.67,144.54-11.67,144.54-.82,66.89-6.6,92.49-14.87,85.89-18.17,100.76-12.39,30.55,3.3,37.16S1761.1,773,1761.1,773s6.17,8.65-5.18,9.69-94.24-1.45-94.24-1.45-4.64-16.5-2.16-27.24,13.49-147,14.17-157.33,8.12-51.61,1.52-85.47S1661.17,415.41,1661.17,415.41Z"/><path class="cls-5" d="M1666.3,338.62l76.2,14.51s1.65,36.72,1.77,45.29S1768.37,547,1768.37,547l-118.76,6.33-2.48-130.48s-5-6-5.83-27.24l-.83-21.28Z"/><path class="cls-6" d="M1674.47,144.07s36.77,16.15,43,9.43c9-9.79,6.51-8.14,6.51-8.14s23,10.48,31,33.09,7.93,38.14,5,50.6-5.27,43.72-5.36,59.54c-.09,16.16-8.46,13.72,4.13,38.82,37.37,74.46,44.54,84.86,43,89.19-3,8-153.61,18.67-164.35,16.52s-7.89-41.95-5.78-51.21c4-17.7,16.52-95.8,16.52-95.8s-4.17-22.46-5.88-36.69c-2.47-20.65-3.59-11.19-2.58-26.06s-.73-36,4.33-48.74S1674.47,144.07,1674.47,144.07Z"/><path class="cls-4" d="M1675.21,156.09s28.9-.82,22.3,31.39-20.65,87.68-22.3,99.58,3.3,36.68,7.43,47.42,19.82,63.59,23.95,72.67,9.91,20.81,0,39.31-19.82,29.24-27.25,27.59-15.69.82-9.91-23.95,13.21-33.86,9.91-41.29-9.91-32.21-14.87-35.52S1643,337,1638,323.74s.83-71,5.78-99.1,6.61-55.33,13.22-61.11S1675.21,156.09,1675.21,156.09Z"/><path d="M1746.64,70.62c-5.57,6.33-8.36,9.49-9.08,9.91-8.75,5-16.6-5.78-26.43-1.65-4.69,2-7.53,6.54-13.21,15.69-3.82,6.15-4.2,8.73-8.26,12.39-3.51,3.17-7,4.67-11.56,6.6-6.36,2.72-9.54,4.08-13.22,3.31-3.87-.81-6-3.51-9.91-8.26-16-19.51-16.33-18.2-17.34-21.47-1.62-5.24.34-4.79,0-24-.19-11-.84-11.22,0-14,.58-1.93,2.67-7.84,20.65-19,11.75-7.29,17.63-10.94,27.25-13.21a61,61,0,0,1,26.43-.83c4.28.85,25.82,5.08,28.9,17.35,1.71,6.78-3.69,10.24-.82,16.51,3.22,7.06,12.18,7.32,12.38,12.39C1752.48,63.65,1751.94,64.6,1746.64,70.62Z"/><path class="cls-11" d="M1756.1,46.81c-4.91,22.15-47.45,30.22-91,38.49-8.74,1.66-18.5,3.09-27.43-1-13.54-6.14-20-21-17.55-32.83.6-3,1-8,3.21-4.7,1.54,2.33,15.37-.16,27.06-6.71,11.2-6.28,33.56-9,46.86-11,14.53-2.22,23-24.75,35.11-19.21C1747.87,17,1759.37,32.09,1756.1,46.81Z"/><ellipse class="cls-12" cx="1674.66" cy="27.1" rx="58.24" ry="11.7" transform="translate(111.34 628.15) rotate(-21.96)"/><ellipse class="cls-1" cx="2073.65" cy="476.94" rx="81.34" ry="14.96"/><polygon class="cls-13" points="2108.33 468.82 2105.74 456.81 2114.99 453.55 2117.17 467.15 2108.33 468.82"/><polygon class="cls-13" points="2025.85 455.61 2026.58 467.42 2035.83 468.51 2034.74 452.73 2025.85 450.85 2025.85 455.61"/><path class="cls-14" d="M2019.51,450.56s19.59,9.24,21.76,2.72,9.8-50.06,15.24-53.32-27.75-8.71-27.75-8.71S2016.25,445.11,2019.51,450.56Z"/><path class="cls-14" d="M2093.5,401.59s-2.17,54.41,3.81,58.21,24.49,1.64,23.4-5.44-9.87-42.43-4.66-52.77S2093.5,401.59,2093.5,401.59Z"/><path class="cls-14" d="M2012.44,389.62s8.16-82.7,26.66-104.46,86.58,0,86.58,0,5.36,10.88,5.91,17.41,6,90.62,0,95.63S2031.48,416.82,2012.44,389.62Z"/><polygon class="cls-15" points="2057.59 313.45 2084.26 297.13 2055.96 288.97 2057.59 313.45"/><polygon class="cls-15" points="2112 296.58 2102.21 315.63 2077.45 297.49 2112 296.58"/><path class="cls-13" d="M2145.19,219.57s17.41-8.06,19.59,3.72-8.16,25.42-13.06,25.42S2145.19,219.57,2145.19,219.57Z"/><path class="cls-13" d="M2043.45,206.38s-20.13-7.67-21.76,3.55-.55,15.95,7.61,21.85S2043.45,206.38,2043.45,206.38Z"/><path class="cls-13" d="M2042.63,284.89s-56.84,59.64-57,63.55-.14,3.08-.14,3.08,10,14.16-12.77,22.06c0,0-15.87-7.79,1.27-27.53l6.29-2.9s30.8-64.92,51.72-67.43S2042.63,284.89,2042.63,284.89Z"/><path class="cls-13" d="M2127.51,297.4s46.24,63.11,46.24,66.92v3s-10.33,13.32,11.43,22c0,0,15.78-6.87,0-26.83l-6-3.1s-24.93-71.7-45.15-75.08S2127.51,297.4,2127.51,297.4Z"/><path class="cls-13" d="M2050,197s-72.36,93.58,32.1,102.83,59.3-94.13,59.3-94.13Z"/><path class="cls-16" d="M2015.7,246.35s8.75-44.65,14-50.47,6.41-2.59,6.41-2.59l-1.74,6.47s-13.06,44-12.95,46.59S2015.7,246.35,2015.7,246.35Z"/><path class="cls-16" d="M2156.34,208.55v62c0,.81,6.4,2.07,6.4,2.07s1.92-61.15,0-63.26S2156.34,208.55,2156.34,208.55Z"/><path d="M2112.82,465s-12.52-2.17-9.25,16.33c0,0,17.27,4.89,19.52,0S2127,466.06,2112.82,465Z"/><ellipse class="cls-17" cx="2118.53" cy="226.4" rx="15.78" ry="18.5"/><ellipse class="cls-17" cx="2064.94" cy="221.23" rx="16.32" ry="18.5"/><path class="cls-16" d="M2161.15,215.2c9.74.32-2.9-60.07-63.84-74.22S2025,200.83,2025,200.83,2151.54,214.87,2161.15,215.2Z"/><polygon class="cls-18" points="2043.99 353.17 2031.48 343.37 2033.66 328.42 2059.77 331.4 2057.59 346.1 2043.99 353.17"/><path class="cls-19" d="M2033.66,327.6v5.08s21.24,4.71,23.67,3.35,2.44-4.63,2.44-4.63S2034.74,329.23,2033.66,327.6Z"/><path class="cls-20" d="M2061.4,376.56V382s-46.35-8.32-46.29-13.66.85-5.77.85-5.77S2059.23,380.91,2061.4,376.56Z"/><path class="cls-20" d="M2082.62,379.28s49.51-1.63,50.6-4.89,1.06,4.89,1.06,4.89-51.11,7.41-51.66,4.52A9.87,9.87,0,0,1,2082.62,379.28Z"/><polygon class="cls-18" points="2106.61 358.58 2093.28 349.93 2094.13 334.85 2120.41 335.52 2119.53 350.34 2106.61 358.58"/><path class="cls-19" d="M2094.06,334l.44,5.07s21.58,2.82,23.89,1.25,2-4.82,2-4.82S2095.28,335.55,2094.06,334Z"/><path d="M2019,458.81s-10.34,4.18-6.53,15.37c0,0,22.85,6.3,23.94,1.4S2040.19,460,2019,458.81Z"/><path class="cls-14" d="M2012.44,372.24l-5.72-1.93s-.27-15.35,2.86-19.1,8.35-.65,8.35-.65l-3.38,21.68Z"/><path class="cls-14" d="M2136.08,383.11l6-.76s3.31-15,1-19.28-8.05-2.29-8.05-2.29l-1,21.91Z"/><ellipse cx="2057.32" cy="215.25" rx="4.35" ry="5.44"/><ellipse cx="2109.01" cy="221.23" rx="4.35" ry="5.44"/><path class="cls-21" d="M2098.17,244.74s-16.64-14-20.72,0c-3.46,11.88,17.28,8.44,17.28,8.44"/><path d="M2072.29,279.72s16.86,1.63,20.13,2.72,16.32-2.18-3.81-13.6C2088.61,268.84,2065.76,266.12,2072.29,279.72Z"/><path d="M2012,242.78l-4.4,23.53,11.77,2.2,4.39-23.53Zm5.78,21-7.26-1.36,2.71-14.52,7.27,1.35Z"/><path d="M2058.57,386.2l25.71,1.18.88-12-25.72-1.18Zm21.7-8.79-.61,6.83-15.85-.52.61-6.82Z"/></g></g></svg>