<svg xmlns="http://www.w3.org/2000/svg" viewBox="0 0 128.68 121.66"><defs><style>.cls-1{fill:#71270e;}.cls-1,.cls-2,.cls-3,.cls-4{stroke:#1d1d1b;stroke-miterlimit:10;stroke-width:0.1px;}.cls-2{fill:#76c6c7;}.cls-4,.cls-5{fill:#fff;}.cls-5{font-size:12px;font-family:BaskOldFace, Baskerville Old Face;}</style></defs><g id="Calque_2" data-name="Calque 2"><g id="Calque_3" data-name="Calque 3"><path class="cls-1" d="M58.76,50.64l.93,0c3.41-.07,15.26-.07,18.85,3,4.2,3.59,6.06,10.14,5.93,12.86s3,13,3,13l3.71,8.28H86a79.37,79.37,0,0,0-5.2-8.9C78.41,75.61,74.58,70.54,75,63c0,0,.74-3.46-3.21-2.1s-15.95,6.42-22.25,4.45S58.76,50.64,58.76,50.64Z"/><path class="cls-1" d="M6.85,101.22s4.93-12.63,8.64-15.35,8.53-4.7,10.76-8S36.38,59,37.13,57s5.81-9.46,9.64-11,4.45-4.14,4.45-4.14l10.63,7.7A90.45,90.45,0,0,1,31.69,84.1s-22.13,22-22.75,23-4-3.83-4-3.83Z"/><path id="chaussure" class="cls-2" d="M6.85,101.22S1.11,102.31.13,104s7.09,10.29,7.09,10.29,5.75.79,6.68,0,.51-2.92-1.16-3.29a14.23,14.23,0,0,0-2.78-.37l.28-4.31S5.69,106,6.85,101.22Z"/><path class="cls-1" d="M52.05,34.16,48,36.57s-2.23-.18-1.4,3A23.3,23.3,0,0,0,50,46.12L46.4,48.26,42,39.54s-2.51-2.13,1.29-5.38,12-10.1,12-10.1l-2.39,10Z"/><g id="tete"><path class="cls-1" d="M66.61,26.41l.13-7.35s0-2.14,2.36-1.3a39.64,39.64,0,0,0,5.42,1.39s1.8-2.39,1.81-3.23.81-.56.81-.56,1-1.1.21-1.75a2.05,2.05,0,0,1-.23-2.73c.64-.67,2.14-3,1-4.84L76.9,4.22,74.28,2.41,70.54,1.12l-3.18.08L62.27,5.73,60.88,9.86s-1,4.92.24,5.44-.55,4.6-.55,4.6Z"/><path class="cls-3" d="M65.32,1.05s-5-2.38-5.46.84S60.63,4.13,58.6,6s.54,2-.51,4.24-1,2.78-.51,4.23.17,1.42,1.32,2.68-.06,1.3,1.78,1.52,1.56,1,3.41.41,1.6,1.69,2.64.69,2.08.6,3.66-.3,3.08,0,3.52-2.1,1.73-2.13,1.69-3.25-1-1.6-.6-2.73-.76-.57,1.08-1.14,1.09.73,1.52,0,2,.08,1.56-2.31.33-4.34-1.62-5.23.17-1.29-4.07-1.8S69-.18,67.11.15,65.32,1.05,65.32,1.05Z"/></g><path class="cls-4" d="M60.12,50l1.36.31s8.12.65,8.81.74,4.41.8,4.41.8L66.89,72.82,50.62,64.94Z"/><path class="cls-4" d="M60.37,19.61s-7.79-.13-8.53,20.89l-.62,1.28,10.63,7.7s2-8.36,2.6-9.11a2.69,2.69,0,0,1,1.85-.74s7.17,2.1,1.48-12.61c0,0-1.48-1-3.09-4.32S60.37,19.61,60.37,19.61Z"/><path class="cls-4" d="M51.22,41.78a7.54,7.54,0,0,1-4.95,4.14c-3.83,1.13-7.93,8.81-7.93,8.81l-3.43,6.91L33,65.35,49,76l12.86-26.5Z"/><polygon class="cls-3" points="51.22 41.78 51.84 40.5 62.21 47.99 61.85 49.48 51.22 41.78"/><path class="cls-1" d="M58.08,23.87s-6.31,8.07,0,9c0,0,1.3.75,1.57,1.67s5.66,12,5.66,12,.54,1.95,4.26,1.77,19.94.64,19.94.64,6-3.61,0-5.74c0,0-1.11-.51-2.87,1.83L70,43.62s-1.21.19-1.86-2.32l-.65-2.5L65.31,27.21s-.43-4.45-3.46-4.27S58.08,23.87,58.08,23.87Z"/><path id="chaussure-2" data-name="chaussure" class="cls-2" d="M85.1,85s2.76,3,5.56,1.39c0,0,3.42,4.91,5.35,5.65l2.3.86s3.45,3-.69,3.52-16.07-5.08-16.07-5.08S83.41,84.7,85.1,85Z"/><text class="cls-5" transform="translate(34.21 118.5)">Courses d&apos;obstacles</text></g></g></svg>